<svg xmlns="http://www.w3.org/2000/svg" viewBox="0 0 648 652"><g opacity="0.6"><polygon points="150.87 419.97 150.74 416.28 154.43 416.14 154.56 419.84 150.87 419.97" fill="#231f20"/><path d="M150.77,459.62l.06-3.7,3.7,0-.06,3.72Zm0-19.87.06-3.7,3.7,0-.06,3.72Z" fill="#231f20"/><polygon points="150.8 479.51 150.8 475.81 154.5 475.8 154.5 479.51 150.8 479.51" fill="#231f20"/><polygon points="131.46 419.91 131.46 416.21 135.15 416.2 135.15 419.91 131.46 419.91" fill="#231f20"/><path d="M131.49,459.68l-.06-3.69,3.69-.09.06,3.72Zm-.06-19.93.06-3.69,3.69,0-.06,3.72Z" fill="#231f20"/><polygon points="131.52 479.57 131.39 475.88 135.09 475.74 135.22 479.45 131.52 479.57" fill="#231f20"/><polygon points="112.11 419.91 112.11 416.21 115.8 416.2 115.8 419.91 112.11 419.91" fill="#231f20"/><path d="M112.14,459.68l-.06-3.69,3.69-.09.07,3.72Zm-.06-19.93.06-3.7,3.69,0-.06,3.72Z" fill="#231f20"/><polygon points="112.17 479.57 112.05 475.88 115.74 475.74 115.87 479.45 112.17 479.57" fill="#231f20"/><polygon points="92.76 419.91 92.76 416.21 96.46 416.2 96.46 419.91 92.76 419.91" fill="#231f20"/><path d="M92.73,459.62l.06-3.69,3.7,0-.06,3.72Zm0-19.87.06-3.7,3.7,0-.06,3.72Z" fill="#231f20"/><polygon points="92.76 479.51 92.76 475.82 96.46 475.81 96.46 479.51 92.76 479.51" fill="#231f20"/><polygon points="627.48 101.2 627.48 86.42 642.26 86.41 642.26 101.2 627.48 101.2" fill="#1f1f21"/><path d="M627.36,140.82,627.6,126l14.78.22-.24,14.8Zm.24-19.63-.24-14.78,14.78-.26.24,14.8Z" fill="#1f1f21"/><polygon points="627.48 160.8 627.48 146.02 642.26 146.01 642.26 160.8 627.48 160.8" fill="#1f1f21"/><polygon points="608.13 101.2 608.13 86.42 622.91 86.41 622.91 101.2 608.13 101.2" fill="#1f1f21"/><path d="M608.25,141.06,608,126.28l14.77-.25.24,14.8Zm0-19.87L608,106.41l14.77-.25L623,121Z" fill="#1f1f21"/><polygon points="608.13 160.81 608.13 146.02 622.91 146.01 622.91 160.81 608.13 160.81" fill="#1f1f21"/><polygon points="588.78 101.2 588.78 86.42 603.56 86.41 603.56 101.2 588.78 101.2" fill="#1f1f21"/><path d="M588.9,141.06l-.23-14.78,14.78-.25.23,14.8Zm0-19.87-.23-14.78,14.78-.26.23,14.8Z" fill="#1f1f21"/><polygon points="588.79 160.81 588.79 146.03 603.57 146.02 603.57 160.81 588.79 160.81" fill="#1f1f21"/><polygon points="569.44 101.2 569.44 86.42 584.22 86.41 584.22 101.2 569.44 101.2" fill="#1f1f21"/><path d="M569.32,140.82l.24-14.78,14.78.23-.24,14.79Zm.23-19.63-.23-14.78,14.78-.26.23,14.8Z" fill="#1f1f21"/><polygon points="569.44 160.81 569.44 146.03 584.22 146.02 584.22 160.81 569.44 160.81" fill="#1f1f21"/><polygon points="633.02 419.91 633.02 416.21 636.72 416.2 636.72 419.91 633.02 419.91" fill="#231f20"/><path d="M633.05,459.68,633,456l3.7-.08.06,3.72Zm0-19.87-.06-3.7,3.7-.08.06,3.72Z" fill="#231f20"/><polygon points="632.96 479.44 633.09 475.75 636.78 475.87 636.65 479.57 632.96 479.44" fill="#231f20"/><polygon points="613.68 419.91 613.68 416.21 617.37 416.2 617.37 419.91 613.68 419.91" fill="#231f20"/><path d="M613.71,459.68l-.06-3.69,3.69-.08.06,3.71Zm0-19.87-.06-3.69,3.69-.08.06,3.71Z" fill="#231f20"/><polygon points="613.62 479.45 613.74 475.75 617.44 475.87 617.31 479.58 613.62 479.45" fill="#231f20"/><polygon points="594.27 419.84 594.39 416.15 598.09 416.27 597.96 419.97 594.27 419.84" fill="#231f20"/><path d="M594.27,459.59l.12-3.69,3.69.1-.12,3.71Zm.09-19.78-.06-3.7L598,436l0,3.71Z" fill="#231f20"/><polygon points="594.27 479.45 594.39 475.75 598.09 475.87 597.96 479.58 594.27 479.45" fill="#231f20"/><polygon points="574.92 419.84 575.05 416.15 578.74 416.27 578.61 419.97 574.92 419.84" fill="#231f20"/><path d="M575,459.62l.06-3.69,3.7,0-.06,3.71Zm.06-19.81-.06-3.7,3.7-.07.06,3.71Z" fill="#231f20"/><polygon points="574.98 479.51 574.98 475.82 578.68 475.81 578.68 479.51 574.98 479.51" fill="#231f20"/><polygon points="632.96 500.91 633.09 497.21 636.78 497.33 636.65 501.03 632.96 500.91" fill="#231f20"/><path d="M633,540.68l.07-3.69,3.69,0-.06,3.71Zm.06-19.81,0-3.69,3.69-.08.06,3.71Z" fill="#231f20"/><polygon points="633.02 560.57 633.02 556.88 636.72 556.87 636.72 560.57 633.02 560.57" fill="#231f20"/><polygon points="613.62 500.91 613.74 497.21 617.43 497.33 617.31 501.03 613.62 500.91" fill="#231f20"/><path d="M613.65,540.68l.06-3.69,3.69,0-.06,3.71Zm.06-19.81-.06-3.69,3.69-.08.06,3.71Z" fill="#231f20"/><polygon points="613.68 560.58 613.68 556.88 617.37 556.87 617.37 560.58 613.68 560.58" fill="#231f20"/><polygon points="594.33 500.97 594.33 497.28 598.03 497.27 598.03 500.97 594.33 500.97" fill="#231f20"/><path d="M594.3,540.68l.06-3.69,3.7,0-.06,3.71Zm.06-19.81-.06-3.69,3.7-.08.06,3.71Z" fill="#231f20"/><polygon points="594.33 560.58 594.33 556.88 598.03 556.87 598.03 560.58 594.33 560.58" fill="#231f20"/><polygon points="574.99 500.97 574.99 497.28 578.68 497.27 578.68 500.97 574.99 500.97" fill="#231f20"/><path d="M575,540.68,575,537l3.7,0-.06,3.71Zm.06-19.81,0-3.69,3.69-.08.06,3.71Z" fill="#231f20"/><polygon points="574.92 560.51 575.05 556.82 578.74 556.93 578.61 560.64 574.92 560.51" fill="#231f20"/><polygon points="311.54 14.59 311.54 10.9 315.24 10.89 315.24 14.59 311.54 14.59" fill="#1f1f21"/><path d="M311.54,54.34v-3.7l3.7,0v3.72Zm0-19.88V30.77l3.7,0v3.71Z" fill="#1f1f21"/><polygon points="311.54 74.19 311.54 70.5 315.24 70.49 315.24 74.19 311.54 74.19" fill="#1f1f21"/><polygon points="292.26 14.66 292.13 10.96 295.82 10.83 295.95 14.53 292.26 14.66" fill="#1f1f21"/><path d="M292.2,54.34v-3.7l3.69,0v3.72Zm0-19.87v-3.7l3.69,0v3.72Z" fill="#1f1f21"/><polygon points="292.19 74.2 292.19 70.5 295.89 70.49 295.89 74.2 292.19 74.2" fill="#1f1f21"/><polygon points="272.91 14.66 272.79 10.96 276.48 10.83 276.61 14.53 272.91 14.66" fill="#1f1f21"/><path d="M272.85,54.34v-3.7l3.69,0v3.72Zm0-19.87v-3.7l3.69,0v3.72Z" fill="#1f1f21"/><polygon points="272.85 74.2 272.85 70.5 276.54 70.49 276.54 74.2 272.85 74.2" fill="#1f1f21"/><polygon points="253.5 14.59 253.5 10.9 257.2 10.89 257.2 14.59 253.5 14.59" fill="#1f1f21"/><path d="M253.5,54.34v-3.7l3.7,0v3.72Zm0-19.87v-3.7l3.7,0v3.72Z" fill="#1f1f21"/><polygon points="253.5 74.2 253.5 70.5 257.2 70.49 257.19 74.2 253.5 74.2" fill="#1f1f21"/><polygon points="391.91 14.59 391.91 10.9 395.61 10.89 395.61 14.59 391.91 14.59" fill="#2b2b2d"/><path d="M391.91,54.34v-3.7l3.7,0v3.72Zm0-19.88V30.77l3.7,0v3.71Z" fill="#2b2b2d"/><polygon points="391.91 74.19 391.91 70.5 395.61 70.49 395.61 74.19 391.91 74.19" fill="#2b2b2d"/><polygon points="372.63 14.66 372.5 10.96 376.2 10.83 376.32 14.53 372.63 14.66" fill="#2b2b2d"/><path d="M372.57,54.34v-3.7l3.69,0v3.72Zm0-19.87v-3.7l3.69,0v3.72Z" fill="#2b2b2d"/><polygon points="372.57 74.2 372.57 70.5 376.26 70.49 376.26 74.2 372.57 74.2" fill="#2b2b2d"/><polygon points="353.28 14.66 353.16 10.96 356.85 10.83 356.98 14.53 353.28 14.66" fill="#2b2b2d"/><path d="M353.22,54.34v-3.7l3.69,0v3.72Zm0-19.87v-3.7l3.69,0v3.72Z" fill="#2b2b2d"/><polygon points="353.22 74.2 353.22 70.5 356.91 70.49 356.91 74.2 353.22 74.2" fill="#2b2b2d"/><polygon points="333.87 14.59 333.87 10.9 337.57 10.89 337.57 14.59 333.87 14.59" fill="#2b2b2d"/><path d="M333.87,54.34v-3.7l3.7,0v3.72Zm0-19.87v-3.7l3.7,0v3.72Z" fill="#2b2b2d"/><polygon points="333.87 74.2 333.87 70.5 337.57 70.49 337.57 74.2 333.87 74.2" fill="#2b2b2d"/><polygon points="306.26 101.45 305.75 86.68 320.52 86.16 321.03 100.94 306.26 101.45" fill="#1f1f21"/><path d="M306,140.94V126.16l14.78,0v14.8Zm0-19.87V106.29l14.78,0v14.8Z" fill="#1f1f21"/><polygon points="305.75 160.54 306.26 145.77 321.03 146.27 320.52 161.05 305.75 160.54" fill="#1f1f21"/><polygon points="286.65 101.2 286.65 86.42 301.43 86.41 301.43 101.2 286.65 101.2" fill="#1f1f21"/><path d="M286.54,140.83l.23-14.78,14.78.21-.24,14.8Zm.11-19.76V106.29l14.78,0v14.8Z" fill="#1f1f21"/><polygon points="286.65 160.8 286.65 146.02 301.43 146.01 301.43 160.8 286.65 160.8" fill="#1f1f21"/><polygon points="267.05 100.94 267.56 86.17 282.34 86.67 281.83 101.45 267.05 100.94" fill="#1f1f21"/><path d="M267.42,141.06l-.23-14.78L282,126l.23,14.79Zm-.12-20V106.29l14.79,0v14.8Z" fill="#1f1f21"/><polygon points="267.56 161.05 267.06 146.28 281.83 145.76 282.34 160.54 267.56 161.05" fill="#1f1f21"/><polygon points="247.71 100.94 248.22 86.17 262.99 86.67 262.48 101.45 247.71 100.94" fill="#1f1f21"/><path d="M248,140.94V126.16l14.78,0v14.8Zm0-19.87V106.29l14.78,0v14.8Z" fill="#1f1f21"/><polygon points="247.96 160.8 247.96 146.02 262.74 146.01 262.74 160.8 247.96 160.8" fill="#1f1f21"/><polygon points="391.98 95.72 391.85 92.03 395.54 91.89 395.67 95.59 391.98 95.72" fill="#1f1f21"/><path d="M391.91,135.4v-3.7l3.7,0v3.72Zm0-19.87v-3.7l3.7,0v3.72Z" fill="#1f1f21"/><polygon points="391.85 155.19 391.98 151.5 395.67 151.62 395.54 155.32 391.85 155.19" fill="#1f1f21"/><polygon points="372.57 95.66 372.57 91.96 376.26 91.95 376.26 95.66 372.57 95.66" fill="#1f1f21"/><path d="M372.6,135.43l-.06-3.7,3.69-.07.06,3.71Zm0-19.9v-3.7l3.69,0v3.72Z" fill="#1f1f21"/><polygon points="372.57 155.26 372.57 151.57 376.26 151.56 376.26 155.26 372.57 155.26" fill="#1f1f21"/><polygon points="353.15 95.59 353.28 91.9 356.98 92.02 356.85 95.72 353.15 95.59" fill="#1f1f21"/><path d="M353.19,135.37l.06-3.69,3.69,0-.06,3.72Zm0-19.84v-3.7l3.69,0v3.72Z" fill="#1f1f21"/><polygon points="353.28 155.32 353.15 151.63 356.85 151.49 356.98 155.2 353.28 155.32" fill="#1f1f21"/><polygon points="333.81 95.59 333.94 91.9 337.63 92.02 337.5 95.72 333.81 95.59" fill="#1f1f21"/><path d="M333.87,135.4v-3.7l3.7,0v3.72Zm0-19.87v-3.7l3.7,0v3.72Z" fill="#1f1f21"/><polygon points="333.87 155.26 333.87 151.56 337.56 151.56 337.56 155.26 333.87 155.26" fill="#1f1f21"/><polygon points="552.65 95.66 552.65 91.96 556.35 91.95 556.35 95.66 552.65 95.66" fill="#2b2b2d"/><path d="M552.68,135.43l-.06-3.7,3.7-.08.06,3.72Zm0-19.87-.06-3.7,3.7-.08.06,3.72Z" fill="#2b2b2d"/><polygon points="552.65 155.26 552.65 151.56 556.35 151.55 556.35 155.26 552.65 155.26" fill="#2b2b2d"/><polygon points="533.3 95.66 533.3 91.96 537 91.95 537 95.66 533.3 95.66" fill="#2b2b2d"/><path d="M533.33,135.43l-.05-3.7,3.69-.07.06,3.71Zm0-19.87-.06-3.7,3.69-.08.06,3.72Z" fill="#2b2b2d"/><polygon points="533.3 155.26 533.3 151.57 537 151.56 537 155.26 533.3 155.26" fill="#2b2b2d"/><polygon points="513.96 95.66 513.96 91.96 517.65 91.95 517.65 95.66 513.96 95.66" fill="#2b2b2d"/><path d="M514,135.43l-.06-3.69,3.69-.08.06,3.71Zm0-19.9v-3.7l3.69,0v3.72Z" fill="#2b2b2d"/><polygon points="513.96 155.26 513.96 151.57 517.65 151.56 517.65 155.26 513.96 155.26" fill="#2b2b2d"/><polygon points="494.61 95.66 494.61 91.96 498.31 91.95 498.31 95.66 494.61 95.66" fill="#2b2b2d"/><path d="M494.61,135.4v-3.69l3.7,0v3.72Zm0-19.87v-3.7l3.7,0v3.72Z" fill="#2b2b2d"/><polygon points="494.61 155.26 494.61 151.57 498.31 151.56 498.31 155.26 494.61 155.26" fill="#2b2b2d"/><polygon points="231.24 95.72 231.11 92.03 234.8 91.89 234.93 95.59 231.24 95.72" fill="#3a3b41"/><path d="M231.17,135.4v-3.7l3.7,0v3.72Zm0-19.87v-3.7l3.7,0v3.72Z" fill="#3a3b41"/><polygon points="231.11 155.19 231.24 151.5 234.93 151.62 234.8 155.32 231.11 155.19" fill="#3a3b41"/><polygon points="211.82 95.66 211.82 91.96 215.52 91.95 215.52 95.66 211.82 95.66" fill="#3a3b41"/><path d="M211.85,135.43l0-3.7,3.69-.07.06,3.71Zm0-19.9v-3.7l3.7,0v3.72Z" fill="#3a3b41"/><polygon points="211.82 155.26 211.82 151.56 215.52 151.56 215.52 155.26 211.82 155.26" fill="#3a3b41"/><polygon points="192.41 95.59 192.54 91.9 196.24 92.02 196.11 95.72 192.41 95.59" fill="#3a3b41"/><path d="M192.48,135.4v-3.7l3.69,0v3.72Zm0-19.87v-3.7l3.69,0v3.72Z" fill="#3a3b41"/><polygon points="192.54 155.32 192.42 151.63 196.11 151.49 196.24 155.2 192.54 155.32" fill="#3a3b41"/><polygon points="173.13 95.66 173.13 91.96 176.83 91.95 176.83 95.66 173.13 95.66" fill="#3a3b41"/><path d="M173.1,135.37l.06-3.69,3.69,0,0,3.72Zm0-19.84v-3.7l3.7,0v3.72Z" fill="#3a3b41"/><polygon points="173.13 155.26 173.13 151.57 176.82 151.56 176.82 155.26 173.13 155.26" fill="#3a3b41"/><polygon points="231.11 14.53 231.24 10.84 234.93 10.95 234.8 14.66 231.11 14.53" fill="#2b2b2d"/><path d="M231.17,54.34v-3.7l3.7,0v3.72Zm0-19.88V30.77l3.7,0v3.71Z" fill="#2b2b2d"/><polygon points="231.17 74.19 231.17 70.5 234.87 70.49 234.87 74.19 231.17 74.19" fill="#2b2b2d"/><polygon points="211.82 14.6 211.82 10.9 215.52 10.89 215.52 14.6 211.82 14.6" fill="#2b2b2d"/><path d="M211.85,54.37l0-3.7,3.69-.08.06,3.72Zm0-19.9v-3.7l3.7,0v3.72Z" fill="#2b2b2d"/><polygon points="211.82 74.2 211.82 70.5 215.52 70.49 215.52 74.2 211.82 74.2" fill="#2b2b2d"/><polygon points="192.54 14.66 192.41 10.96 196.11 10.83 196.24 14.53 192.54 14.66" fill="#2b2b2d"/><path d="M192.45,54.31l.06-3.7,3.69,0-.06,3.72Zm0-19.84v-3.7l3.69,0v3.72Z" fill="#2b2b2d"/><polygon points="192.42 74.13 192.54 70.44 196.24 70.56 196.11 74.26 192.42 74.13" fill="#2b2b2d"/><polygon points="173.13 14.59 173.13 10.9 176.83 10.89 176.83 14.59 173.13 14.59" fill="#2b2b2d"/><path d="M173.13,54.34v-3.7l3.7,0v3.72Zm0-19.87v-3.7l3.7,0v3.72Z" fill="#2b2b2d"/><polygon points="173.13 74.2 173.13 70.5 176.83 70.49 176.83 74.2 173.13 74.2" fill="#2b2b2d"/><polygon points="552.65 176.72 552.65 173.02 556.35 173.01 556.35 176.72 552.65 176.72" fill="#1f1f21"/><path d="M552.62,216.43l.06-3.7,3.7.05-.06,3.71Zm.06-19.81-.06-3.7,3.7-.08.06,3.72Z" fill="#1f1f21"/><polygon points="552.65 236.32 552.65 232.63 556.35 232.62 556.35 236.32 552.65 236.32" fill="#1f1f21"/><polygon points="533.31 176.72 533.31 173.02 537 173.01 537 176.72 533.31 176.72" fill="#1f1f21"/><path d="M533.34,216.49l-.06-3.69,3.69-.08.06,3.71Zm0-19.87-.06-3.7,3.69-.07.06,3.71Z" fill="#1f1f21"/><polygon points="533.31 236.32 533.31 232.63 537 232.62 537 236.32 533.31 236.32" fill="#1f1f21"/><polygon points="513.96 176.72 513.96 173.02 517.65 173.01 517.65 176.72 513.96 176.72" fill="#1f1f21"/><path d="M514,216.49l-.06-3.69,3.7-.08,0,3.71Zm0-19.87-.06-3.69,3.69-.08.06,3.71Z" fill="#1f1f21"/><polygon points="513.96 236.32 513.96 232.63 517.66 232.62 517.65 236.32 513.96 236.32" fill="#1f1f21"/><polygon points="494.61 176.72 494.61 173.02 498.31 173.01 498.31 176.72 494.61 176.72" fill="#1f1f21"/><path d="M494.64,216.49l-.06-3.69,3.7-.08.06,3.71Zm0-19.87-.06-3.69,3.7-.08.06,3.71Z" fill="#1f1f21"/><polygon points="494.55 236.26 494.68 232.56 498.37 232.68 498.24 236.39 494.55 236.26" fill="#1f1f21"/><polygon points="311.61 257.85 311.48 254.15 315.17 254.01 315.3 257.72 311.61 257.85" fill="#231f20"/><path d="M311.54,297.52v-3.69l3.7,0v3.71Zm0-19.87V274l3.7,0v3.71Z" fill="#231f20"/><polygon points="311.48 317.32 311.61 313.63 315.3 313.74 315.17 317.44 311.48 317.32" fill="#231f20"/><polygon points="292.2 257.78 292.2 254.09 295.89 254.08 295.89 257.78 292.2 257.78" fill="#231f20"/><path d="M292.17,297.5l.06-3.7,3.69,0-.06,3.71Zm0-19.85V274l3.69,0v3.71Z" fill="#231f20"/><polygon points="292.2 317.39 292.2 313.69 295.89 313.68 295.89 317.39 292.2 317.39" fill="#231f20"/><polygon points="272.79 257.72 272.91 254.02 276.61 254.14 276.48 257.85 272.79 257.72" fill="#231f20"/><path d="M272.88,297.55l-.06-3.69,3.69-.08.06,3.72Zm0-19.9V274l3.69,0v3.71Z" fill="#231f20"/><polygon points="272.91 317.45 272.79 313.76 276.48 313.62 276.61 317.32 272.91 317.45" fill="#231f20"/><polygon points="253.44 257.72 253.57 254.02 257.26 254.14 257.13 257.85 253.44 257.72" fill="#231f20"/><path d="M253.5,297.53v-3.7l3.7,0v3.72Zm0-19.88V274l3.7,0v3.71Z" fill="#231f20"/><polygon points="253.5 317.39 253.5 313.69 257.2 313.68 257.2 317.39 253.5 317.39" fill="#231f20"/><polygon points="391.91 257.78 391.91 254.09 395.61 254.08 395.61 257.78 391.91 257.78" fill="#2b2b2d"/><path d="M391.94,297.55l-.06-3.69,3.7-.08.06,3.71Zm0-19.87-.06-3.69,3.7-.08.06,3.71Z" fill="#2b2b2d"/><polygon points="391.85 317.32 391.98 313.63 395.67 313.74 395.54 317.45 391.85 317.32" fill="#2b2b2d"/><polygon points="372.57 257.78 372.57 254.09 376.26 254.08 376.26 257.78 372.57 257.78" fill="#2b2b2d"/><path d="M372.6,297.55l-.06-3.69,3.69-.08.06,3.72Zm0-19.87-.06-3.69,3.69-.08.06,3.71Z" fill="#2b2b2d"/><polygon points="372.5 317.32 372.63 313.63 376.32 313.75 376.2 317.45 372.5 317.32" fill="#2b2b2d"/><polygon points="353.16 257.72 353.28 254.02 356.98 254.14 356.85 257.85 353.16 257.72" fill="#2b2b2d"/><path d="M353.25,297.55l-.06-3.69,3.69-.08.06,3.72Zm0-19.9V274l3.69,0v3.71Z" fill="#2b2b2d"/><polygon points="353.22 317.39 353.22 313.69 356.91 313.68 356.91 317.39 353.22 317.39" fill="#2b2b2d"/><polygon points="333.81 257.72 333.94 254.02 337.63 254.14 337.5 257.84 333.81 257.72" fill="#2b2b2d"/><path d="M333.87,297.52v-3.69l3.7,0v3.71Zm0-19.87V274l3.7,0v3.71Z" fill="#2b2b2d"/><polygon points="333.87 317.38 333.87 313.69 337.57 313.68 337.57 317.38 333.87 317.38" fill="#2b2b2d"/><polygon points="391.85 338.78 391.98 335.09 395.67 335.2 395.54 338.91 391.85 338.78" fill="#1f1f21"/><path d="M391.94,378.62l-.06-3.7,3.7-.08.06,3.72Zm0-19.88-.06-3.69,3.7-.08.06,3.72Z" fill="#1f1f21"/><polygon points="391.91 398.45 391.91 394.75 395.61 394.74 395.61 398.45 391.91 398.45" fill="#1f1f21"/><polygon points="372.5 338.78 372.63 335.09 376.33 335.2 376.2 338.91 372.5 338.78" fill="#1f1f21"/><path d="M372.54,378.56l.06-3.7,3.69,0-.06,3.72Zm.06-19.82-.06-3.69,3.69-.08.06,3.72Z" fill="#1f1f21"/><polygon points="372.57 398.45 372.57 394.75 376.26 394.75 376.26 398.45 372.57 398.45" fill="#1f1f21"/><polygon points="353.22 338.84 353.22 335.15 356.92 335.14 356.92 338.84 353.22 338.84" fill="#1f1f21"/><path d="M353.25,378.62l-.06-3.7,3.7-.08.05,3.72Zm0-19.87-.06-3.7,3.7-.08.05,3.72Z" fill="#1f1f21"/><polygon points="353.22 398.45 353.22 394.75 356.92 394.74 356.91 398.45 353.22 398.45" fill="#1f1f21"/><polygon points="333.87 338.85 333.88 335.15 337.57 335.14 337.57 338.85 333.87 338.85" fill="#1f1f21"/><path d="M333.84,378.56l.06-3.7,3.7,0-.06,3.72Zm.06-19.81-.06-3.7,3.7-.08.06,3.72Z" fill="#1f1f21"/><polygon points="333.87 398.45 333.87 394.75 337.57 394.75 337.57 398.45 333.87 398.45" fill="#1f1f21"/><polygon points="472.22 338.78 472.35 335.09 476.04 335.2 475.91 338.91 472.22 338.78" fill="#1f1f21"/><path d="M472.31,378.61l-.06-3.69,3.7-.08.06,3.72Zm0-19.87-.06-3.69L476,355l.06,3.72Z" fill="#1f1f21"/><polygon points="472.28 398.44 472.28 394.75 475.98 394.74 475.98 398.44 472.28 398.44" fill="#1f1f21"/><polygon points="452.88 338.78 453 335.08 456.69 335.2 456.57 338.91 452.88 338.78" fill="#1f1f21"/><path d="M452.91,378.56l.06-3.7,3.69,0-.06,3.72Zm.06-19.82-.06-3.69,3.69-.08.06,3.72Z" fill="#1f1f21"/><polygon points="452.94 398.45 452.94 394.75 456.63 394.74 456.63 398.45 452.94 398.45" fill="#1f1f21"/><polygon points="433.59 338.84 433.59 335.15 437.29 335.14 437.28 338.84 433.59 338.84" fill="#1f1f21"/><path d="M433.59,378.59v-3.7l3.7,0v3.72Zm0-19.84-.06-3.7,3.7-.08.05,3.72Z" fill="#1f1f21"/><polygon points="433.59 398.45 433.59 394.75 437.29 394.75 437.29 398.45 433.59 398.45" fill="#1f1f21"/><polygon points="414.24 338.84 414.24 335.15 417.94 335.14 417.94 338.84 414.24 338.84" fill="#1f1f21"/><path d="M414.21,378.56l.06-3.7,3.7,0-.06,3.72Zm.06-19.81-.06-3.7,3.7-.08.06,3.72Z" fill="#1f1f21"/><polygon points="414.18 398.38 414.31 394.69 418 394.81 417.87 398.51 414.18 398.38" fill="#1f1f21"/><polygon points="391.92 500.97 391.92 497.28 395.61 497.27 395.61 500.97 391.92 500.97" fill="#231f20"/><path d="M392,540.77l-.12-3.69,3.69-.14.12,3.71Zm-.07-19.93v-3.69l3.7,0v3.71Z" fill="#231f20"/><polygon points="391.91 560.57 391.91 556.88 395.61 556.87 395.61 560.57 391.91 560.57" fill="#231f20"/><polygon points="372.57 500.97 372.57 497.27 376.26 497.26 376.26 500.97 372.57 500.97" fill="#231f20"/><path d="M372.57,540.71V537l3.69,0v3.71Zm0-19.87v-3.69l3.69,0v3.71Z" fill="#231f20"/><polygon points="372.57 560.57 372.57 556.88 376.26 556.87 376.26 560.57 372.57 560.57" fill="#231f20"/><polygon points="353.22 500.97 353.22 497.27 356.92 497.27 356.92 500.97 353.22 500.97" fill="#231f20"/><path d="M353.16,540.65l.12-3.69,3.7.1-.12,3.71Zm.06-19.81v-3.69l3.7,0v3.71Z" fill="#231f20"/><polygon points="353.22 560.57 353.22 556.88 356.92 556.87 356.92 560.57 353.22 560.57" fill="#231f20"/><polygon points="333.88 500.97 333.88 497.28 337.57 497.27 337.57 500.97 333.88 500.97" fill="#231f20"/><path d="M333.94,540.77l-.12-3.69,3.69-.14.12,3.71Zm-.07-19.93v-3.69l3.7,0v3.71Z" fill="#231f20"/><polygon points="333.88 560.57 333.88 556.88 337.57 556.87 337.57 560.57 333.88 560.57" fill="#231f20"/><polygon points="146.92 18.09 147.3 7.02 158.38 7.39 158 18.48 146.92 18.09" fill="#1f1f21"/><path d="M147.11,58V46.94l11.08,0V58Zm0-19.87V27.07l11.08,0V38.16Z" fill="#1f1f21"/><polygon points="147.1 77.89 147.1 66.8 158.19 66.8 158.19 77.89 147.1 77.89" fill="#1f1f21"/><polygon points="127.76 18.29 127.76 7.2 138.84 7.19 138.84 18.29 127.76 18.29" fill="#1f1f21"/><path d="M127.76,58V47l11.08,0V58Zm0-19.87V27.08l11.08,0V38.16Z" fill="#1f1f21"/><polygon points="127.76 77.89 127.76 66.81 138.84 66.8 138.84 77.89 127.76 77.89" fill="#1f1f21"/><polygon points="108.61 18.48 108.22 7.4 119.3 7 119.68 18.09 108.61 18.48" fill="#1f1f21"/><path d="M108.41,58V47l11.09,0V58Zm0-19.87V27.07l11.09,0V38.16Z" fill="#1f1f21"/><polygon points="108.22 77.7 108.61 66.62 119.69 66.99 119.3 78.08 108.22 77.7" fill="#1f1f21"/><polygon points="89.06 18.29 89.06 7.2 100.15 7.19 100.15 18.29 89.06 18.29" fill="#1f1f21"/><path d="M89.06,58V47l11.09,0V58Zm0-19.87V27.07l11.09,0V38.16Z" fill="#1f1f21"/><polygon points="89.06 77.89 89.06 66.81 100.15 66.8 100.15 77.89 89.06 77.89" fill="#1f1f21"/><polygon points="147.3 99.54 146.92 88.46 158 88.07 158.38 99.16 147.3 99.54" fill="#2b2b2d"/><path d="M147.11,139.09V128l11.08,0v11.1Zm0-19.87V108.14l11.08,0v11.1Z" fill="#2b2b2d"/><polygon points="147.11 158.95 147.11 147.87 158.19 147.86 158.19 158.95 147.11 158.95" fill="#2b2b2d"/><polygon points="127.76 99.35 127.76 88.27 138.84 88.26 138.84 99.35 127.76 99.35" fill="#2b2b2d"/><path d="M127.67,139l.18-11.09,11.08.16-.17,11.1Zm.09-19.79V108.14l11.08,0v11.1Z" fill="#2b2b2d"/><polygon points="127.76 158.96 127.76 147.87 138.84 147.86 138.84 158.96 127.76 158.96" fill="#2b2b2d"/><polygon points="108.22 99.16 108.61 88.08 119.68 88.45 119.3 99.54 108.22 99.16" fill="#2b2b2d"/><path d="M108.5,139.18l-.18-11.08,11.09-.2.17,11.11Zm-.09-20V108.14l11.09,0v11.1Z" fill="#2b2b2d"/><polygon points="108.61 159.14 108.22 148.06 119.3 147.67 119.69 158.76 108.61 159.14" fill="#2b2b2d"/><polygon points="89.06 99.35 89.06 88.27 100.15 88.26 100.15 99.35 89.06 99.35" fill="#2b2b2d"/><path d="M89.07,139.09V128l11.08,0V139.1Zm0-19.87V108.14l11.09,0v11.1Z" fill="#2b2b2d"/><polygon points="89.07 158.96 89.07 147.87 100.15 147.86 100.15 158.96 89.07 158.96" fill="#2b2b2d"/><polygon points="66.93 261.67 66.55 250.59 77.63 250.19 78.01 261.28 66.93 261.67" fill="#1f1f21"/><path d="M66.65,301.13l.17-11.08,11.09.15-.18,11.11Zm0-19.87.17-11.08,11.09.15-.18,11.11Z" fill="#1f1f21"/><polygon points="66.73 321.08 66.73 309.99 77.82 309.98 77.82 321.08 66.73 321.08" fill="#1f1f21"/><polygon points="47.39 261.48 47.39 250.39 58.48 250.38 58.48 261.48 47.39 261.48" fill="#1f1f21"/><path d="M47.48,301.31l-.18-11.08L58.39,290l.18,11.11Zm-.18-20.05.18-11.08,11.08.15-.17,11.11Z" fill="#1f1f21"/><polygon points="47.59 321.27 47.2 310.19 58.28 309.8 58.66 320.89 47.59 321.27" fill="#1f1f21"/><polygon points="28.04 261.48 28.04 250.39 39.13 250.38 39.13 261.48 28.04 261.48" fill="#1f1f21"/><path d="M28,301.13l.17-11.08,11.09.15L39,301.31Zm0-19.87.17-11.08,11.09.15L39,281.44Z" fill="#1f1f21"/><polygon points="28.24 321.27 27.86 310.19 38.94 309.8 39.32 320.89 28.24 321.27" fill="#1f1f21"/><polygon points="8.89 261.66 8.51 250.59 19.59 250.19 19.97 261.28 8.89 261.66" fill="#1f1f21"/><path d="M8.61,301.13l.17-11.08,11.09.15-.18,11.11Zm0-19.87.17-11.08,11.09.15-.18,11.11Z" fill="#1f1f21"/><polygon points="8.69 321.08 8.69 310 19.78 309.99 19.78 321.08 8.69 321.08" fill="#1f1f21"/><polygon points="468.58 18.29 468.58 7.2 479.67 7.19 479.67 18.29 468.58 18.29" fill="#1f1f21"/><path d="M468.59,58V46.94l11.08,0V58Zm0-19.87V27.07l11.08,0V38.16Z" fill="#1f1f21"/><polygon points="468.59 77.89 468.59 66.8 479.67 66.8 479.67 77.89 468.59 77.89" fill="#1f1f21"/><polygon points="449.44 18.48 449.05 7.4 460.13 7.01 460.51 18.09 449.44 18.48" fill="#1f1f21"/><path d="M449.24,58V47l11.09,0V58Zm0-19.87V27.07l11.09,0V38.16Z" fill="#1f1f21"/><polygon points="449.24 77.89 449.24 66.81 460.33 66.8 460.33 77.89 449.24 77.89" fill="#1f1f21"/><polygon points="430.09 18.48 429.7 7.4 440.78 7.01 441.17 18.09 430.09 18.48" fill="#1f1f21"/><path d="M429.89,58V47l11.09,0V58Zm0-19.87V27.08l11.09,0v11.1Z" fill="#1f1f21"/><polygon points="429.89 77.89 429.89 66.81 440.98 66.8 440.98 77.89 429.89 77.89" fill="#1f1f21"/><polygon points="410.55 18.29 410.55 7.2 421.63 7.19 421.63 18.29 410.55 18.29" fill="#1f1f21"/><path d="M410.55,58V47l11.08,0V58Zm0-19.87V27.08l11.08,0V38.16Z" fill="#1f1f21"/><polygon points="410.74 78.08 410.36 67 421.44 66.61 421.82 77.7 410.74 78.08" fill="#1f1f21"/><polygon points="388.03 180.22 388.41 169.14 399.49 169.51 399.11 180.6 388.03 180.22" fill="#2b2b2d"/><path d="M388.22,220.16V209.07l11.08,0v11.11Zm0-19.88V189.2l11.08,0v11.1Z" fill="#2b2b2d"/><polygon points="388.41 240.2 388.03 229.12 399.11 228.73 399.49 239.82 388.41 240.2" fill="#2b2b2d"/><polygon points="368.87 180.41 368.87 169.33 379.96 169.32 379.96 180.41 368.87 180.41" fill="#2b2b2d"/><path d="M368.87,220.16V209.07l11.09,0v11.11Zm0-19.87V189.2l11.09,0v11.11Z" fill="#2b2b2d"/><polygon points="368.87 240.02 368.87 228.93 379.96 228.92 379.96 240.02 368.87 240.02" fill="#2b2b2d"/><polygon points="349.72 180.6 349.34 169.52 360.42 169.13 360.8 180.22 349.72 180.6" fill="#2b2b2d"/><path d="M349.52,220.16V209.07l11.09,0v11.11Zm0-19.87V189.2l11.09,0v11.11Z" fill="#2b2b2d"/><polygon points="349.52 240.02 349.52 228.93 360.61 228.92 360.61 240.02 349.52 240.02" fill="#2b2b2d"/><polygon points="330.37 180.6 329.99 169.52 341.07 169.13 341.45 180.22 330.37 180.6" fill="#2b2b2d"/><path d="M330.18,220.16V209.07l11.08,0v11.11Zm0-19.87V189.2l11.08,0v11.11Z" fill="#2b2b2d"/><polygon points="329.99 239.82 330.37 228.75 341.45 229.12 341.07 240.21 329.99 239.82" fill="#2b2b2d"/><polygon points="227.29 180.22 227.67 169.14 238.75 169.51 238.37 180.6 227.29 180.22" fill="#1f1f21"/><path d="M227.48,220.16V209.07l11.08,0v11.11Zm0-19.88V189.2l11.08,0v11.1Z" fill="#1f1f21"/><polygon points="227.48 240.01 227.48 228.93 238.56 228.92 238.56 240.01 227.48 240.01" fill="#1f1f21"/><polygon points="208.13 180.41 208.13 169.33 219.22 169.32 219.22 180.41 208.13 180.41" fill="#1f1f21"/><path d="M208.22,220.25,208,209.16l11.09-.19.17,11.1Zm-.09-20V189.2l11.09,0v11.11Z" fill="#1f1f21"/><polygon points="208.13 240.02 208.13 228.93 219.22 228.92 219.22 240.02 208.13 240.02" fill="#1f1f21"/><polygon points="188.98 180.6 188.6 169.52 199.67 169.13 200.06 180.22 188.98 180.6" fill="#1f1f21"/><path d="M188.7,220.07l.17-11.08,11.09.15-.18,11.11Zm.08-19.78V189.2l11.09,0v11.11Z" fill="#1f1f21"/><polygon points="188.6 239.82 188.98 228.75 200.06 229.12 199.68 240.21 188.6 239.82" fill="#1f1f21"/><polygon points="169.44 180.41 169.44 169.33 180.52 169.32 180.52 180.41 169.44 180.41" fill="#1f1f21"/><path d="M169.44,220.16V209.07l11.08,0v11.11Zm0-19.87V189.2l11.08,0v11.11Z" fill="#1f1f21"/><polygon points="169.63 240.21 169.25 229.13 180.33 228.74 180.71 239.82 169.63 240.21" fill="#1f1f21"/><polygon points="307.66 342.35 308.04 331.27 319.12 331.64 318.74 342.73 307.66 342.35" fill="#1f1f21"/><path d="M307.85,382.28V371.2l11.08,0v11.1Zm.09-19.78-.18-11.09,11.09-.19.17,11.1Z" fill="#1f1f21"/><polygon points="307.85 402.14 307.85 391.06 318.93 391.05 318.93 402.14 307.85 402.14" fill="#1f1f21"/><polygon points="288.31 342.35 288.69 331.27 299.77 331.64 299.39 342.73 288.31 342.35" fill="#1f1f21"/><path d="M288.33,382.1l.35-11.08,11.09.34-.36,11.1Zm.17-19.69V351.33l11.09,0v11.1Z" fill="#1f1f21"/><polygon points="288.5 402.14 288.5 391.06 299.59 391.05 299.59 402.14 288.5 402.14" fill="#1f1f21"/><polygon points="269.35 342.73 268.97 331.65 280.05 331.26 280.43 342.35 269.35 342.73" fill="#1f1f21"/><path d="M269,382.1l.36-11.08,11.08.34-.36,11.1Zm.09-19.78.17-11.08,11.09.15-.18,11.11Z" fill="#1f1f21"/><polygon points="269.16 402.14 269.16 391.06 280.24 391.05 280.24 402.14 269.16 402.14" fill="#1f1f21"/><polygon points="250 342.73 249.62 331.65 260.7 331.26 261.08 342.35 250 342.73" fill="#1f1f21"/><path d="M249.72,382.2l.18-11.09,11.08.16-.18,11.1Zm0-19.88.18-11.08,11.08.15-.18,11.11Z" fill="#1f1f21"/><polygon points="249.81 402.15 249.81 391.06 260.89 391.05 260.89 402.15 249.81 402.15" fill="#1f1f21"/><polygon points="552.59 500.9 552.72 497.21 556.41 497.33 556.28 501.03 552.59 500.9" fill="#231f20"/><path d="M552.62,540.68l.07-3.7,3.69,0-.06,3.71Zm.06-19.81,0-3.7,3.69-.08.06,3.72Z" fill="#231f20"/><polygon points="552.65 560.57 552.66 556.88 556.35 556.87 556.35 560.57 552.65 560.57" fill="#231f20"/><polygon points="533.25 500.9 533.37 497.21 537.07 497.33 536.94 501.03 533.25 500.9" fill="#231f20"/><path d="M533.34,540.74l-.06-3.69L537,537l.06,3.71Zm0-19.87-.06-3.69,3.69-.08.06,3.71Z" fill="#231f20"/><polygon points="533.31 560.58 533.31 556.88 537 556.87 537 560.58 533.31 560.58" fill="#231f20"/><polygon points="513.96 500.97 513.96 497.27 517.66 497.26 517.66 500.97 513.96 500.97" fill="#231f20"/><path d="M514,540.74l-.06-3.69,3.7-.08.06,3.71Zm0-19.87-.06-3.69,3.7-.08.06,3.71Z" fill="#231f20"/><polygon points="513.96 560.58 513.96 556.88 517.66 556.87 517.66 560.58 513.96 560.58" fill="#231f20"/><polygon points="494.62 500.97 494.62 497.27 498.31 497.26 498.31 500.97 494.62 500.97" fill="#231f20"/><path d="M494.61,540.71V537l3.7,0v3.71Zm0-19.84-.05-3.69,3.69-.08.06,3.71Z" fill="#231f20"/><polygon points="494.61 560.57 494.61 556.88 498.31 556.87 498.31 560.57 494.61 560.57" fill="#231f20"/><polygon points="311.55 582.03 311.55 578.34 315.24 578.33 315.24 582.03 311.55 582.03" fill="#1f1f21"/><path d="M311.48,621.71l.12-3.69,3.7.1-.12,3.71Zm.06-19.81v-3.69l3.7,0v3.71Z" fill="#1f1f21"/><polygon points="311.54 641.63 311.54 637.94 315.24 637.93 315.24 641.63 311.54 641.63" fill="#1f1f21"/><polygon points="292.2 582.03 292.2 578.34 295.89 578.33 295.89 582.03 292.2 582.03" fill="#1f1f21"/><path d="M292.2,621.77v-3.69l3.69,0v3.71Zm0-19.87v-3.69l3.69,0v3.71Z" fill="#1f1f21"/><polygon points="292.2 641.63 292.2 637.94 295.89 637.93 295.89 641.63 292.2 641.63" fill="#1f1f21"/><polygon points="272.85 582.03 272.85 578.34 276.55 578.33 276.55 582.03 272.85 582.03" fill="#1f1f21"/><path d="M272.85,621.78v-3.7l3.7,0v3.72Zm0-19.88v-3.69l3.7,0v3.71Z" fill="#1f1f21"/><polygon points="272.85 641.63 272.85 637.94 276.55 637.93 276.55 641.63 272.85 641.63" fill="#1f1f21"/><polygon points="253.5 582.03 253.5 578.34 257.2 578.33 257.2 582.03 253.5 582.03" fill="#1f1f21"/><path d="M253.45,621.71l.12-3.69,3.69.1-.12,3.71Zm.05-19.81v-3.69l3.7,0v3.71Z" fill="#1f1f21"/><polygon points="253.51 641.64 253.51 637.94 257.2 637.93 257.2 641.64 253.51 641.64" fill="#1f1f21"/><polygon points="68.58 340.69 68.59 333.3 75.98 333.29 75.98 340.69 68.58 340.69" fill="#2b2b2d"/><path d="M68.65,380.49l-.12-7.39,7.38-.14.13,7.41Zm-.12-20,.11-7.39,7.39.1-.11,7.41Z" fill="#2b2b2d"/><polygon points="68.58 400.29 68.58 392.9 75.97 392.89 75.97 400.29 68.58 400.29" fill="#2b2b2d"/><polygon points="49.37 340.82 49.11 333.43 56.5 333.17 56.76 340.56 49.37 340.82" fill="#2b2b2d"/><path d="M49.18,380.38,49.3,373l7.39.09-.12,7.41Zm0-19.88.12-7.38,7.39.09-.12,7.41Z" fill="#2b2b2d"/><polygon points="49.24 400.3 49.24 392.91 56.63 392.9 56.63 400.3 49.24 400.3" fill="#2b2b2d"/><polygon points="30.02 340.82 29.77 333.43 37.15 333.17 37.41 340.56 30.02 340.82" fill="#2b2b2d"/><path d="M29.83,380.38,30,373l7.39.09-.12,7.41Zm0-19.88.12-7.38,7.39.09-.12,7.41Z" fill="#2b2b2d"/><polygon points="29.89 400.3 29.89 392.91 37.28 392.9 37.28 400.3 29.89 400.3" fill="#2b2b2d"/><polygon points="10.54 340.69 10.54 333.3 17.94 333.29 17.93 340.69 10.54 340.69" fill="#2b2b2d"/><path d="M10.61,380.5l-.13-7.39,7.39-.14.13,7.4Zm-.12-20,.11-7.38,7.39.09-.11,7.41Z" fill="#2b2b2d"/><polygon points="10.67 400.42 10.42 393.04 17.8 392.77 18.06 400.17 10.67 400.42" fill="#2b2b2d"/><polygon points="631.17 259.63 631.17 252.24 638.57 252.23 638.57 259.63 631.17 259.63" fill="#2b2b2d"/><path d="M631.11,299.31l.12-7.39,7.39.1-.12,7.41Zm.12-19.75-.11-7.39,7.39-.14.11,7.41Z" fill="#2b2b2d"/><polygon points="631.17 319.23 631.17 311.84 638.56 311.83 638.57 319.23 631.17 319.23" fill="#2b2b2d"/><polygon points="611.83 259.63 611.83 252.24 619.22 252.23 619.22 259.63 611.83 259.63" fill="#2b2b2d"/><path d="M611.89,299.43l-.12-7.39,7.39-.13.12,7.41Zm0-19.87-.12-7.39,7.39-.14.12,7.41Z" fill="#2b2b2d"/><polygon points="611.83 319.24 611.83 311.84 619.22 311.84 619.22 319.24 611.83 319.24" fill="#2b2b2d"/><polygon points="592.48 259.63 592.48 252.24 599.87 252.23 599.87 259.63 592.48 259.63" fill="#2b2b2d"/><path d="M592.36,299.25l.24-7.38,7.39.21-.24,7.41Zm.18-19.69-.12-7.39,7.39-.14.12,7.41Z" fill="#2b2b2d"/><polygon points="592.48 319.24 592.48 311.84 599.87 311.84 599.87 319.24 592.48 319.24" fill="#2b2b2d"/><polygon points="573.13 259.63 573.13 252.24 580.52 252.23 580.52 259.63 573.13 259.63" fill="#2b2b2d"/><path d="M573.07,299.31l.12-7.39,7.39.1-.12,7.41Zm.12-19.75-.11-7.39,7.38-.14.12,7.41Z" fill="#2b2b2d"/><polygon points="573.13 319.24 573.13 311.85 580.52 311.84 580.52 319.24 573.13 319.24" fill="#2b2b2d"/><polygon points="631.17 178.57 631.17 171.18 638.57 171.17 638.57 178.57 631.17 178.57" fill="#1f1f21"/><path d="M631.11,218.25l.13-7.39,7.39.1-.13,7.41Zm.12-19.75-.11-7.39,7.39-.14.11,7.41Z" fill="#1f1f21"/><polygon points="631.18 238.17 631.17 230.78 638.57 230.77 638.57 238.17 631.18 238.17" fill="#1f1f21"/><polygon points="611.83 178.57 611.83 171.18 619.22 171.17 619.22 178.57 611.83 178.57" fill="#1f1f21"/><path d="M611.77,218.25l.12-7.39,7.39.1-.12,7.41Zm.12-19.75-.12-7.39,7.39-.14.12,7.41Z" fill="#1f1f21"/><polygon points="611.83 238.17 611.83 230.78 619.22 230.77 619.22 238.17 611.83 238.17" fill="#1f1f21"/><polygon points="592.48 178.57 592.48 171.18 599.87 171.17 599.87 178.57 592.48 178.57" fill="#1f1f21"/><path d="M592.42,218.25l.12-7.39,7.39.1-.12,7.41Zm.12-19.75-.12-7.39,7.39-.14.12,7.41Z" fill="#1f1f21"/><polygon points="592.48 238.17 592.48 230.78 599.87 230.77 599.87 238.17 592.48 238.17" fill="#1f1f21"/><polygon points="573.13 178.57 573.13 171.18 580.52 171.17 580.52 178.57 573.13 178.57" fill="#1f1f21"/><path d="M573.07,218.25l.12-7.39,7.39.1-.12,7.41Zm.12-19.75-.11-7.39,7.39-.14.11,7.41Z" fill="#1f1f21"/><polygon points="573.13 238.17 573.13 230.78 580.52 230.77 580.52 238.17 573.13 238.17" fill="#1f1f21"/><polygon points="631.18 583.88 631.18 576.49 638.57 576.48 638.57 583.88 631.18 583.88" fill="#1f1f21"/><path d="M631.24,623.68l-.12-7.39,7.39-.14.12,7.41Zm0-19.87-.12-7.39,7.39-.14.12,7.41Z" fill="#1f1f21"/><polygon points="631.05 643.35 631.31 635.97 638.69 636.21 638.44 643.61 631.05 643.35" fill="#1f1f21"/><polygon points="611.83 583.88 611.83 576.49 619.22 576.48 619.22 583.88 611.83 583.88" fill="#1f1f21"/><path d="M611.89,623.68l-.12-7.39,7.39-.13.12,7.41Zm0-19.87-.12-7.39,7.39-.14.12,7.41Z" fill="#1f1f21"/><polygon points="611.71 643.36 611.96 635.97 619.35 636.22 619.09 643.61 611.71 643.36" fill="#1f1f21"/><polygon points="592.36 583.75 592.61 576.37 600 576.61 599.74 584.01 592.36 583.75" fill="#1f1f21"/><path d="M592.54,623.68l-.11-7.39,7.38-.13.12,7.41Zm0-19.87-.11-7.39,7.38-.14.12,7.41Z" fill="#1f1f21"/><polygon points="592.48 643.49 592.48 636.1 599.87 636.09 599.88 643.49 592.48 643.49" fill="#1f1f21"/><polygon points="573.01 583.75 573.26 576.37 580.65 576.61 580.4 584.01 573.01 583.75" fill="#1f1f21"/><path d="M573.08,623.56l.12-7.39,7.39.1-.12,7.41Zm.11-19.75-.11-7.39,7.39-.14.11,7.41Z" fill="#1f1f21"/><polygon points="573.14 643.49 573.14 636.1 580.53 636.09 580.53 643.49 573.14 643.49" fill="#1f1f21"/><polygon points="550.8 16.44 550.8 9.05 558.2 9.04 558.2 16.44 550.8 16.44" fill="#2b2b2d"/><path d="M550.8,56.18V48.79l7.39,0v7.41Zm0-19.87V28.92l7.39,0v7.41Z" fill="#2b2b2d"/><polygon points="550.8 76.04 550.8 68.65 558.19 68.64 558.19 76.04 550.8 76.04" fill="#2b2b2d"/><polygon points="531.59 16.57 531.33 9.18 538.72 8.92 538.97 16.31 531.59 16.57" fill="#2b2b2d"/><path d="M531.46,56.18V48.79l7.39,0v7.41Zm0-19.87V28.92l7.39,0v7.41Z" fill="#2b2b2d"/><polygon points="531.46 76.05 531.46 68.66 538.85 68.65 538.85 76.05 531.46 76.05" fill="#2b2b2d"/><polygon points="512.24 16.57 511.98 9.18 519.37 8.92 519.63 16.31 512.24 16.57" fill="#2b2b2d"/><path d="M512.11,56.18V48.79l7.39,0v7.41Zm0-19.87V28.92l7.39,0v7.41Z" fill="#2b2b2d"/><polygon points="512.11 76.05 512.11 68.66 519.5 68.65 519.5 76.05 512.11 76.05" fill="#2b2b2d"/><polygon points="492.76 16.44 492.76 9.05 500.15 9.04 500.15 16.44 492.76 16.44" fill="#2b2b2d"/><path d="M492.76,56.18V48.79l7.39,0v7.41Zm0-19.87V28.92l7.39,0v7.41Z" fill="#2b2b2d"/><polygon points="492.76 76.05 492.76 68.66 500.15 68.65 500.15 76.05 492.76 76.05" fill="#2b2b2d"/><polygon points="309.57 178.44 309.82 171.05 317.21 171.3 316.95 178.69 309.57 178.44" fill="#1f1f21"/><path d="M309.69,218.31v-7.39l7.39,0v7.41Zm0-19.87v-7.39l7.39,0v7.41Z" fill="#1f1f21"/><polygon points="309.69 238.17 309.69 230.78 317.08 230.77 317.08 238.17 309.69 238.17" fill="#1f1f21"/><polygon points="290.35 178.57 290.35 171.18 297.74 171.17 297.74 178.57 290.35 178.57" fill="#1f1f21"/><path d="M290.35,218.31v-7.39l7.39,0v7.41Zm0-19.87v-7.39l7.39,0v7.41Z" fill="#1f1f21"/><polygon points="290.35 238.17 290.35 230.78 297.74 230.77 297.74 238.17 290.35 238.17" fill="#1f1f21"/><polygon points="271.13 178.69 270.88 171.31 278.26 171.04 278.52 178.44 271.13 178.69" fill="#1f1f21"/><path d="M271,218.31v-7.39l7.39,0v7.41Zm0-19.87v-7.39l7.39,0v7.41Z" fill="#1f1f21"/><polygon points="271 238.17 271 230.78 278.39 230.77 278.39 238.17 271 238.17" fill="#1f1f21"/><polygon points="251.66 178.57 251.66 171.18 259.05 171.17 259.05 178.57 251.66 178.57" fill="#1f1f21"/><path d="M251.65,218.31v-7.39l7.39,0v7.41Zm0-19.87v-7.39l7.39,0v7.41Z" fill="#1f1f21"/><polygon points="251.53 238.04 251.78 230.66 259.17 230.9 258.91 238.3 251.53 238.04" fill="#1f1f21"/><polygon points="547.11 263.32 547.11 248.54 561.89 248.54 561.89 263.32 547.11 263.32" fill="#1f1f21"/><path d="M547,302.94l.24-14.77,14.78.22-.24,14.8Zm.24-19.63L547,268.53l14.77-.25.24,14.8Z" fill="#1f1f21"/><polygon points="546.86 322.67 547.37 307.89 562.14 308.39 561.63 323.18 546.86 322.67" fill="#1f1f21"/><polygon points="527.76 263.32 527.76 248.54 542.54 248.54 542.54 263.32 527.76 263.32" fill="#1f1f21"/><path d="M527.64,303l.25-14.78,14.77.22-.24,14.8Zm.24-19.64-.23-14.78,14.78-.25.23,14.8Z" fill="#1f1f21"/><polygon points="527.51 322.67 528.02 307.9 542.79 308.4 542.28 323.18 527.51 322.67" fill="#1f1f21"/><polygon points="508.17 263.07 508.68 248.29 523.45 248.79 522.94 263.57 508.17 263.07" fill="#1f1f21"/><path d="M508.53,303.18l-.23-14.77,14.78-.26.23,14.8Zm0-19.87-.23-14.78,14.78-.25.23,14.8Z" fill="#1f1f21"/><polygon points="508.17 322.67 508.68 307.9 523.45 308.4 522.94 323.18 508.17 322.67" fill="#1f1f21"/><polygon points="488.82 263.07 489.33 248.29 504.1 248.79 503.59 263.57 488.82 263.07" fill="#1f1f21"/><path d="M489,303l.24-14.78,14.78.22-.24,14.8Zm.24-19.64L489,268.53l14.78-.25.24,14.8Z" fill="#1f1f21"/><polygon points="489.07 322.93 489.07 308.15 503.85 308.14 503.85 322.93 489.07 322.93" fill="#1f1f21"/><polygon points="309.69 421.75 309.69 414.36 317.09 414.36 317.09 421.75 309.69 421.75" fill="#2b2b2d"/><path d="M309.69,461.5v-7.4h7.4v7.41Zm0-19.87v-7.39l7.39,0v7.42Z" fill="#2b2b2d"/><polygon points="309.69 481.36 309.69 473.96 317.09 473.95 317.09 481.36 309.69 481.36" fill="#2b2b2d"/><polygon points="290.35 421.75 290.35 414.36 297.74 414.36 297.74 421.75 290.35 421.75" fill="#2b2b2d"/><path d="M290.47,461.62l-.24-7.39,7.39-.26.24,7.41Zm-.12-20v-7.39l7.39,0v7.41Z" fill="#2b2b2d"/><polygon points="290.35 481.36 290.35 473.97 297.74 473.96 297.74 481.36 290.35 481.36" fill="#2b2b2d"/><polygon points="271 421.75 271 414.36 278.39 414.36 278.39 421.75 271 421.75" fill="#2b2b2d"/><path d="M270.88,461.38l.24-7.39,7.39.22-.24,7.41Zm.12-19.75v-7.39l7.39,0v7.41Z" fill="#2b2b2d"/><polygon points="271 481.36 271 473.97 278.39 473.96 278.39 481.36 271 481.36" fill="#2b2b2d"/><polygon points="251.66 421.75 251.66 414.36 259.05 414.36 259.05 421.75 251.66 421.75" fill="#2b2b2d"/><path d="M251.66,461.5v-7.39l7.39,0v7.41Zm0-19.87v-7.39l7.39,0v7.41Z" fill="#2b2b2d"/><polygon points="251.66 481.36 251.66 473.97 259.05 473.96 259.05 481.36 251.66 481.36" fill="#2b2b2d"/><polygon points="470.44 421.75 470.44 414.36 477.83 414.36 477.83 421.75 470.44 421.75" fill="#1f1f21"/><path d="M470.38,461.44l.12-7.39,7.39.1-.12,7.41Zm.12-19.76-.12-7.39,7.39-.13.11,7.41Z" fill="#1f1f21"/><polygon points="470.31 481.23 470.57 473.84 477.95 474.09 477.7 481.48 470.31 481.23" fill="#1f1f21"/><polygon points="451.09 421.75 451.09 414.36 458.48 414.36 458.48 421.75 451.09 421.75" fill="#1f1f21"/><path d="M451.15,461.56l-.12-7.39,7.39-.14.12,7.41Zm0-19.88-.12-7.39,7.39-.13.12,7.41Z" fill="#1f1f21"/><polygon points="450.96 481.23 451.22 473.84 458.61 474.09 458.35 481.48 450.96 481.23" fill="#1f1f21"/><polygon points="431.62 421.63 431.87 414.24 439.26 414.49 439 421.88 431.62 421.63" fill="#1f1f21"/><path d="M431.68,461.44l.12-7.39,7.39.1-.12,7.41Zm.12-19.75-.11-7.39,7.38-.14.12,7.41Z" fill="#1f1f21"/><polygon points="431.74 481.36 431.74 473.97 439.13 473.96 439.13 481.36 431.74 481.36" fill="#1f1f21"/><polygon points="412.27 421.63 412.52 414.24 419.91 414.49 419.66 421.88 412.27 421.63" fill="#1f1f21"/><path d="M412.33,461.44l.13-7.39,7.39.1-.13,7.41Zm.12-19.75-.11-7.39,7.39-.14.11,7.41Z" fill="#1f1f21"/><polygon points="412.39 481.36 412.39 473.97 419.79 473.96 419.79 481.36 412.39 481.36" fill="#1f1f21"/><polygon points="229.33 421.75 229.33 414.36 236.72 414.36 236.72 421.75 229.33 421.75" fill="#1f1f21"/><path d="M229.45,461.61l-.24-7.38,7.39-.26.23,7.41Zm-.12-20v-7.39l7.39,0v7.41Z" fill="#1f1f21"/><polygon points="229.33 481.36 229.33 473.97 236.72 473.96 236.72 481.36 229.33 481.36" fill="#1f1f21"/><polygon points="209.98 421.75 209.98 414.37 217.37 414.36 217.37 421.75 209.98 421.75" fill="#1f1f21"/><path d="M210,461.5v-7.39l7.39,0v7.41Zm0-19.87v-7.39l7.39,0v7.42Z" fill="#1f1f21"/><polygon points="209.98 481.36 209.98 473.97 217.37 473.96 217.37 481.36 209.98 481.36" fill="#1f1f21"/><polygon points="190.63 421.75 190.63 414.36 198.02 414.36 198.02 421.75 190.63 421.75" fill="#1f1f21"/><path d="M190.75,461.61l-.23-7.38,7.38-.26.24,7.41Zm-.18-20,.12-7.39,7.39.09-.12,7.41Z" fill="#1f1f21"/><polygon points="190.63 481.36 190.63 473.97 198.03 473.96 198.03 481.36 190.63 481.36" fill="#1f1f21"/><polygon points="171.29 421.75 171.29 414.36 178.68 414.35 178.68 421.75 171.29 421.75" fill="#1f1f21"/><path d="M171.41,461.62l-.24-7.39,7.38-.26.24,7.41Zm-.18-20.05.11-7.39,7.39.09-.11,7.41Z" fill="#1f1f21"/><polygon points="171.28 481.36 171.28 473.97 178.68 473.96 178.68 481.36 171.28 481.36" fill="#1f1f21"/><polygon points="390.07 583.88 390.07 576.49 397.46 576.48 397.46 583.88 390.07 583.88" fill="#2b2b2d"/><path d="M390.07,623.62v-7.39l7.39,0v7.41Zm0-19.87v-7.39l7.39,0v7.41Z" fill="#2b2b2d"/><polygon points="390.07 643.48 390.07 636.09 397.46 636.08 397.46 643.48 390.07 643.48" fill="#2b2b2d"/><polygon points="370.72 583.88 370.72 576.49 378.11 576.48 378.11 583.88 370.72 583.88" fill="#2b2b2d"/><path d="M370.72,623.62v-7.39l7.39,0v7.41Zm0-19.87v-7.39l7.39,0v7.41Z" fill="#2b2b2d"/><polygon points="370.72 643.48 370.72 636.09 378.11 636.08 378.11 643.48 370.72 643.48" fill="#2b2b2d"/><polygon points="351.37 583.88 351.37 576.49 358.76 576.48 358.76 583.88 351.37 583.88" fill="#2b2b2d"/><path d="M351.37,623.62v-7.39l7.39,0v7.41Zm0-19.87v-7.39l7.39,0v7.41Z" fill="#2b2b2d"/><polygon points="351.37 643.49 351.37 636.09 358.76 636.09 358.76 643.49 351.37 643.49" fill="#2b2b2d"/><polygon points="332.03 583.88 332.03 576.49 339.42 576.48 339.42 583.88 332.03 583.88" fill="#2b2b2d"/><path d="M332.15,623.74l-.24-7.39,7.39-.25.23,7.4Zm-.12-20v-7.39l7.39,0v7.41Z" fill="#2b2b2d"/><polygon points="332.02 643.48 332.02 636.09 339.42 636.08 339.42 643.48 332.02 643.48" fill="#2b2b2d"/><polygon points="145.26 506.51 145.26 491.73 160.04 491.72 160.04 506.51 145.26 506.51" fill="#1f1f21"/><path d="M145.26,546.25V531.47l14.78,0v14.8Zm0-19.87V511.6l14.78,0v14.8Z" fill="#1f1f21"/><polygon points="145.26 566.11 145.26 551.33 160.04 551.32 160.04 566.11 145.26 566.11" fill="#1f1f21"/><polygon points="125.92 506.51 125.92 491.73 140.69 491.72 140.69 506.51 125.92 506.51" fill="#1f1f21"/><path d="M125.91,546.26V531.48l14.79,0v14.81Zm0-19.88V511.6l14.79,0v14.8Z" fill="#1f1f21"/><polygon points="125.92 566.12 125.92 551.34 140.7 551.33 140.7 566.12 125.92 566.12" fill="#1f1f21"/><polygon points="106.83 506.76 106.32 491.99 121.09 491.47 121.6 506.25 106.83 506.76" fill="#1f1f21"/><path d="M106.33,546l.48-14.77,14.77.46-.47,14.79Zm.12-19.74.23-14.78,14.78.21-.23,14.8Z" fill="#1f1f21"/><polygon points="106.57 566.12 106.57 551.34 121.35 551.33 121.35 566.12 106.57 566.12" fill="#1f1f21"/><polygon points="87.48 506.76 86.97 491.99 101.74 491.47 102.25 506.25 87.48 506.76" fill="#1f1f21"/><path d="M87.1,546.14l.24-14.78,14.78.21-.24,14.8Zm0-19.87.24-14.78,14.78.21-.24,14.8Z" fill="#1f1f21"/><polygon points="87.22 566.12 87.22 551.34 102 551.33 102 566.12 87.22 566.12" fill="#1f1f21"/><polygon points="633.02 14.6 633.02 10.9 636.72 10.89 636.72 14.59 633.02 14.6" fill="#1f1f21"/><path d="M633.05,54.37l-.06-3.7,3.7-.08.06,3.72Zm0-19.87L633,30.8l3.7-.08.06,3.72Z" fill="#1f1f21"/><polygon points="633.02 74.2 633.02 70.5 636.72 70.49 636.72 74.2 633.02 74.2" fill="#1f1f21"/><polygon points="613.67 14.6 613.67 10.9 617.37 10.89 617.37 14.6 613.67 14.6" fill="#1f1f21"/><path d="M613.64,54.31l.06-3.7,3.7,0-.06,3.72Zm.06-19.81-.06-3.7,3.7-.08.06,3.72Z" fill="#1f1f21"/><polygon points="613.67 74.2 613.67 70.5 617.37 70.5 617.37 74.2 613.67 74.2" fill="#1f1f21"/><polygon points="594.39 14.66 594.26 10.96 597.96 10.83 598.09 14.53 594.39 14.66" fill="#1f1f21"/><path d="M594.3,54.31l.06-3.7,3.69,0L598,54.37Zm0-19.84v-3.7l3.69,0v3.72Z" fill="#1f1f21"/><polygon points="594.33 74.2 594.33 70.5 598.02 70.5 598.02 74.2 594.33 74.2" fill="#1f1f21"/><polygon points="575.04 14.66 574.92 10.96 578.61 10.83 578.74 14.53 575.04 14.66" fill="#1f1f21"/><path d="M575,54.34v-3.7l3.69,0v3.72Zm0-19.87v-3.7l3.7,0v3.72Z" fill="#1f1f21"/><polygon points="574.98 74.2 574.98 70.5 578.67 70.49 578.67 74.2 574.98 74.2" fill="#1f1f21"/><polygon points="391.91 419.91 391.91 416.21 395.61 416.2 395.61 419.91 391.91 419.91" fill="#1f1f21"/><path d="M391.91,459.65V456l3.7,0v3.72Zm0-19.84-.06-3.7,3.7-.08.06,3.72Z" fill="#1f1f21"/><polygon points="391.91 479.51 391.91 475.81 395.61 475.81 395.61 479.51 391.91 479.51" fill="#1f1f21"/><polygon points="372.57 419.91 372.57 416.21 376.26 416.2 376.26 419.91 372.57 419.91" fill="#1f1f21"/><path d="M372.57,459.65V456l3.69,0v3.71Zm0-19.87v-3.7l3.69,0v3.72Z" fill="#1f1f21"/><polygon points="372.57 479.51 372.57 475.82 376.26 475.81 376.26 479.51 372.57 479.51" fill="#1f1f21"/><polygon points="353.22 419.91 353.22 416.21 356.91 416.2 356.91 419.91 353.22 419.91" fill="#1f1f21"/><path d="M353.22,459.65V456h3.7v3.71Zm0-19.87v-3.7l3.69,0v3.72Z" fill="#1f1f21"/><polygon points="353.22 479.51 353.22 475.82 356.92 475.81 356.92 479.51 353.22 479.51" fill="#1f1f21"/><polygon points="333.87 419.91 333.87 416.21 337.57 416.2 337.57 419.91 333.87 419.91" fill="#1f1f21"/><path d="M333.87,459.65V456l3.7,0v3.72Zm0-19.87v-3.7l3.7,0v3.72Z" fill="#1f1f21"/><polygon points="333.87 479.51 333.87 475.81 337.57 475.81 337.57 479.51 333.87 479.51" fill="#1f1f21"/><polygon points="311.54 500.97 311.54 497.27 315.24 497.26 315.24 500.97 311.54 500.97" fill="#1f1f21"/><path d="M311.49,540.65l.12-3.69,3.69.1-.12,3.71Zm.05-19.81v-3.69l3.7,0v3.71Z" fill="#1f1f21"/><polygon points="311.55 560.57 311.55 556.88 315.24 556.87 315.24 560.57 311.55 560.57" fill="#1f1f21"/><polygon points="292.2 500.97 292.2 497.27 295.89 497.26 295.89 500.97 292.2 500.97" fill="#1f1f21"/><path d="M292.2,540.71V537l3.69,0v3.71Zm0-19.87v-3.69l3.69,0v3.71Z" fill="#1f1f21"/><polygon points="292.2 560.58 292.2 556.88 295.89 556.87 295.89 560.58 292.2 560.58" fill="#1f1f21"/><polygon points="272.85 500.97 272.85 497.27 276.55 497.26 276.55 500.97 272.85 500.97" fill="#1f1f21"/><path d="M272.91,540.77l-.12-3.69,3.7-.14.12,3.71Zm-.06-19.93v-3.69l3.7,0v3.71Z" fill="#1f1f21"/><polygon points="272.85 560.58 272.85 556.88 276.55 556.87 276.55 560.58 272.85 560.58" fill="#1f1f21"/><polygon points="253.5 500.97 253.5 497.27 257.2 497.26 257.2 500.97 253.5 500.97" fill="#1f1f21"/><path d="M253.5,540.71V537l3.7,0v3.71Zm0-19.87v-3.69l3.7,0v3.71Z" fill="#1f1f21"/><polygon points="253.5 560.57 253.5 556.88 257.2 556.87 257.2 560.57 253.5 560.57" fill="#1f1f21"/><polygon points="550.81 421.75 550.81 414.36 558.2 414.36 558.2 421.75 550.81 421.75" fill="#1f1f21"/><path d="M550.87,461.55l-.12-7.39,7.39-.13.12,7.41Zm0-19.87-.12-7.39,7.39-.13.12,7.41Z" fill="#1f1f21"/><polygon points="550.68 481.23 550.94 473.84 558.32 474.09 558.07 481.48 550.68 481.23" fill="#1f1f21"/><polygon points="531.46 421.76 531.46 414.37 538.85 414.36 538.85 421.76 531.46 421.76" fill="#1f1f21"/><path d="M531.4,461.44l.12-7.39,7.39.1-.12,7.41Zm.12-19.75-.12-7.39,7.39-.14.12,7.41Z" fill="#1f1f21"/><polygon points="531.33 481.23 531.59 473.84 538.98 474.09 538.72 481.48 531.33 481.23" fill="#1f1f21"/><polygon points="511.99 421.63 512.24 414.24 519.63 414.49 519.37 421.88 511.99 421.63" fill="#1f1f21"/><path d="M512.05,461.44l.12-7.39,7.39.1-.12,7.41Zm.12-19.76-.12-7.38,7.39-.14.12,7.41Z" fill="#1f1f21"/><polygon points="512.11 481.36 512.11 473.97 519.5 473.96 519.5 481.36 512.11 481.36" fill="#1f1f21"/><polygon points="492.64 421.63 492.89 414.24 500.28 414.49 500.03 421.88 492.64 421.63" fill="#1f1f21"/><path d="M492.71,461.44l.12-7.39,7.39.1-.12,7.41Zm.11-19.76-.11-7.38,7.39-.14.11,7.41Z" fill="#1f1f21"/><polygon points="492.77 481.36 492.77 473.97 500.16 473.96 500.16 481.36 492.77 481.36" fill="#1f1f21"/><polygon points="472.28 582.03 472.28 578.34 475.98 578.33 475.98 582.03 472.28 582.03" fill="#1f1f21"/><path d="M472.29,621.77v-3.69l3.69,0v3.71Zm0-19.87v-3.69l3.69,0v3.71Z" fill="#1f1f21"/><polygon points="472.29 641.63 472.29 637.94 475.98 637.93 475.98 641.63 472.29 641.63" fill="#1f1f21"/><polygon points="452.94 582.03 452.94 578.34 456.63 578.33 456.63 582.03 452.94 582.03" fill="#1f1f21"/><path d="M452.94,621.78v-3.7l3.69,0v3.72Zm0-19.88v-3.69l3.69,0v3.71Z" fill="#1f1f21"/><polygon points="452.94 641.64 452.94 637.94 456.63 637.93 456.63 641.64 452.94 641.64" fill="#1f1f21"/><polygon points="433.59 582.03 433.59 578.34 437.29 578.33 437.29 582.03 433.59 582.03" fill="#1f1f21"/><path d="M433.59,621.78v-3.7l3.7,0v3.72Zm0-19.87v-3.7l3.7,0v3.72Z" fill="#1f1f21"/><polygon points="433.59 641.64 433.59 637.94 437.29 637.93 437.29 641.64 433.59 641.64" fill="#1f1f21"/><polygon points="414.25 582.03 414.25 578.34 417.94 578.33 417.94 582.03 414.25 582.03" fill="#1f1f21"/><path d="M414.24,621.78v-3.7l3.7,0v3.72Zm0-19.87v-3.7l3.7,0v3.72Z" fill="#1f1f21"/><polygon points="414.25 641.64 414.25 637.94 417.94 637.93 417.94 641.64 414.25 641.64" fill="#1f1f21"/><polygon points="63.36 103.36 62.73 84.9 81.19 84.25 81.83 102.72 63.36 103.36" fill="#232326"/><path d="M63.19,142.94l-.3-18.47,18.47-.33.31,18.5Zm-.15-20V104.44l18.48,0v18.5Z" fill="#232326"/><polygon points="63.36 162.96 62.73 144.5 81.19 143.85 81.83 162.32 63.36 162.96" fill="#232326"/><polygon points="43.69 103.05 43.7 84.57 62.17 84.56 62.17 103.05 43.69 103.05" fill="#232326"/><path d="M43.85,142.94l-.31-18.47L62,124.14l.3,18.5Zm-.3-20.17.29-18.47,18.48.27L62,123.06Z" fill="#232326"/><polygon points="44.02 162.97 43.38 144.5 61.84 143.85 62.48 162.33 44.02 162.97" fill="#232326"/><polygon points="24.34 103.05 24.34 84.57 42.82 84.56 42.82 103.05 24.34 103.05" fill="#232326"/><path d="M24.2,142.64l.29-18.47,18.48.27-.3,18.5Zm0-19.87.29-18.47,18.48.27-.3,18.5Z" fill="#232326"/><polygon points="24.67 162.97 24.03 144.5 42.5 143.85 43.13 162.33 24.67 162.97" fill="#232326"/><polygon points="5.32 103.36 4.69 84.9 23.15 84.25 23.79 102.72 5.32 103.36" fill="#232326"/><path d="M5.15,142.94l-.3-18.47,18.47-.33.31,18.5Zm-.3-20.17.3-18.47,18.47.27-.29,18.5Z" fill="#232326"/><polygon points="5 162.65 5 144.18 23.48 144.17 23.48 162.65 5 162.65" fill="#232326"/><polygon points="144.34 345.31 144.34 328.68 160.97 328.67 160.97 345.31 144.34 345.31" fill="#1f1f21"/><path d="M144.61,385.31l-.54-16.62,16.62-.55.54,16.64Zm-.4-20.26.26-16.63,16.63.25-.27,16.64Z" fill="#1f1f21"/><polygon points="144.34 404.91 144.34 388.28 160.96 388.27 160.97 404.91 144.34 404.91" fill="#1f1f21"/><polygon points="125.28 345.59 124.71 328.97 141.33 328.39 141.9 345.02 125.28 345.59" fill="#1f1f21"/><path d="M124.86,384.92l.26-16.62,16.63.24-.26,16.65Zm0-19.87.26-16.63,16.63.25-.26,16.64Z" fill="#1f1f21"/><polygon points="124.99 404.92 124.99 388.29 141.62 388.28 141.62 404.92 124.99 404.92" fill="#1f1f21"/><polygon points="105.93 345.59 105.36 328.97 121.98 328.39 122.55 345.02 105.93 345.59" fill="#1f1f21"/><path d="M105.78,385.19l-.27-16.63,16.62-.29.28,16.65Zm-.27-20.14.26-16.63,16.63.25-.26,16.64Z" fill="#1f1f21"/><polygon points="105.64 404.92 105.64 388.29 122.27 388.28 122.27 404.92 105.64 404.92" fill="#1f1f21"/><polygon points="86.3 345.31 86.3 328.68 102.92 328.67 102.92 345.31 86.3 345.31" fill="#1f1f21"/><path d="M86.16,384.92l.27-16.63,16.63.25-.27,16.65Zm0-19.87.27-16.63,16.63.25-.27,16.64Z" fill="#1f1f21"/><polygon points="86.3 404.92 86.3 388.29 102.92 388.28 102.92 404.92 86.3 404.92" fill="#1f1f21"/><polygon points="225 264.53 224.42 247.91 241.04 247.33 241.62 263.96 225 264.53" fill="#2b2b2d"/><path d="M224.57,303.86l.27-16.63,16.63.24-.27,16.65Zm.14-19.74V267.49l16.62,0v16.65Z" fill="#2b2b2d"/><polygon points="224.71 323.85 224.71 307.22 241.33 307.21 241.34 323.85 224.71 323.85" fill="#2b2b2d"/><polygon points="205.36 264.25 205.36 247.62 221.99 247.61 221.99 264.25 205.36 264.25" fill="#2b2b2d"/><path d="M205.23,303.86l.26-16.63,16.63.25-.27,16.64Zm0-19.87.26-16.63,16.63.25-.27,16.64Z" fill="#2b2b2d"/><polygon points="205.65 324.13 205.08 307.51 221.7 306.93 222.27 323.56 205.65 324.13" fill="#2b2b2d"/><polygon points="186.01 264.25 186.01 247.62 202.64 247.61 202.64 264.25 186.01 264.25" fill="#2b2b2d"/><path d="M185.88,303.86l.26-16.63,16.63.25-.26,16.64Zm0-19.87.26-16.63,16.63.25-.26,16.64Z" fill="#2b2b2d"/><polygon points="186.3 324.13 185.73 307.52 202.35 306.93 202.92 323.56 186.3 324.13" fill="#2b2b2d"/><polygon points="166.66 264.25 166.66 247.62 183.29 247.61 183.29 264.25 166.66 264.25" fill="#2b2b2d"/><path d="M166.53,303.86l.27-16.63,16.62.25-.26,16.64Zm0-19.87.27-16.63,16.62.24-.26,16.65Z" fill="#2b2b2d"/><polygon points="166.66 323.85 166.66 307.22 183.29 307.21 183.29 323.85 166.66 323.85" fill="#2b2b2d"/><polygon points="225.63 587.58 225.63 572.79 240.41 572.79 240.41 587.58 225.63 587.58" fill="#2b2b2d"/><path d="M225.4,627.07l.47-14.77,14.78.46-.48,14.79Zm.23-19.62V592.67l14.78,0v14.8Z" fill="#2b2b2d"/><polygon points="225.63 647.18 225.63 632.4 240.41 632.39 240.41 647.18 225.63 647.18" fill="#2b2b2d"/><polygon points="206.28 587.58 206.28 572.8 221.06 572.79 221.06 587.58 206.28 587.58" fill="#2b2b2d"/><path d="M206.28,627.32V612.54l14.79,0v14.8Zm0-19.87V592.67l14.79,0v14.8Z" fill="#2b2b2d"/><polygon points="206.28 647.18 206.28 632.4 221.06 632.39 221.06 647.18 206.28 647.18" fill="#2b2b2d"/><polygon points="186.94 587.58 186.94 572.8 201.72 572.79 201.72 587.58 186.94 587.58" fill="#2b2b2d"/><path d="M186.94,627.32V612.54l14.78,0v14.8Zm0-19.87V592.67l14.78,0v14.8Z" fill="#2b2b2d"/><polygon points="186.94 647.18 186.94 632.4 201.72 632.39 201.72 647.18 186.94 647.18" fill="#2b2b2d"/><polygon points="167.59 587.58 167.59 572.79 182.37 572.79 182.37 587.58 167.59 587.58" fill="#2b2b2d"/><path d="M167.59,627.32V612.54l14.78,0v14.8Zm0-19.87V592.67l14.78,0v14.8Z" fill="#2b2b2d"/><polygon points="167.59 647.18 167.59 632.4 182.37 632.39 182.37 647.18 167.59 647.18" fill="#2b2b2d"/><polygon points="231.18 500.97 231.18 497.27 234.87 497.26 234.87 500.97 231.18 500.97" fill="#1f1f21"/><path d="M231.24,540.77l-.12-3.69,3.69-.14.12,3.71Zm-.07-19.93v-3.69l3.7,0v3.72Z" fill="#1f1f21"/><polygon points="231.17 560.57 231.17 556.88 234.87 556.87 234.87 560.57 231.17 560.57" fill="#1f1f21"/><polygon points="211.83 500.97 211.83 497.27 215.52 497.26 215.52 500.97 211.83 500.97" fill="#1f1f21"/><path d="M211.83,540.71V537l3.69,0v3.71Zm0-19.87v-3.69l3.69,0v3.71Z" fill="#1f1f21"/><polygon points="211.83 560.57 211.83 556.88 215.52 556.87 215.52 560.57 211.83 560.57" fill="#1f1f21"/><polygon points="192.48 500.97 192.48 497.27 196.18 497.26 196.18 500.97 192.48 500.97" fill="#1f1f21"/><path d="M192.54,540.77l-.12-3.69,3.7-.14.12,3.71Zm-.06-19.93v-3.69l3.7,0v3.72Z" fill="#1f1f21"/><polygon points="192.48 560.57 192.48 556.88 196.18 556.87 196.18 560.57 192.48 560.57" fill="#1f1f21"/><polygon points="173.13 500.97 173.13 497.27 176.83 497.26 176.83 500.97 173.13 500.97" fill="#1f1f21"/><path d="M173.13,540.71V537l3.7,0v3.71Zm0-19.87v-3.69l3.7,0v3.71Z" fill="#1f1f21"/><polygon points="173.13 560.58 173.13 556.88 176.83 556.87 176.83 560.58 173.13 560.58" fill="#1f1f21"/></g></svg>