<svg xmlns="http://www.w3.org/2000/svg" xmlns:xlink="http://www.w3.org/1999/xlink" viewBox="0 0 648 648"><g opacity=".2" fill="#3a3b41"><path d="M116.22 640.75a0 0 0 1 0-.08 0s.08.02.08 0zm0-13.53a0 0 0 1 0-.08 0 0 0 0 0 0 .08 0 0 0 0 0 0 0 0zm0-13.52a0 0 0 1 0 .08 0z"/><use xlink:href="#B"/><circle cx="116.18" cy="586.64" r=".04"/><use xlink:href="#C"/><use xlink:href="#B" y="-40.57"/><path d="M116.22,546.06a0,0,0,0,0-.08,0,0,0,0,1,0,.08,0Z"/><use xlink:href="#B" y="-67.63"/><path d="M116.22 519a0 0 0 1 0 .08 0zm0-13.5a0 0 0 1 0-.08 0s.08.02.08 0z"/><use xlink:href="#B" y="-108.17"/><use xlink:href="#D"/><use xlink:href="#D" y="-13.53"/><use xlink:href="#E"/><use xlink:href="#D" y="-40.58"/><use xlink:href="#E" y="-27.06"/><use xlink:href="#D" y="-67.63"/><use xlink:href="#E" y="-54.1"/><path d="M129.85 546.06a.15.15 0 1 0-.3 0 .16.16 0 0 0 .15.16.15.15 0 0 0 .15-.16z"/><use xlink:href="#D" y="-108.21"/><use xlink:href="#E" y="-94.7"/><use xlink:href="#D" y="-135.25"/><use xlink:href="#E" y="-121.7"/><use xlink:href="#F"/><use xlink:href="#G"/><use xlink:href="#H"/><use xlink:href="#I"/><use xlink:href="#H" y="-27.06"/><use xlink:href="#F" y="-67.63"/><use xlink:href="#G" y="-67.62"/><use xlink:href="#H" y="-67.64"/><use xlink:href="#F" y="-108.21"/><use xlink:href="#H" y="-94.7"/><use xlink:href="#F" y="-135.25"/><use xlink:href="#G" y="-135.22"/><use xlink:href="#J"/><use xlink:href="#K"/><use xlink:href="#K" y="-13.52"/><use xlink:href="#K" y="-27.05"/><use xlink:href="#K" y="-40.58"/><use xlink:href="#K" y="-54.1"/><use xlink:href="#J" y="-81.15"/><use xlink:href="#K" y="-81.16"/><use xlink:href="#K" y="-94.68"/><use xlink:href="#K" y="-108.22"/><use xlink:href="#K" y="-121.72"/><use xlink:href="#J" y="-148.75"/><use xlink:href="#L"/><use xlink:href="#L" y="-13.53"/><path d="M170.73 613.7a.45.45 0 1 0-.45.46.45.45 0 0 0 .45-.46z"/><use xlink:href="#L" y="-40.58"/><path d="M170.73,586.64a.45.45,0,0,0-.9,0,.45.45,0,1,0,.9,0Z"/><use xlink:href="#L" y="-67.63"/><use xlink:href="#L" y="-81.15"/><path d="M170.73 546.06a.45.45 0 1 0-.45.46.45.45 0 0 0 .45-.46z"/><use xlink:href="#L" y="-108.21"/><path d="M170.73,519a.45.45,0,1,0-.9,0,.45.45,0,1,0,.9,0Z"/><use xlink:href="#L" y="-135.25"/><use xlink:href="#L" y="-148.75"/><use xlink:href="#M"/><use xlink:href="#N"/><path d="M184.37 613.7a.57.57 0 0 0-.56-.56.57.57 0 1 0 0 1.13.56.56 0 0 0 .56-.57z"/><use xlink:href="#M" y="-40.58"/><path d="M184.37 586.64a.56.56 0 0 0-.56-.56.57.57 0 1 0 0 1.13.56.56 0 0 0 .56-.57z"/><use xlink:href="#M" y="-67.63"/><use xlink:href="#N" y="-67.62"/><path d="M184.37 546.06a.57.57 0 0 0-.56-.56.57.57 0 1 0 0 1.13.56.56 0 0 0 .56-.57z"/><use xlink:href="#M" y="-108.21"/><path d="M184.37 519a.56.56 0 0 0-.56-.56.57.57 0 1 0 0 1.13.56.56 0 0 0 .56-.57z"/><use xlink:href="#M" y="-135.25"/><use xlink:href="#N" y="-135.22"/><use xlink:href="#O"/><use xlink:href="#P"/><use xlink:href="#P" y="-13.52"/><path d="M198 600.17a.68.68 0 1 0-.68.68.68.68 0 0 0 .68-.68z"/><use xlink:href="#P" y="-40.58"/><path d="M198,573.12a.68.68,0,1,0-1.35,0,.68.68,0,0,0,1.35,0Z"/><use xlink:href="#P" y="-67.62"/><use xlink:href="#P" y="-81.16"/><use xlink:href="#P" y="-94.68"/><use xlink:href="#P" y="-108.22"/><path d="M198 505.5a.68.68 0 1 0-1.35 0 .68.68 0 0 0 1.35 0z"/><use xlink:href="#P" y="-135.22"/><use xlink:href="#Q"/><path d="M211.65,627.22a.79.79,0,0,0-1.58,0,.79.79,0,0,0,1.58,0Z"/><use xlink:href="#Q" y="-27.05"/><path d="M211.65,600.17a.79.79,0,0,0-1.58,0,.79.79,0,1,0,1.58,0Z"/><use xlink:href="#Q" y="-54.11"/><use xlink:href="#Q" y="-67.63"/><path d="M211.65 559.6a.79.79 0 0 0-1.58 0 .79.79 0 0 0 1.58 0zm0-13.54a.79.79 0 1 0-.79.8.8.8 0 0 0 .79-.8zm0-13.52a.79.79 0 0 0-1.58 0 .79.79 0 1 0 1.58 0z"/><use xlink:href="#Q" y="-121.75"/><use xlink:href="#Q" y="-135.25"/><use xlink:href="#Q" y="-148.75"/><use xlink:href="#R"/><use xlink:href="#R" y="-13.53"/><path d="M225.3 613.7a.91.91 0 0 0-1.81 0 .91.91 0 1 0 1.81 0z"/><use xlink:href="#R" y="-40.58"/><path d="M225.3 586.64a.91.91 0 1 0-.9.9.91.91 0 0 0 .9-.9z"/><use xlink:href="#R" y="-67.63"/><use xlink:href="#R" y="-81.15"/><path d="M225.3 546.06a.91.91 0 0 0-1.81 0 .91.91 0 1 0 1.81 0z"/><use xlink:href="#R" y="-108.21"/><path d="M225.3 519a.91.91 0 0 0-1.81 0 .91.91 0 1 0 1.81 0z"/><use xlink:href="#R" y="-135.25"/><path d="M225.3 492a.91.91 0 1 0-.9.9.91.91 0 0 0 .9-.9z"/><use xlink:href="#S"/><use xlink:href="#S" y="-13.53"/><use xlink:href="#S" y="-27.05"/><use xlink:href="#S" y="-40.58"/><use xlink:href="#S" y="-54.11"/><use xlink:href="#S" y="-67.63"/><use xlink:href="#S" y="-81.15"/><use xlink:href="#S" y="-94.69"/><use xlink:href="#S" y="-108.21"/><use xlink:href="#S" y="-121.75"/><use xlink:href="#S" y="-135.25"/><use xlink:href="#S" y="-148.75"/><use xlink:href="#T"/><use xlink:href="#U"/><use xlink:href="#V"/><path d="M252.56,600.17a1.13,1.13,0,0,0-2.25,0,1.13,1.13,0,1,0,2.25,0Z"/><use xlink:href="#V" y="-27.06"/><use xlink:href="#T" y="-67.63"/><path d="M252.56 559.6a1.13 1.13 0 0 0-2.25 0 1.13 1.13 0 1 0 2.25 0z"/><use xlink:href="#V" y="-67.64"/><path d="M252.56,532.54a1.13,1.13,0,0,0-2.25,0,1.13,1.13,0,1,0,2.25,0Z"/><use xlink:href="#V" y="-94.7"/><use xlink:href="#T" y="-135.25"/><use xlink:href="#V" y="-121.7"/><path d="M266.2 640.75A1.24 1.24 0 1 0 265 642a1.24 1.24 0 0 0 1.2-1.25z"/><use xlink:href="#W"/><use xlink:href="#X"/><use xlink:href="#W" y="-27.05"/><use xlink:href="#X" y="-27.06"/><use xlink:href="#X" y="-40.58"/><use xlink:href="#W" y="-67.62"/><path d="M266.2 546.06a1.24 1.24 0 1 0-1.2 1.24 1.23 1.23 0 0 0 1.2-1.24z"/><use xlink:href="#W" y="-94.68"/><path d="M266.2,519a1.24,1.24,0,1,0-1.24,1.24A1.23,1.23,0,0,0,266.2,519Z"/><use xlink:href="#W" y="-121.72"/><path d="M266.2 492a1.24 1.24 0 1 0-1.2 1.2 1.24 1.24 0 0 0 1.2-1.2z"/><use xlink:href="#Y"/><use xlink:href="#Z"/><path d="M279.84 613.7a1.35 1.35 0 1 0-1.35 1.36 1.34 1.34 0 0 0 1.35-1.36z"/><use xlink:href="#Y" y="-40.58"/><use xlink:href="#Z" y="-40.58"/><use xlink:href="#Y" y="-67.63"/><use xlink:href="#Z" y="-67.62"/><path d="M279.84 546.06a1.35 1.35 0 1 0-1.35 1.36 1.34 1.34 0 0 0 1.35-1.36z"/><use xlink:href="#Y" y="-108.21"/><use xlink:href="#Z" y="-108.22"/><use xlink:href="#Y" y="-135.25"/><use xlink:href="#Z" y="-135.22"/><use xlink:href="#a"/><use xlink:href="#b"/><use xlink:href="#c"/><use xlink:href="#b" y="-27.05"/><use xlink:href="#d"/><use xlink:href="#a" y="-67.63"/><use xlink:href="#b" y="-67.62"/><use xlink:href="#c" y="-67.64"/><path d="M293.48 532.54A1.47 1.47 0 1 0 292 534a1.46 1.46 0 0 0 1.48-1.46z"/><use xlink:href="#c" y="-94.7"/><path d="M293.48 505.5A1.47 1.47 0 1 0 292 507a1.47 1.47 0 0 0 1.48-1.51z"/><use xlink:href="#b" y="-135.22"/><use xlink:href="#e"/><use xlink:href="#f"/><use xlink:href="#f" y="-13.52"/><use xlink:href="#f" y="-27.05"/><use xlink:href="#g"/><use xlink:href="#e" y="-67.63"/><use xlink:href="#f" y="-67.62"/><use xlink:href="#f" y="-81.16"/><use xlink:href="#f" y="-94.68"/><use xlink:href="#f" y="-108.22"/><use xlink:href="#e" y="-135.25"/><use xlink:href="#f" y="-135.22"/><use xlink:href="#h"/><use xlink:href="#h" y="-13.53"/><path d="M320.72 613.7a1.66 1.66 0 1 0-1.65 1.66 1.66 1.66 0 0 0 1.65-1.66z"/><use xlink:href="#h" y="-40.58"/><use xlink:href="#h" y="-54.11"/><use xlink:href="#h" y="-67.63"/><use xlink:href="#h" y="-81.15"/><path d="M320.72 546.06a1.66 1.66 0 1 0-1.65 1.65 1.66 1.66 0 0 0 1.65-1.65z"/><use xlink:href="#h" y="-108.21"/><use xlink:href="#h" y="-121.75"/><use xlink:href="#h" y="-135.25"/><use xlink:href="#h" y="-148.75"/><use xlink:href="#i"/><use xlink:href="#i" y="-13.53"/><use xlink:href="#j"/><use xlink:href="#i" y="-40.58"/><use xlink:href="#j" y="-27.06"/><path d="M334.36 573.12a1.77 1.77 0 1 0-1.77 1.76 1.78 1.78 0 0 0 1.77-1.76z"/><use xlink:href="#i" y="-81.15"/><use xlink:href="#j" y="-67.64"/><use xlink:href="#i" y="-108.21"/><use xlink:href="#j" y="-94.7"/><use xlink:href="#i" y="-135.25"/><use xlink:href="#j" y="-121.7"/><use xlink:href="#k"/><use xlink:href="#l"/><use xlink:href="#l" y="-13.52"/><use xlink:href="#m"/><use xlink:href="#l" y="-40.58"/><use xlink:href="#k" y="-67.63"/><use xlink:href="#l" y="-67.62"/><use xlink:href="#l" y="-81.16"/><use xlink:href="#m" y="-67.63"/><path d="M348,519a1.88,1.88,0,1,0-1.87,1.88A1.87,1.87,0,0,0,348,519Z"/><use xlink:href="#k" y="-135.25"/><path d="M348,492a1.88,1.88,0,1,0-1.87,1.88A1.87,1.87,0,0,0,348,492Z"/><use xlink:href="#n"/><use xlink:href="#n" y="-13.53"/><use xlink:href="#n" y="-27.05"/><use xlink:href="#n" y="-40.58"/><use xlink:href="#n" y="-54.11"/><use xlink:href="#n" y="-67.63"/><use xlink:href="#n" y="-81.15"/><use xlink:href="#n" y="-94.69"/><use xlink:href="#n" y="-108.21"/><use xlink:href="#n" y="-121.75"/><use xlink:href="#n" y="-135.25"/><use xlink:href="#n" y="-148.75"/><use xlink:href="#o"/><use xlink:href="#p"/><circle cx="373.17" cy="613.69" r="2.14"/><use xlink:href="#p" y="-27.05"/><circle cx="373.17" cy="586.64" r="2.14"/><circle cx="373.17" cy="573.12" r="2.14"/><use xlink:href="#p" y="-67.62"/><path d="M375.3 546.06a2.14 2.14 0 1 0-2.14 2.15 2.13 2.13 0 0 0 2.14-2.15z"/><circle cx="373.17" cy="532.54" r="2.14"/><path d="M375.3 519a2.14 2.14 0 1 0-2.14 2.14 2.13 2.13 0 0 0 2.14-2.14z"/><use xlink:href="#p" y="-121.72"/><use xlink:href="#p" y="-135.22"/><path d="M389 640.75a2.26 2.26 0 1 0-2.26 2.25 2.25 2.25 0 0 0 2.26-2.25z"/><use xlink:href="#q"/><path d="M389 613.7a2.26 2.26 0 1 0-2.26 2.26 2.26 2.26 0 0 0 2.26-2.26z"/><use xlink:href="#q" y="-27.05"/><path d="M389 586.64a2.26 2.26 0 1 0-2.26 2.26 2.26 2.26 0 0 0 2.26-2.26z"/><use xlink:href="#q" y="-54.1"/><use xlink:href="#q" y="-67.62"/><path d="M389 546.06a2.26 2.26 0 1 0-2.26 2.26 2.25 2.25 0 0 0 2.26-2.26z"/><use xlink:href="#q" y="-94.68"/><path d="M389,519a2.26,2.26,0,1,0-2.26,2.26A2.26,2.26,0,0,0,389,519Z"/><use xlink:href="#q" y="-121.72"/><path d="M389,492a2.26,2.26,0,1,0-2.26,2.26A2.26,2.26,0,0,0,389,492Z"/><use xlink:href="#r"/><path d="M402.55 627.22a2.33 2.33 0 1 0-2.33 2.33 2.32 2.32 0 0 0 2.33-2.33z"/><use xlink:href="#s"/><use xlink:href="#t"/><use xlink:href="#s" y="-27.06"/><use xlink:href="#r" y="-67.63"/><use xlink:href="#s" y="-54.1"/><use xlink:href="#s" y="-67.64"/><use xlink:href="#t" y="-67.63"/><use xlink:href="#s" y="-94.7"/><use xlink:href="#s" y="-108.2"/><use xlink:href="#s" y="-121.7"/><use xlink:href="#u"/><use xlink:href="#v"/><use xlink:href="#u" y="-27.05"/><use xlink:href="#u" y="-40.58"/><use xlink:href="#u" y="-54.11"/><use xlink:href="#u" y="-67.63"/><use xlink:href="#u" y="-81.15"/><path d="M416.18 546.06a2.44 2.44 0 1 0-2.43 2.45 2.43 2.43 0 0 0 2.43-2.45z"/><use xlink:href="#u" y="-108.21"/><use xlink:href="#u" y="-121.75"/><use xlink:href="#u" y="-135.25"/><use xlink:href="#u" y="-148.75"/><use xlink:href="#w"/><use xlink:href="#w" y="-13.53"/><path d="M429.82 613.7a2.55 2.55 0 1 0-2.55 2.56 2.55 2.55 0 0 0 2.55-2.56z"/><use xlink:href="#w" y="-40.58"/><use xlink:href="#w" y="-54.11"/><use xlink:href="#w" y="-67.63"/><use xlink:href="#w" y="-81.15"/><path d="M429.82 546.06a2.55 2.55 0 1 0-2.55 2.56 2.55 2.55 0 0 0 2.55-2.56z"/><use xlink:href="#w" y="-108.21"/><path d="M429.82 519a2.55 2.55 0 1 0-2.55 2.55 2.54 2.54 0 0 0 2.55-2.55z"/><use xlink:href="#w" y="-135.25"/><use xlink:href="#w" y="-148.75"/><use xlink:href="#x"/><use xlink:href="#x" y="-13.53"/><use xlink:href="#y"/><use xlink:href="#x" y="-40.58"/><use xlink:href="#y" y="-27.06"/><use xlink:href="#x" y="-67.63"/><use xlink:href="#x" y="-81.15"/><path d="M443.46 546.06a2.67 2.67 0 1 0-2.66 2.67 2.67 2.67 0 0 0 2.66-2.67z"/><use xlink:href="#x" y="-108.21"/><use xlink:href="#y" y="-94.7"/><use xlink:href="#x" y="-135.25"/><use xlink:href="#x" y="-148.75"/><use xlink:href="#z"/><use xlink:href="#z" y="-13.53"/><use xlink:href="#AA"/><use xlink:href="#AB"/><use xlink:href="#AA" y="-27.06"/><use xlink:href="#AB" y="-27.05"/><use xlink:href="#z" y="-81.15"/><use xlink:href="#AA" y="-67.64"/><path d="M457.1 532.54a2.78 2.78 0 1 0-2.77 2.78 2.78 2.78 0 0 0 2.77-2.78zm0-13.54a2.78 2.78 0 1 0-2.77 2.78 2.77 2.77 0 0 0 2.77-2.78z"/><use xlink:href="#AB" y="-94.67"/><path d="M457.1,492a2.78,2.78,0,1,0-2.77,2.78A2.77,2.77,0,0,0,457.1,492Z"/><use xlink:href="#AC"/><use xlink:href="#AD"/><use xlink:href="#AE"/><use xlink:href="#AD" y="-27.05"/><use xlink:href="#AD" y="-40.58"/><use xlink:href="#AD" y="-54.1"/><use xlink:href="#AD" y="-67.62"/><use xlink:href="#AE" y="-67.64"/><use xlink:href="#AD" y="-94.68"/><use xlink:href="#AE" y="-94.7"/><use xlink:href="#AD" y="-121.72"/><use xlink:href="#AD" y="-135.22"/><use xlink:href="#AF"/><use xlink:href="#AF" y="-13.53"/><use xlink:href="#AF" y="-27.05"/><use xlink:href="#AF" y="-40.58"/><use xlink:href="#AF" y="-54.11"/><use xlink:href="#AF" y="-67.63"/><use xlink:href="#AF" y="-81.15"/><use xlink:href="#AF" y="-94.69"/><use xlink:href="#AF" y="-108.21"/><use xlink:href="#AF" y="-121.75"/><use xlink:href="#AF" y="-135.25"/><use xlink:href="#AF" y="-148.75"/><use xlink:href="#AG"/><use xlink:href="#AH"/><use xlink:href="#AI"/><use xlink:href="#AH" y="-27.05"/><use xlink:href="#AI" y="-27.06"/><use xlink:href="#AG" y="-67.63"/><use xlink:href="#AH" y="-67.62"/><use xlink:href="#AI" y="-67.64"/><use xlink:href="#AH" y="-94.68"/><path d="M498,519a3.11,3.11,0,1,0-3.11,3.12A3.11,3.11,0,0,0,498,519Z"/><use xlink:href="#AG" y="-135.25"/><path d="M498,492a3.11,3.11,0,1,0-3.11,3.11A3.11,3.11,0,0,0,498,492Z"/><use xlink:href="#AJ"/><use xlink:href="#AK"/><use xlink:href="#AK" y="-13.52"/><use xlink:href="#AJ" y="-40.58"/><use xlink:href="#AK" y="-40.58"/><use xlink:href="#AJ" y="-67.63"/><use xlink:href="#AK" y="-67.62"/><use xlink:href="#AK" y="-81.16"/><path d="M511.65 532.54a3.23 3.23 0 1 0-3.22 3.23 3.23 3.23 0 0 0 3.22-3.23z"/><use xlink:href="#AK" y="-108.22"/><use xlink:href="#AJ" y="-135.25"/><use xlink:href="#AK" y="-135.22"/><use xlink:href="#AL"/><use xlink:href="#AM"/><path d="M525.3 613.7A3.34 3.34 0 1 0 522 617a3.33 3.33 0 0 0 3.29-3.31z"/><use xlink:href="#AM" y="-27.05"/><path d="M525.3 586.64A3.34 3.34 0 1 0 522 590a3.34 3.34 0 0 0 3.29-3.36z"/><use xlink:href="#AM" y="-54.1"/><use xlink:href="#AM" y="-67.62"/><path d="M525.3 546.06a3.34 3.34 0 1 0-3.29 3.34 3.33 3.33 0 0 0 3.29-3.34z"/><use xlink:href="#AM" y="-94.68"/><use xlink:href="#AL" y="-121.75"/><use xlink:href="#AM" y="-121.72"/><path d="M525.3 492a3.34 3.34 0 1 0-3.29 3.3 3.34 3.34 0 0 0 3.29-3.3z"/><use xlink:href="#AN"/><use xlink:href="#AO"/><use xlink:href="#AP"/><use xlink:href="#AN" y="-40.58"/><use xlink:href="#AP" y="-27.06"/><use xlink:href="#AN" y="-67.63"/><use xlink:href="#AO" y="-67.62"/><path d="M538.93 546.06a3.45 3.45 0 1 0-3.45 3.46 3.44 3.44 0 0 0 3.45-3.46z"/><use xlink:href="#AN" y="-108.21"/><use xlink:href="#AP" y="-94.7"/><use xlink:href="#AN" y="-135.25"/><use xlink:href="#AO" y="-135.22"/><use xlink:href="#AQ"/><use xlink:href="#AR"/><use xlink:href="#AS"/><use xlink:href="#AT"/><use xlink:href="#AS" y="-27.06"/><use xlink:href="#AQ" y="-67.63"/><use xlink:href="#AR" y="-67.62"/><use xlink:href="#AS" y="-67.64"/><path d="M552.57 532.54a3.57 3.57 0 1 0-3.57 3.56 3.56 3.56 0 0 0 3.57-3.56z"/><use xlink:href="#AS" y="-94.7"/><use xlink:href="#AT" y="-94.67"/><use xlink:href="#AR" y="-135.22"/><use xlink:href="#AU"/><use xlink:href="#AV"/><use xlink:href="#AV" y="-13.52"/><use xlink:href="#AW"/><use xlink:href="#AV" y="-40.58"/><use xlink:href="#AU" y="-67.63"/><use xlink:href="#AV" y="-67.62"/><use xlink:href="#AV" y="-81.16"/><use xlink:href="#AW" y="-67.63"/><use xlink:href="#AV" y="-108.22"/><use xlink:href="#AU" y="-135.25"/><use xlink:href="#AV" y="-135.22"/><use xlink:href="#AX"/><use xlink:href="#AX" y="-13.53"/><path d="M579.8 613.7a3.75 3.75 0 1 0-3.75 3.76 3.75 3.75 0 0 0 3.75-3.76z"/><use xlink:href="#AX" y="-40.58"/><use xlink:href="#AX" y="-54.11"/><use xlink:href="#AX" y="-67.63"/><use xlink:href="#AX" y="-81.15"/><path d="M579.8 546.06a3.75 3.75 0 1 0-3.75 3.76 3.75 3.75 0 0 0 3.75-3.76z"/><use xlink:href="#AX" y="-108.21"/><path d="M579.8 519a3.75 3.75 0 1 0-3.75 3.76 3.74 3.74 0 0 0 3.75-3.76z"/><use xlink:href="#AX" y="-135.25"/><use xlink:href="#AX" y="-148.75"/><use xlink:href="#AY"/><use xlink:href="#AZ"/><use xlink:href="#AZ" y="-13.52"/><use xlink:href="#AY" y="-40.58"/><use xlink:href="#AZ" y="-40.58"/><use xlink:href="#AY" y="-67.63"/><use xlink:href="#AZ" y="-67.62"/><use xlink:href="#AZ" y="-81.16"/><use xlink:href="#AY" y="-108.21"/><use xlink:href="#AZ" y="-108.22"/><use xlink:href="#AY" y="-135.25"/><use xlink:href="#AZ" y="-135.22"/><use xlink:href="#Aa"/><use xlink:href="#Aa" y="-13.53"/><use xlink:href="#Aa" y="-27.05"/><use xlink:href="#Aa" y="-40.58"/><use xlink:href="#Aa" y="-54.11"/><use xlink:href="#Aa" y="-67.63"/><use xlink:href="#Aa" y="-81.15"/><use xlink:href="#Aa" y="-94.69"/><use xlink:href="#Aa" y="-108.21"/><use xlink:href="#Aa" y="-121.75"/><use xlink:href="#Aa" y="-135.25"/><use xlink:href="#Aa" y="-148.75"/><use xlink:href="#Ab"/><use xlink:href="#Ab" y="-13.53"/><use xlink:href="#Ac"/><use xlink:href="#Ab" y="-40.58"/><use xlink:href="#Ac" y="-27.06"/><use xlink:href="#Ab" y="-67.63"/><use xlink:href="#Ac" y="-54.1"/><use xlink:href="#Ac" y="-67.64"/><use xlink:href="#Ab" y="-108.21"/><use xlink:href="#Ac" y="-94.7"/><use xlink:href="#Ab" y="-135.25"/><use xlink:href="#Ac" y="-121.7"/><use xlink:href="#Ad"/><use xlink:href="#Ad" y="-13.53"/><path d="M634.36 613.7a4.2 4.2 0 1 0-4.2 4.21 4.19 4.19 0 0 0 4.2-4.21z"/><use xlink:href="#Ad" y="-40.58"/><use xlink:href="#Ad" y="-54.11"/><use xlink:href="#Ad" y="-67.63"/><use xlink:href="#Ad" y="-81.15"/><path d="M634.36 546.06a4.2 4.2 0 1 0-4.2 4.21 4.19 4.19 0 0 0 4.2-4.21z"/><use xlink:href="#Ad" y="-108.21"/><use xlink:href="#Ad" y="-121.75"/><use xlink:href="#Ad" y="-135.25"/><use xlink:href="#Ad" y="-148.75"/><use xlink:href="#Ae"/><use xlink:href="#Ae" y="-13.53"/><use xlink:href="#Af"/><use xlink:href="#Ae" y="-40.58"/><use xlink:href="#Af" y="-27.06"/><use xlink:href="#Ae" y="-67.63"/><use xlink:href="#Af" y="-54.1"/><use xlink:href="#Af" y="-67.64"/><use xlink:href="#Ae" y="-108.21"/><path d="M648,519a4.31,4.31,0,1,0-4.31,4.32A4.31,4.31,0,0,0,648,519Z"/><use xlink:href="#Ae" y="-135.25"/><path d="M648,492a4.31,4.31,0,1,0-4.31,4.32A4.31,4.31,0,0,0,648,492Z"/><use xlink:href="#Ag"/><path d="M531.78 344.25a0 0 0 0 0-.08 0z"/><use xlink:href="#Ag" y="27.05"/><use xlink:href="#Ag" y="40.58"/><path d="M531.78 384.82a0 0 0 1 0 .08 0s-.08-.02-.08 0z"/><use xlink:href="#Ag" y="67.63"/><path d="M531.78 411.88a0 0 0 1 0-.08 0zm0 13.52a0 0 0 1 0 .08 0 0 0 0 0 0-.08 0 0 0 0 0 0 0 0z"/><use xlink:href="#Ag" y="108.21"/><path d="M531.78 452.45a0 0 0 0 0 .08 0s-.08-.02-.08 0z"/><use xlink:href="#Ag" y="135.28"/><path d="M531.78 479.5a0 0 0 0 0-.08 0z"/><use xlink:href="#Ah"/><use xlink:href="#Ai"/><use xlink:href="#Ah" y="27.05"/><use xlink:href="#Ai" y="27.05"/><path d="M518.15 384.82a.14.14 0 0 0 .15.15.15.15 0 0 0 0-.3.15.15 0 0 0-.15.15z"/><use xlink:href="#Ah" y="67.63"/><path d="M518.15 411.88a.15.15 0 0 0 .3 0 .16.16 0 0 0-.15-.16.15.15 0 0 0-.15.16z"/><use xlink:href="#Ah" y="94.68"/><use xlink:href="#Ai" y="94.68"/><path d="M518.15 452.45a.14.14 0 0 0 .15.15.15.15 0 1 0 0-.3.15.15 0 0 0-.15.15z"/><use xlink:href="#Ah" y="135.28"/><path d="M518.15 479.5a.15.15 0 0 0 .3 0 .16.16 0 0 0-.15-.16.15.15 0 0 0-.15.16z"/><circle cx="504.77" cy="330.72" r=".22"/><circle cx="504.77" cy="344.25" r=".22"/><path d="M504.55,357.77a.22.22,0,1,0,.44,0,.22.22,0,0,0-.44,0Z"/><circle cx="504.77" cy="371.3" r=".22"/><path d="M504.55 384.82a.22.22 0 1 0 .44 0 .22.22 0 0 0-.44 0zm0 13.53a.22.22 0 1 0 .44 0 .22.22 0 1 0-.44 0z"/><circle cx="504.77" cy="411.88" r=".22"/><path d="M504.55 425.4a.22.22 0 1 0 .44 0 .22.22 0 0 0-.44 0zm0 13.53a.22.22 0 0 0 .44 0 .22.22 0 1 0-.44 0zm0 13.52a.22.22 0 1 0 .44 0 .22.22 0 0 0-.44 0zm0 13.55a.22.22 0 0 0 .44 0 .22.22 0 1 0-.44 0zm0 13.5a.22.22 0 0 0 .44 0 .22.22 0 1 0-.44 0z"/><use xlink:href="#Aj"/><use xlink:href="#Aj" y="13.53"/><use xlink:href="#Aj" y="27.05"/><use xlink:href="#Ak"/><use xlink:href="#Ak" y="13.52"/><use xlink:href="#Aj" y="67.63"/><use xlink:href="#Aj" y="81.16"/><use xlink:href="#Aj" y="94.68"/><use xlink:href="#Aj" y="108.21"/><use xlink:href="#Aj" y="121.73"/><use xlink:href="#Aj" y="135.28"/><use xlink:href="#Aj" y="148.78"/><use xlink:href="#Al"/><circle cx="477.72" cy="344.25" r=".45"/><circle cx="477.72" cy="357.77" r=".45"/><use xlink:href="#Al" y="40.58"/><use xlink:href="#Al" y="54.1"/><use xlink:href="#Al" y="67.63"/><circle cx="477.72" cy="411.88" r=".45"/><use xlink:href="#Al" y="94.68"/><use xlink:href="#Al" y="108.21"/><use xlink:href="#Al" y="121.73"/><use xlink:href="#Al" y="135.28"/><circle cx="477.72" cy="479.51" r=".45"/><use xlink:href="#Am"/><use xlink:href="#An"/><use xlink:href="#Am" y="27.05"/><use xlink:href="#Ao"/><use xlink:href="#Ap"/><use xlink:href="#Am" y="67.63"/><use xlink:href="#An" y="67.63"/><use xlink:href="#Am" y="94.68"/><use xlink:href="#Ao" y="67.63"/><use xlink:href="#Ap" y="67.63"/><use xlink:href="#Am" y="135.28"/><use xlink:href="#An" y="135.25"/><use xlink:href="#Aq"/><use xlink:href="#Ar"/><path d="M450,357.77a.68.68,0,0,0,.68.68.68.68,0,1,0-.68-.68Z"/><use xlink:href="#Ar" y="27.05"/><path d="M450,384.82a.68.68,0,0,0,.68.68.68.68,0,1,0-.68-.68Z"/><use xlink:href="#Ar" y="54.1"/><use xlink:href="#Ar" y="67.63"/><path d="M450 425.4a.69.69 0 0 0 .68.68.68.68 0 0 0 0-1.36.69.69 0 0 0-.68.68z"/><use xlink:href="#Ar" y="94.68"/><path d="M450,452.45a.68.68,0,0,0,.68.68.68.68,0,1,0-.68-.68Z"/><use xlink:href="#Ar" y="121.75"/><use xlink:href="#Ar" y="135.25"/><path d="M436.35,330.72a.79.79,0,0,0,1.58,0,.79.79,0,0,0-1.58,0Z"/><use xlink:href="#As"/><use xlink:href="#As" y="13.52"/><path d="M436.35,371.3a.79.79,0,0,0,1.58,0,.79.79,0,0,0-1.58,0Z"/><use xlink:href="#As" y="40.57"/><path d="M436.35,398.35a.79.79,0,0,0,1.58,0,.79.79,0,0,0-1.58,0Z"/><use xlink:href="#As" y="67.63"/><use xlink:href="#As" y="81.15"/><use xlink:href="#As" y="94.68"/><use xlink:href="#As" y="108.2"/><path d="M436.35,466a.79.79,0,0,0,1.58,0,.79.79,0,0,0-1.58,0Z"/><use xlink:href="#As" y="135.25"/><use xlink:href="#At"/><path d="M422.72 344.25a.9.9 0 1 0 .9-.9.89.89 0 0 0-.9.9z"/><use xlink:href="#At" y="27.05"/><use xlink:href="#At" y="40.58"/><path d="M422.72,384.82a.9.9,0,1,0,1.8,0,.9.9,0,0,0-1.8,0Z"/><use xlink:href="#At" y="67.63"/><path d="M422.72,411.88a.9.9,0,0,0,1.8,0,.9.9,0,1,0-1.8,0Z"/><use xlink:href="#At" y="94.68"/><use xlink:href="#At" y="108.21"/><use xlink:href="#At" y="121.73"/><use xlink:href="#At" y="135.28"/><path d="M422.72 479.5a.9.9 0 0 0 1.8 0 .9.9 0 1 0-1.8 0z"/><use xlink:href="#Au"/><use xlink:href="#Au" y="13.53"/><use xlink:href="#Au" y="27.05"/><use xlink:href="#Au" y="40.58"/><use xlink:href="#Au" y="54.1"/><use xlink:href="#Au" y="67.63"/><use xlink:href="#Au" y="81.16"/><use xlink:href="#Au" y="94.68"/><use xlink:href="#Au" y="108.21"/><use xlink:href="#Au" y="121.73"/><use xlink:href="#Au" y="135.28"/><use xlink:href="#Au" y="148.78"/><use xlink:href="#Av"/><use xlink:href="#Aw"/><use xlink:href="#Ax"/><use xlink:href="#Aw" y="27.05"/><use xlink:href="#Ax" y="27.05"/><use xlink:href="#Aw" y="54.1"/><use xlink:href="#Aw" y="67.63"/><use xlink:href="#Ax" y="67.63"/><use xlink:href="#Aw" y="94.68"/><use xlink:href="#Ax" y="94.68"/><use xlink:href="#Aw" y="121.75"/><use xlink:href="#Aw" y="135.25"/><use xlink:href="#Ay"/><path d="M381.8 344.25A1.24 1.24 0 1 0 383 343a1.23 1.23 0 0 0-1.2 1.25z"/><use xlink:href="#Ay" y="27.05"/><use xlink:href="#Az"/><path d="M381.8 384.82a1.24 1.24 0 1 0 1.24-1.23 1.24 1.24 0 0 0-1.24 1.23z"/><use xlink:href="#Ay" y="67.63"/><use xlink:href="#Az" y="40.58"/><use xlink:href="#Ay" y="94.68"/><use xlink:href="#Az" y="67.63"/><use xlink:href="#Ay" y="121.73"/><path d="M381.8,466a1.24,1.24,0,1,0,1.24-1.24A1.24,1.24,0,0,0,381.8,466Z"/><use xlink:href="#Az" y="108.2"/><use xlink:href="#BA"/><use xlink:href="#BB"/><use xlink:href="#BB" y="13.52"/><use xlink:href="#BA" y="40.58"/><use xlink:href="#BB" y="40.57"/><use xlink:href="#BA" y="67.63"/><use xlink:href="#BA" y="81.16"/><use xlink:href="#BB" y="81.15"/><use xlink:href="#BA" y="108.21"/><use xlink:href="#BB" y="108.2"/><use xlink:href="#BA" y="135.28"/><path d="M368.16 479.5a1.35 1.35 0 1 0 1.35-1.36 1.34 1.34 0 0 0-1.35 1.36z"/><use xlink:href="#BC"/><use xlink:href="#BD"/><use xlink:href="#BC" y="27.05"/><use xlink:href="#BC" y="40.58"/><path d="M354.52 384.82a1.47 1.47 0 1 0 1.47-1.46 1.47 1.47 0 0 0-1.47 1.46z"/><use xlink:href="#BC" y="67.63"/><use xlink:href="#BD" y="67.63"/><use xlink:href="#BC" y="94.68"/><use xlink:href="#BD" y="94.68"/><path d="M354.52 452.45A1.47 1.47 0 1 0 356 451a1.47 1.47 0 0 0-1.48 1.45z"/><use xlink:href="#BC" y="135.28"/><path d="M354.52 479.5A1.47 1.47 0 1 0 356 478a1.47 1.47 0 0 0-1.48 1.51z"/><use xlink:href="#BE"/><use xlink:href="#BE" y="13.53"/><use xlink:href="#BE" y="27.05"/><use xlink:href="#BE" y="40.58"/><use xlink:href="#BF"/><use xlink:href="#BE" y="67.63"/><use xlink:href="#BE" y="81.16"/><use xlink:href="#BE" y="94.68"/><use xlink:href="#BE" y="108.21"/><use xlink:href="#BF" y="67.63"/><use xlink:href="#BE" y="135.28"/><use xlink:href="#BE" y="148.78"/><use xlink:href="#BG"/><use xlink:href="#BG" y="13.53"/><use xlink:href="#BG" y="27.05"/><use xlink:href="#BG" y="40.58"/><use xlink:href="#BG" y="54.1"/><use xlink:href="#BG" y="67.63"/><path d="M327.28 411.88a1.66 1.66 0 1 0 1.65-1.65 1.66 1.66 0 0 0-1.65 1.65z"/><use xlink:href="#BG" y="94.68"/><use xlink:href="#BG" y="108.21"/><use xlink:href="#BG" y="121.73"/><use xlink:href="#BG" y="135.28"/><path d="M327.28 479.5a1.66 1.66 0 1 0 1.65-1.66 1.66 1.66 0 0 0-1.65 1.66z"/><use xlink:href="#BH"/><use xlink:href="#BI"/><use xlink:href="#BH" y="27.05"/><use xlink:href="#BI" y="27.05"/><use xlink:href="#BH" y="54.1"/><use xlink:href="#BI" y="54.1"/><use xlink:href="#BI" y="67.63"/><use xlink:href="#BH" y="94.68"/><use xlink:href="#BI" y="94.68"/><path d="M313.64 452.45a1.77 1.77 0 1 0 1.77-1.76 1.78 1.78 0 0 0-1.77 1.76z"/><use xlink:href="#BI" y="121.75"/><use xlink:href="#BI" y="135.25"/><circle cx="301.88" cy="330.72" r="1.88"/><use xlink:href="#BJ"/><use xlink:href="#BJ" y="13.52"/><circle cx="301.88" cy="371.3" r="1.88"/><path d="M300 384.82a1.88 1.88 0 1 0 1.87-1.87 1.87 1.87 0 0 0-1.87 1.87z"/><use xlink:href="#BJ" y="54.1"/><circle cx="301.88" cy="411.88" r="1.88"/><path d="M300,425.4a1.88,1.88,0,1,0,1.87-1.88A1.87,1.87,0,0,0,300,425.4Z"/><use xlink:href="#BJ" y="94.68"/><circle cx="301.88" cy="452.45" r="1.88"/><path d="M300,466a1.88,1.88,0,1,0,1.87-1.88A1.87,1.87,0,0,0,300,466Z"/><use xlink:href="#BJ" y="135.25"/><use xlink:href="#BK"/><use xlink:href="#BK" y="13.53"/><use xlink:href="#BK" y="27.05"/><use xlink:href="#BK" y="40.58"/><use xlink:href="#BK" y="54.1"/><use xlink:href="#BK" y="67.63"/><use xlink:href="#BK" y="81.16"/><use xlink:href="#BK" y="94.68"/><use xlink:href="#BK" y="108.21"/><use xlink:href="#BK" y="121.73"/><use xlink:href="#BK" y="135.28"/><use xlink:href="#BK" y="148.78"/><use xlink:href="#BL"/><use xlink:href="#BM"/><use xlink:href="#BL" y="27.05"/><use xlink:href="#BL" y="40.58"/><use xlink:href="#BL" y="54.1"/><use xlink:href="#BL" y="67.63"/><use xlink:href="#BM" y="67.63"/><use xlink:href="#BL" y="94.68"/><use xlink:href="#BM" y="94.68"/><use xlink:href="#BL" y="121.73"/><use xlink:href="#BL" y="135.28"/><use xlink:href="#BM" y="135.25"/><use xlink:href="#BN"/><use xlink:href="#BN" y="13.53"/><use xlink:href="#BN" y="27.05"/><use xlink:href="#BN" y="40.58"/><use xlink:href="#BN" y="54.1"/><use xlink:href="#BN" y="67.63"/><use xlink:href="#BO"/><use xlink:href="#BN" y="94.68"/><use xlink:href="#BO" y="27.05"/><use xlink:href="#BN" y="121.73"/><use xlink:href="#BN" y="135.28"/><use xlink:href="#BO" y="67.62"/><use xlink:href="#BP"/><use xlink:href="#BP" y="13.53"/><use xlink:href="#BQ"/><use xlink:href="#BP" y="40.58"/><use xlink:href="#BQ" y="27.05"/><path d="M245.45 398.35a2.33 2.33 0 1 0 2.33-2.33 2.32 2.32 0 0 0-2.33 2.33z"/><use xlink:href="#BP" y="81.16"/><use xlink:href="#BP" y="94.68"/><use xlink:href="#BP" y="108.21"/><use xlink:href="#BQ" y="94.68"/><use xlink:href="#BP" y="135.28"/><use xlink:href="#BP" y="148.78"/><use xlink:href="#BR"/><use xlink:href="#BR" y="13.53"/><use xlink:href="#BR" y="27.05"/><use xlink:href="#BR" y="40.58"/><path d="M231.82 384.82a2.44 2.44 0 1 0 2.43-2.43 2.43 2.43 0 0 0-2.43 2.43z"/><use xlink:href="#BR" y="67.63"/><use xlink:href="#BR" y="81.16"/><use xlink:href="#BR" y="94.68"/><use xlink:href="#BR" y="108.21"/><use xlink:href="#BR" y="121.73"/><use xlink:href="#BS"/><use xlink:href="#BR" y="148.78"/><use xlink:href="#BT"/><path d="M218.18 344.25a2.55 2.55 0 1 0 2.55-2.55 2.54 2.54 0 0 0-2.55 2.55z"/><use xlink:href="#BT" y="27.05"/><use xlink:href="#BT" y="40.58"/><use xlink:href="#BT" y="54.1"/><use xlink:href="#BT" y="67.63"/><path d="M218.18 411.88a2.55 2.55 0 1 0 2.55-2.56 2.54 2.54 0 0 0-2.55 2.56z"/><use xlink:href="#BT" y="94.68"/><use xlink:href="#BT" y="108.21"/><use xlink:href="#BT" y="121.73"/><use xlink:href="#BT" y="135.28"/><use xlink:href="#BU"/><use xlink:href="#BV"/><use xlink:href="#BW"/><use xlink:href="#BV" y="27.05"/><use xlink:href="#BW" y="27.05"/><use xlink:href="#BV" y="54.1"/><use xlink:href="#BV" y="67.63"/><use xlink:href="#BW" y="67.63"/><use xlink:href="#BV" y="94.68"/><use xlink:href="#BW" y="94.68"/><use xlink:href="#BV" y="121.73"/><use xlink:href="#BV" y="135.28"/><use xlink:href="#BW" y="135.25"/><use xlink:href="#BX"/><use xlink:href="#BY"/><use xlink:href="#BZ"/><use xlink:href="#BY" y="27.05"/><use xlink:href="#BX" y="54.1"/><use xlink:href="#BX" y="67.63"/><use xlink:href="#BY" y="67.63"/><use xlink:href="#BZ" y="67.63"/><use xlink:href="#BY" y="94.68"/><use xlink:href="#BX" y="121.73"/><path d="M190.9,466a2.78,2.78,0,1,0,2.77-2.77A2.77,2.77,0,0,0,190.9,466Z"/><use xlink:href="#BY" y="135.25"/><use xlink:href="#Ba"/><use xlink:href="#Bb"/><use xlink:href="#Ba" y="27.05"/><use xlink:href="#Bb" y="27.05"/><use xlink:href="#Bc"/><use xlink:href="#Ba" y="67.63"/><use xlink:href="#Bb" y="67.63"/><use xlink:href="#Ba" y="94.68"/><use xlink:href="#Bb" y="94.68"/><use xlink:href="#Bc" y="67.63"/><use xlink:href="#Ba" y="135.28"/><use xlink:href="#Bb" y="135.25"/><use xlink:href="#Bd"/><use xlink:href="#Bd" y="13.53"/><use xlink:href="#Bd" y="27.05"/><use xlink:href="#Bd" y="40.58"/><use xlink:href="#Bd" y="54.1"/><use xlink:href="#Bd" y="67.63"/><use xlink:href="#Bd" y="81.16"/><use xlink:href="#Bd" y="94.68"/><use xlink:href="#Bd" y="108.21"/><use xlink:href="#Bd" y="121.73"/><use xlink:href="#Bd" y="135.28"/><use xlink:href="#Bd" y="148.78"/><use xlink:href="#Be"/><use xlink:href="#Bf"/><use xlink:href="#Bg"/><path d="M150,371.3a3.11,3.11,0,1,0,3.11-3.12A3.11,3.11,0,0,0,150,371.3Z"/><use xlink:href="#Bg" y="27.05"/><use xlink:href="#Be" y="67.63"/><use xlink:href="#Bf" y="67.63"/><path d="M150,425.4a3.11,3.11,0,1,0,3.11-3.11A3.12,3.12,0,0,0,150,425.4Z"/><use xlink:href="#Bf" y="94.68"/><use xlink:href="#Bg" y="94.68"/><path d="M150,466a3.11,3.11,0,1,0,3.11-3.11A3.11,3.11,0,0,0,150,466Z"/><use xlink:href="#Bf" y="135.25"/><use xlink:href="#Bh"/><use xlink:href="#Bh" y="13.53"/><use xlink:href="#Bi"/><use xlink:href="#Bh" y="40.58"/><use xlink:href="#Bi" y="27.05"/><use xlink:href="#Bh" y="67.63"/><use xlink:href="#Bh" y="81.16"/><use xlink:href="#Bi" y="67.63"/><use xlink:href="#Bh" y="108.21"/><use xlink:href="#Bi" y="94.68"/><use xlink:href="#Bh" y="135.28"/><use xlink:href="#Bh" y="148.78"/><use xlink:href="#Bj"/><use xlink:href="#Bj" y="13.53"/><use xlink:href="#Bj" y="27.05"/><use xlink:href="#Bj" y="40.58"/><use xlink:href="#Bk"/><use xlink:href="#Bj" y="67.63"/><use xlink:href="#Bk" y="27.06"/><use xlink:href="#Bj" y="94.68"/><use xlink:href="#Bj" y="108.21"/><use xlink:href="#Bk" y="67.63"/><use xlink:href="#Bj" y="135.28"/><use xlink:href="#Bk" y="94.68"/><use xlink:href="#Bl"/><use xlink:href="#Bm"/><use xlink:href="#Bn"/><use xlink:href="#Bm" y="27.05"/><use xlink:href="#Bl" y="54.1"/><use xlink:href="#Bl" y="67.63"/><use xlink:href="#Bm" y="67.63"/><use xlink:href="#Bn" y="67.63"/><use xlink:href="#Bm" y="94.68"/><use xlink:href="#Bn" y="94.68"/><use xlink:href="#Bl" y="135.28"/><use xlink:href="#Bm" y="135.25"/><use xlink:href="#Bo"/><use xlink:href="#Bp"/><use xlink:href="#Bo" y="27.05"/><use xlink:href="#Bp" y="27.05"/><path d="M95.43 384.82a3.57 3.57 0 1 0 3.57-3.56 3.57 3.57 0 0 0-3.57 3.56zm0 13.53a3.57 3.57 0 1 0 3.57-3.57 3.56 3.56 0 0 0-3.57 3.57z"/><use xlink:href="#Bp" y="67.63"/><use xlink:href="#Bo" y="94.68"/><use xlink:href="#Bp" y="94.68"/><path d="M95.43 452.45a3.57 3.57 0 1 0 3.57-3.56 3.57 3.57 0 0 0-3.57 3.56zm0 13.55a3.57 3.57 0 1 0 3.57-3.59 3.56 3.56 0 0 0-3.57 3.59z"/><use xlink:href="#Bp" y="135.25"/><path d="M81.8 330.72a3.68 3.68 0 1 0 3.68-3.72 3.67 3.67 0 0 0-3.68 3.72z"/><use xlink:href="#Bq"/><use xlink:href="#Br"/><use xlink:href="#Bq" y="27.05"/><use xlink:href="#Bs"/><use xlink:href="#Bq" y="54.1"/><use xlink:href="#Bq" y="67.63"/><use xlink:href="#Br" y="67.63"/><use xlink:href="#Bq" y="94.68"/><use xlink:href="#Bs" y="67.63"/><use xlink:href="#Bq" y="121.75"/><use xlink:href="#Bq" y="135.25"/><path d="M68.2 330.72a3.75 3.75 0 1 0 3.75-3.72 3.75 3.75 0 0 0-3.75 3.72z"/><use xlink:href="#Bt"/><path d="M68.2 357.77a3.75 3.75 0 1 0 3.75-3.77 3.75 3.75 0 0 0-3.75 3.77z"/><use xlink:href="#Bu"/><use xlink:href="#Bu" y="13.52"/><use xlink:href="#Bu" y="27.05"/><path d="M68.2 411.88a3.75 3.75 0 1 0 3.75-3.76 3.74 3.74 0 0 0-3.75 3.76z"/><use xlink:href="#Bu" y="54.1"/><use xlink:href="#Bu" y="67.63"/><use xlink:href="#Bu" y="81.15"/><use xlink:href="#Bu" y="94.7"/><path d="M68.2 479.5a3.75 3.75 0 1 0 3.75-3.76 3.74 3.74 0 0 0-3.75 3.76z"/><use xlink:href="#Bv"/><use xlink:href="#Bw"/><use xlink:href="#Bv" y="27.05"/><use xlink:href="#Bw" y="27.05"/><path d="M54.55 384.82a3.87 3.87 0 1 0 3.87-3.82 3.87 3.87 0 0 0-3.87 3.82z"/><use xlink:href="#Bv" y="67.63"/><path d="M54.55 411.88a3.87 3.87 0 1 0 3.87-3.88 3.86 3.86 0 0 0-3.87 3.88z"/><use xlink:href="#Bv" y="94.68"/><use xlink:href="#Bw" y="94.68"/><use xlink:href="#Bx"/><path d="M54.55,466a3.87,3.87,0,1,0,3.87-3.87A3.86,3.86,0,0,0,54.55,466Z"/><use xlink:href="#Bw" y="135.25"/><use xlink:href="#By"/><use xlink:href="#By" y="13.53"/><use xlink:href="#By" y="27.05"/><use xlink:href="#By" y="40.58"/><use xlink:href="#By" y="54.1"/><use xlink:href="#By" y="67.63"/><use xlink:href="#By" y="81.16"/><use xlink:href="#By" y="94.68"/><use xlink:href="#By" y="108.21"/><use xlink:href="#By" y="121.73"/><use xlink:href="#By" y="135.28"/><use xlink:href="#By" y="148.78"/><use xlink:href="#Bz"/><use xlink:href="#CA"/><use xlink:href="#Bz" y="27.05"/><use xlink:href="#CA" y="27.05"/><path d="M27.28 384.82a4.09 4.09 0 1 0 4.08-4.08 4.09 4.09 0 0 0-4.08 4.08z"/><use xlink:href="#Bz" y="67.63"/><use xlink:href="#CA" y="67.63"/><use xlink:href="#Bz" y="94.68"/><use xlink:href="#CA" y="94.68"/><path d="M27.28 452.45a4.09 4.09 0 1 0 4.08-4.08 4.09 4.09 0 0 0-4.08 4.08zm0 13.55a4.09 4.09 0 1 0 4.08-4.09 4.09 4.09 0 0 0-4.08 4.09z"/><use xlink:href="#CA" y="135.25"/><use xlink:href="#CB"/><path d="M13.64 344.25a4.2 4.2 0 1 0 4.2-4.2 4.19 4.19 0 0 0-4.2 4.2z"/><use xlink:href="#CB" y="27.05"/><use xlink:href="#CB" y="40.58"/><use xlink:href="#CB" y="54.1"/><use xlink:href="#CB" y="67.63"/><path d="M13.64 411.88a4.2 4.2 0 1 0 4.2-4.21 4.19 4.19 0 0 0-4.2 4.21z"/><use xlink:href="#CB" y="94.68"/><use xlink:href="#CB" y="108.21"/><use xlink:href="#CB" y="121.73"/><use xlink:href="#CB" y="135.28"/><path d="M13.64 479.5a4.2 4.2 0 1 0 4.2-4.21 4.19 4.19 0 0 0-4.2 4.21zM0 330.72a4.31 4.31 0 1 0 4.31-4.31A4.31 4.31 0 0 0 0 330.72zm0 13.53a4.31 4.31 0 1 0 4.31-4.32A4.31 4.31 0 0 0 0 344.25zm0 13.52a4.31 4.31 0 1 0 4.31-4.31A4.31 4.31 0 0 0 0 357.77zm0 13.53a4.31 4.31 0 1 0 4.31-4.3A4.31 4.31 0 0 0 0 371.3zm0 13.52a4.31 4.31 0 1 0 4.31-4.31A4.31 4.31 0 0 0 0 384.82zm0 13.53A4.31 4.31 0 1 0 4.31 394 4.31 4.31 0 0 0 0 398.35zm0 13.53a4.31 4.31 0 1 0 4.31-4.32A4.31 4.31 0 0 0 0 411.88zm0 13.52a4.31 4.31 0 1 0 4.31-4.31A4.31 4.31 0 0 0 0 425.4zm0 13.53a4.31 4.31 0 1 0 4.31-4.32A4.31 4.31 0 0 0 0 438.93zm0 13.52a4.31 4.31 0 1 0 4.31-4.31A4.31 4.31 0 0 0 0 452.45zM0 466a4.31 4.31 0 1 0 4.31-4.31A4.31 4.31 0 0 0 0 466zm0 13.5a4.31 4.31 0 1 0 4.31-4.32A4.31 4.31 0 0 0 0 479.51z"/><use xlink:href="#B" y="-282.89"/><path d="M116.22,303.76a0,0,0,0,0-.08,0,0,0,0,0,0,.08,0Z"/><use xlink:href="#B" y="-309.94"/><path d="M116.22 276.7a0 0 0 0 0 .08 0z"/><use xlink:href="#C" y="-309.94"/><use xlink:href="#B" y="-350.52"/><use xlink:href="#C" y="-336.99"/><use xlink:href="#B" y="-377.57"/><path d="M116.22 209.07a0 0 0 0 0 .08 0z"/><use xlink:href="#C" y="-377.57"/><path d="M116.22 182a0 0 0 1 0 .08 0z"/><use xlink:href="#C" y="-404.62"/><use xlink:href="#D" y="-323.47"/><use xlink:href="#CC"/><path d="M129.85 290.23a.14.14 0 0 0-.15-.15.15.15 0 0 0 0 .3.15.15 0 0 0 .15-.15z"/><use xlink:href="#D" y="-364.05"/><path d="M129.85 263.18a.14.14 0 0 0-.15-.15.15.15 0 0 0 0 .3.15.15 0 0 0 .15-.15z"/><use xlink:href="#D" y="-391.1"/><use xlink:href="#CC" y="-67.63"/><use xlink:href="#CD"/><use xlink:href="#D" y="-431.68"/><use xlink:href="#CD" y="-27.05"/><use xlink:href="#D" y="-458.75"/><use xlink:href="#CD" y="-54.1"/><path d="M143.45 317.28a.23.23 0 0 0-.22-.23.23.23 0 0 0 0 .46.23.23 0 0 0 .22-.23z"/><use xlink:href="#F" y="-336.99"/><use xlink:href="#I" y="-309.94"/><use xlink:href="#H" y="-337"/><use xlink:href="#F" y="-377.57"/><path d="M143.45 249.65a.22.22 0 0 0-.44 0 .22.22 0 0 0 .22.23.23.23 0 0 0 .22-.23z"/><use xlink:href="#F" y="-404.62"/><path d="M143.45 222.6a.23.23 0 0 0-.22-.23.23.23 0 0 0 0 .46.23.23 0 0 0 .22-.23z"/><use xlink:href="#H" y="-404.63"/><use xlink:href="#F" y="-445.2"/><use xlink:href="#H" y="-431.7"/><use xlink:href="#F" y="-472.25"/><use xlink:href="#J" y="-323.47"/><use xlink:href="#CE"/><use xlink:href="#J" y="-350.52"/><use xlink:href="#J" y="-364.05"/><use xlink:href="#CE" y="-40.58"/><use xlink:href="#K" y="-377.57"/><use xlink:href="#CE" y="-67.63"/><use xlink:href="#J" y="-418.15"/><use xlink:href="#J" y="-431.68"/><use xlink:href="#CE" y="-108.21"/><use xlink:href="#K" y="-445.22"/><use xlink:href="#CE" y="-135.26"/><use xlink:href="#L" y="-323.47"/><path d="M170.73 303.76a.45.45 0 1 0-.45.44.45.45 0 0 0 .45-.44z"/><use xlink:href="#L" y="-350.52"/><use xlink:href="#L" y="-364.05"/><use xlink:href="#L" y="-377.57"/><use xlink:href="#L" y="-391.1"/><path d="M170.73,236.13a.45.45,0,1,0-.9,0,.45.45,0,0,0,.9,0Z"/><use xlink:href="#L" y="-418.15"/><use xlink:href="#L" y="-431.68"/><use xlink:href="#L" y="-445.2"/><use xlink:href="#L" y="-458.75"/><path d="M170.73 168.5a.45.45 0 1 0-.45.45.46.46 0 0 0 .45-.45z"/><use xlink:href="#M" y="-323.47"/><path d="M184.37,303.76a.56.56,0,0,0-.56-.57.57.57,0,1,0,.56.57Z"/><use xlink:href="#CF"/><use xlink:href="#M" y="-364.05"/><use xlink:href="#CG"/><use xlink:href="#M" y="-391.1"/><path d="M184.37,236.13a.56.56,0,0,0-.56-.57.57.57,0,1,0,.56.57Z"/><use xlink:href="#CF" y="-67.63"/><use xlink:href="#M" y="-431.68"/><use xlink:href="#CG" y="-67.63"/><use xlink:href="#M" y="-458.75"/><use xlink:href="#CG" y="-94.68"/><use xlink:href="#O" y="-323.47"/><use xlink:href="#O" y="-336.99"/><use xlink:href="#O" y="-350.52"/><path d="M198 276.7a.68.68 0 1 0-.68.68.68.68 0 0 0 .68-.68z"/><use xlink:href="#O" y="-377.57"/><path d="M198,249.65a.68.68,0,1,0-1.35,0,.68.68,0,0,0,1.35,0Z"/><use xlink:href="#O" y="-404.62"/><use xlink:href="#O" y="-418.15"/><path d="M198 209.07a.68.68 0 1 0-.68.68.68.68 0 0 0 .68-.68z"/><use xlink:href="#O" y="-445.2"/><path d="M198,182a.68.68,0,1,0-1.35,0,.68.68,0,0,0,1.35,0Z"/><use xlink:href="#O" y="-472.25"/><use xlink:href="#Q" y="-323.47"/><path d="M211.65 303.76a.79.79 0 1 0-1.58 0 .79.79 0 0 0 1.58 0zm0-13.53a.79.79 0 0 0-1.58 0 .79.79 0 0 0 1.58 0zm0-13.53a.79.79 0 1 0-.79.79.8.8 0 0 0 .79-.79zm0-13.52a.79.79 0 0 0-1.58 0 .79.79 0 0 0 1.58 0z"/><use xlink:href="#Q" y="-391.1"/><path d="M211.65,236.13a.79.79,0,1,0-1.58,0,.79.79,0,0,0,1.58,0Z"/><use xlink:href="#Q" y="-418.15"/><path d="M211.65 209.07a.79.79 0 0 0-1.58 0 .79.79 0 0 0 1.58 0zm0-13.52a.79.79 0 0 0-1.58 0 .79.79 0 0 0 1.58 0z"/><use xlink:href="#Q" y="-458.75"/><path d="M211.65,168.5a.79.79,0,1,0-1.58,0,.79.79,0,0,0,1.58,0Z"/><use xlink:href="#R" y="-323.47"/><use xlink:href="#CH"/><use xlink:href="#R" y="-350.52"/><use xlink:href="#R" y="-364.05"/><use xlink:href="#CH" y="-40.58"/><use xlink:href="#R" y="-391.1"/><use xlink:href="#CH" y="-67.63"/><use xlink:href="#R" y="-418.15"/><use xlink:href="#R" y="-431.68"/><use xlink:href="#R" y="-445.2"/><use xlink:href="#R" y="-458.75"/><use xlink:href="#CH" y="-135.26"/><use xlink:href="#S" y="-323.47"/><use xlink:href="#S" y="-336.99"/><use xlink:href="#S" y="-350.52"/><use xlink:href="#S" y="-364.05"/><use xlink:href="#S" y="-377.57"/><use xlink:href="#S" y="-391.1"/><use xlink:href="#S" y="-404.62"/><use xlink:href="#S" y="-418.15"/><use xlink:href="#S" y="-431.68"/><use xlink:href="#S" y="-445.2"/><use xlink:href="#S" y="-458.75"/><use xlink:href="#S" y="-472.25"/><use xlink:href="#T" y="-323.47"/><path d="M252.56,303.76a1.13,1.13,0,1,0-2.25,0,1.13,1.13,0,0,0,2.25,0Z"/><use xlink:href="#T" y="-350.52"/><path d="M252.56,276.7a1.13,1.13,0,0,0-2.25,0,1.13,1.13,0,1,0,2.25,0Z"/><use xlink:href="#U" y="-364.04"/><path d="M252.56,249.65a1.13,1.13,0,0,0-2.25,0,1.13,1.13,0,1,0,2.25,0Z"/><use xlink:href="#U" y="-391.09"/><use xlink:href="#T" y="-418.15"/><path d="M252.56,209.07a1.13,1.13,0,0,0-2.25,0,1.13,1.13,0,1,0,2.25,0Z"/><use xlink:href="#U" y="-431.67"/><use xlink:href="#U" y="-445.22"/><use xlink:href="#U" y="-458.72"/><use xlink:href="#W" y="-309.94"/><path d="M266.2,303.76a1.24,1.24,0,1,0-2.47,0,1.24,1.24,0,0,0,2.47,0Z"/><use xlink:href="#X" y="-323.47"/><use xlink:href="#W" y="-350.52"/><use xlink:href="#CI"/><use xlink:href="#W" y="-377.57"/><use xlink:href="#CI" y="-27.05"/><use xlink:href="#X" y="-391.1"/><use xlink:href="#W" y="-418.15"/><use xlink:href="#CI" y="-67.63"/><path d="M266.2,182a1.24,1.24,0,1,0-1.24,1.24A1.24,1.24,0,0,0,266.2,182Z"/><use xlink:href="#CI" y="-94.68"/><use xlink:href="#Y" y="-323.47"/><use xlink:href="#Z" y="-323.46"/><use xlink:href="#Y" y="-350.52"/><use xlink:href="#Z" y="-350.52"/><use xlink:href="#Y" y="-377.57"/><use xlink:href="#Y" y="-391.1"/><use xlink:href="#Z" y="-391.09"/><use xlink:href="#Y" y="-418.15"/><use xlink:href="#Z" y="-418.15"/><use xlink:href="#Y" y="-445.2"/><use xlink:href="#Z" y="-445.22"/><use xlink:href="#Z" y="-458.72"/><use xlink:href="#b" y="-309.94"/><use xlink:href="#a" y="-336.99"/><use xlink:href="#b" y="-336.99"/><use xlink:href="#d" y="-309.94"/><use xlink:href="#a" y="-377.57"/><use xlink:href="#b" y="-377.57"/><use xlink:href="#a" y="-404.62"/><use xlink:href="#b" y="-404.62"/><use xlink:href="#d" y="-377.57"/><path d="M293.48 195.55A1.47 1.47 0 1 0 292 197a1.47 1.47 0 0 0 1.48-1.45z"/><use xlink:href="#d" y="-404.64"/><path d="M293.48 168.5A1.47 1.47 0 1 0 292 170a1.47 1.47 0 0 0 1.48-1.5z"/><use xlink:href="#f" y="-309.94"/><path d="M307.08 303.76a1.54 1.54 0 1 0-1.54 1.53 1.53 1.53 0 0 0 1.54-1.53z"/><use xlink:href="#f" y="-336.99"/><use xlink:href="#g" y="-309.94"/><use xlink:href="#g" y="-323.46"/><use xlink:href="#f" y="-377.57"/><path d="M307.08 236.13a1.54 1.54 0 1 0-1.54 1.53 1.53 1.53 0 0 0 1.54-1.53z"/><use xlink:href="#f" y="-404.62"/><use xlink:href="#g" y="-377.57"/><use xlink:href="#f" y="-431.67"/><use xlink:href="#f" y="-445.22"/><use xlink:href="#g" y="-418.14"/><use xlink:href="#h" y="-323.47"/><use xlink:href="#h" y="-336.99"/><use xlink:href="#h" y="-350.52"/><use xlink:href="#h" y="-364.05"/><use xlink:href="#h" y="-377.57"/><use xlink:href="#h" y="-391.1"/><use xlink:href="#h" y="-404.62"/><use xlink:href="#h" y="-418.15"/><use xlink:href="#h" y="-431.68"/><use xlink:href="#h" y="-445.2"/><use xlink:href="#h" y="-458.75"/><use xlink:href="#h" y="-472.25"/><use xlink:href="#i" y="-323.47"/><use xlink:href="#i" y="-336.99"/><path d="M334.36 290.23a1.77 1.77 0 1 0-1.77 1.76 1.76 1.76 0 0 0 1.77-1.76z"/><use xlink:href="#i" y="-364.05"/><use xlink:href="#i" y="-377.57"/><use xlink:href="#i" y="-391.1"/><use xlink:href="#i" y="-404.62"/><path d="M334.36 222.6a1.77 1.77 0 1 0-1.77 1.76 1.76 1.76 0 0 0 1.77-1.76z"/><use xlink:href="#j" y="-404.63"/><use xlink:href="#i" y="-445.2"/><use xlink:href="#i" y="-458.75"/><use xlink:href="#i" y="-472.25"/><use xlink:href="#m" y="-282.89"/><use xlink:href="#k" y="-336.99"/><use xlink:href="#k" y="-350.52"/><path d="M348,276.7a1.88,1.88,0,1,0-1.87,1.88A1.87,1.87,0,0,0,348,276.7Z"/><use xlink:href="#k" y="-377.57"/><use xlink:href="#m" y="-350.52"/><use xlink:href="#k" y="-404.62"/><path d="M348,222.6a1.88,1.88,0,1,0-1.87,1.87A1.88,1.88,0,0,0,348,222.6Z"/><use xlink:href="#l" y="-418.15"/><use xlink:href="#k" y="-445.2"/><path d="M348 182a1.88 1.88 0 1 0-1.87 1.88A1.87 1.87 0 0 0 348 182zm0-13.5a1.88 1.88 0 1 0-1.87 1.87 1.88 1.88 0 0 0 1.87-1.87z"/><use xlink:href="#n" y="-323.47"/><use xlink:href="#n" y="-336.99"/><use xlink:href="#n" y="-350.52"/><use xlink:href="#n" y="-364.05"/><use xlink:href="#n" y="-377.57"/><use xlink:href="#n" y="-391.1"/><use xlink:href="#n" y="-404.62"/><use xlink:href="#n" y="-418.15"/><use xlink:href="#n" y="-431.68"/><use xlink:href="#n" y="-445.2"/><use xlink:href="#n" y="-458.75"/><use xlink:href="#n" y="-472.25"/><use xlink:href="#p" y="-309.94"/><use xlink:href="#o" y="-336.99"/><use xlink:href="#o" y="-350.52"/><use xlink:href="#p" y="-350.52"/><use xlink:href="#o" y="-377.57"/><use xlink:href="#p" y="-377.57"/><circle cx="373.17" cy="236.13" r="2.14"/><use xlink:href="#p" y="-404.62"/><use xlink:href="#p" y="-418.15"/><use xlink:href="#o" y="-445.2"/><use xlink:href="#p" y="-445.22"/><circle cx="373.17" cy="168.5" r="2.14"/><path d="M389 317.28a2.26 2.26 0 1 0-2.26 2.25 2.25 2.25 0 0 0 2.26-2.25zm0-13.52a2.26 2.26 0 1 0-2.26 2.24 2.26 2.26 0 0 0 2.26-2.24z"/><use xlink:href="#q" y="-336.99"/><path d="M389,276.7a2.26,2.26,0,1,0-2.26,2.25A2.26,2.26,0,0,0,389,276.7Z"/><use xlink:href="#q" y="-364.04"/><use xlink:href="#q" y="-377.57"/><use xlink:href="#q" y="-391.09"/><path d="M389,222.6a2.26,2.26,0,1,0-2.26,2.25A2.25,2.25,0,0,0,389,222.6Z"/><use xlink:href="#q" y="-418.15"/><use xlink:href="#q" y="-431.67"/><path d="M389 182a2.26 2.26 0 1 0-2.26 2.25A2.26 2.26 0 0 0 389 182zm0-13.5a2.26 2.26 0 1 0-2.26 2.25 2.26 2.26 0 0 0 2.26-2.25z"/><use xlink:href="#t" y="-282.89"/><use xlink:href="#r" y="-336.99"/><path d="M402.55 290.23a2.33 2.33 0 1 0-2.33 2.32 2.34 2.34 0 0 0 2.33-2.32z"/><use xlink:href="#t" y="-323.47"/><use xlink:href="#r" y="-377.57"/><use xlink:href="#t" y="-350.52"/><use xlink:href="#r" y="-404.62"/><path d="M402.55 222.6a2.33 2.33 0 1 0-2.33 2.32 2.34 2.34 0 0 0 2.33-2.32z"/><use xlink:href="#s" y="-404.63"/><use xlink:href="#r" y="-445.2"/><use xlink:href="#t" y="-418.17"/><use xlink:href="#r" y="-472.25"/><use xlink:href="#u" y="-323.47"/><path d="M416.18 303.76a2.44 2.44 0 1 0-2.43 2.43 2.44 2.44 0 0 0 2.43-2.43z"/><use xlink:href="#CJ"/><use xlink:href="#v" y="-350.52"/><use xlink:href="#CJ" y="-27.05"/><use xlink:href="#u" y="-391.1"/><path d="M416.18 236.13a2.44 2.44 0 1 0-2.43 2.43 2.44 2.44 0 0 0 2.43-2.43z"/><use xlink:href="#CJ" y="-67.63"/><use xlink:href="#v" y="-418.15"/><use xlink:href="#CJ" y="-94.68"/><use xlink:href="#u" y="-458.75"/><use xlink:href="#CJ" y="-121.73"/><use xlink:href="#w" y="-323.47"/><path d="M429.82 303.76a2.55 2.55 0 1 0-2.55 2.54 2.56 2.56 0 0 0 2.55-2.54z"/><use xlink:href="#w" y="-350.52"/><use xlink:href="#w" y="-364.05"/><use xlink:href="#w" y="-377.57"/><use xlink:href="#w" y="-391.1"/><path d="M429.82 236.13a2.55 2.55 0 1 0-2.55 2.54 2.55 2.55 0 0 0 2.55-2.54z"/><use xlink:href="#w" y="-418.15"/><use xlink:href="#w" y="-431.68"/><use xlink:href="#w" y="-445.2"/><use xlink:href="#w" y="-458.75"/><path d="M429.82 168.5a2.55 2.55 0 1 0-2.55 2.54 2.56 2.56 0 0 0 2.55-2.54z"/><use xlink:href="#x" y="-323.47"/><use xlink:href="#x" y="-336.99"/><use xlink:href="#x" y="-350.52"/><use xlink:href="#x" y="-364.05"/><use xlink:href="#x" y="-377.57"/><use xlink:href="#x" y="-391.1"/><use xlink:href="#x" y="-404.62"/><use xlink:href="#x" y="-418.15"/><use xlink:href="#y" y="-404.63"/><use xlink:href="#x" y="-445.2"/><use xlink:href="#x" y="-458.75"/><use xlink:href="#x" y="-472.25"/><use xlink:href="#AA" y="-296.42"/><use xlink:href="#z" y="-336.99"/><use xlink:href="#z" y="-350.52"/><use xlink:href="#AA" y="-337"/><use xlink:href="#z" y="-377.57"/><use xlink:href="#AA" y="-364.05"/><use xlink:href="#z" y="-404.62"/><use xlink:href="#z" y="-418.15"/><use xlink:href="#AA" y="-404.63"/><use xlink:href="#z" y="-445.2"/><path d="M457.1,182a2.78,2.78,0,1,0-2.77,2.78A2.77,2.77,0,0,0,457.1,182Z"/><use xlink:href="#z" y="-472.25"/><use xlink:href="#AD" y="-309.94"/><use xlink:href="#AC" y="-336.99"/><use xlink:href="#AD" y="-336.99"/><use xlink:href="#AD" y="-350.52"/><use xlink:href="#AD" y="-364.04"/><use xlink:href="#AD" y="-377.57"/><use xlink:href="#AC" y="-404.62"/><use xlink:href="#AD" y="-404.62"/><use xlink:href="#AE" y="-404.63"/><use xlink:href="#AD" y="-431.67"/><use xlink:href="#AD" y="-445.22"/><use xlink:href="#AC" y="-472.25"/><use xlink:href="#AF" y="-323.47"/><use xlink:href="#AF" y="-336.99"/><use xlink:href="#AF" y="-350.52"/><use xlink:href="#AF" y="-364.05"/><use xlink:href="#AF" y="-377.57"/><use xlink:href="#AF" y="-391.1"/><use xlink:href="#AF" y="-404.62"/><use xlink:href="#AF" y="-418.15"/><use xlink:href="#AF" y="-431.68"/><use xlink:href="#AF" y="-445.2"/><use xlink:href="#AF" y="-458.75"/><use xlink:href="#AF" y="-472.25"/><use xlink:href="#AH" y="-309.94"/><use xlink:href="#AH" y="-323.46"/><use xlink:href="#AH" y="-336.99"/><path d="M498,276.7a3.11,3.11,0,1,0-3.11,3.11A3.11,3.11,0,0,0,498,276.7Z"/><use xlink:href="#AH" y="-364.04"/><use xlink:href="#AH" y="-377.57"/><use xlink:href="#AH" y="-391.09"/><path d="M498,222.6a3.11,3.11,0,1,0-3.11,3.11A3.11,3.11,0,0,0,498,222.6Z"/><use xlink:href="#AI" y="-404.63"/><use xlink:href="#AH" y="-431.67"/><path d="M498 182a3.11 3.11 0 1 0-3.11 3.11A3.11 3.11 0 0 0 498 182zm0-13.5a3.11 3.11 0 1 0-3.11 3.11 3.11 3.11 0 0 0 3.11-3.11z"/><use xlink:href="#CK"/><use xlink:href="#CK" y="-13.52"/><use xlink:href="#AJ" y="-350.52"/><use xlink:href="#AK" y="-350.52"/><use xlink:href="#CK" y="-54.1"/><use xlink:href="#AK" y="-377.57"/><use xlink:href="#CK" y="-81.15"/><use xlink:href="#AJ" y="-418.15"/><use xlink:href="#AK" y="-418.15"/><use xlink:href="#CK" y="-121.73"/><use xlink:href="#AK" y="-445.22"/><use xlink:href="#CK" y="-148.78"/><use xlink:href="#AM" y="-309.94"/><use xlink:href="#CL"/><use xlink:href="#AL" y="-350.52"/><path d="M525.3 276.7A3.34 3.34 0 1 0 522 280a3.34 3.34 0 0 0 3.29-3.3z"/><use xlink:href="#AL" y="-377.57"/><path d="M525.3 249.65A3.34 3.34 0 1 0 522 253a3.34 3.34 0 0 0 3.29-3.35z"/><use xlink:href="#CL" y="-67.63"/><use xlink:href="#AM" y="-404.62"/><use xlink:href="#AM" y="-418.15"/><use xlink:href="#AL" y="-445.2"/><use xlink:href="#AM" y="-445.22"/><use xlink:href="#CL" y="-135.26"/><use xlink:href="#AO" y="-309.94"/><path d="M538.93 303.76a3.45 3.45 0 1 0-3.45 3.44 3.45 3.45 0 0 0 3.45-3.44z"/><use xlink:href="#AN" y="-350.52"/><use xlink:href="#AO" y="-350.52"/><use xlink:href="#AO" y="-364.04"/><use xlink:href="#AO" y="-377.57"/><path d="M538.93 236.13a3.45 3.45 0 1 0-3.45 3.44 3.45 3.45 0 0 0 3.45-3.44z"/><use xlink:href="#AN" y="-418.15"/><use xlink:href="#AO" y="-418.15"/><use xlink:href="#AN" y="-445.2"/><use xlink:href="#AO" y="-445.22"/><use xlink:href="#AO" y="-458.72"/><use xlink:href="#AT" y="-282.89"/><use xlink:href="#AQ" y="-336.99"/><use xlink:href="#AQ" y="-350.52"/><use xlink:href="#AT" y="-323.47"/><use xlink:href="#AQ" y="-377.57"/><use xlink:href="#AT" y="-350.52"/><use xlink:href="#AQ" y="-404.62"/><use xlink:href="#AQ" y="-418.15"/><use xlink:href="#AT" y="-391.1"/><use xlink:href="#AQ" y="-445.2"/><use xlink:href="#AT" y="-418.17"/><use xlink:href="#AQ" y="-472.25"/><use xlink:href="#AU" y="-323.47"/><use xlink:href="#AU" y="-336.99"/><use xlink:href="#AU" y="-350.52"/><use xlink:href="#AV" y="-350.52"/><use xlink:href="#AU" y="-377.57"/><use xlink:href="#AU" y="-391.1"/><use xlink:href="#AU" y="-404.62"/><use xlink:href="#AU" y="-418.15"/><use xlink:href="#AV" y="-418.15"/><use xlink:href="#AU" y="-445.2"/><use xlink:href="#AW" y="-418.17"/><use xlink:href="#AU" y="-472.25"/><use xlink:href="#AX" y="-323.47"/><use xlink:href="#CM"/><use xlink:href="#AX" y="-350.52"/><use xlink:href="#AX" y="-364.05"/><use xlink:href="#CM" y="-40.58"/><use xlink:href="#AX" y="-391.1"/><use xlink:href="#CM" y="-67.63"/><use xlink:href="#AX" y="-418.15"/><use xlink:href="#AX" y="-431.68"/><path d="M579.8 195.55a3.75 3.75 0 1 0-3.75 3.75 3.74 3.74 0 0 0 3.75-3.75z"/><use xlink:href="#AX" y="-458.75"/><use xlink:href="#CM" y="-135.26"/><use xlink:href="#CN"/><use xlink:href="#CN" y="-13.52"/><use xlink:href="#CN" y="-27.05"/><use xlink:href="#AY" y="-364.05"/><use xlink:href="#CN" y="-54.1"/><use xlink:href="#AY" y="-391.1"/><use xlink:href="#CN" y="-81.15"/><use xlink:href="#CN" y="-94.68"/><use xlink:href="#AZ" y="-418.15"/><use xlink:href="#CN" y="-121.73"/><use xlink:href="#AY" y="-458.75"/><use xlink:href="#CN" y="-148.78"/><use xlink:href="#Aa" y="-323.47"/><use xlink:href="#Aa" y="-336.99"/><use xlink:href="#Aa" y="-350.52"/><use xlink:href="#Aa" y="-364.05"/><use xlink:href="#Aa" y="-377.57"/><use xlink:href="#Aa" y="-391.1"/><use xlink:href="#Aa" y="-404.62"/><use xlink:href="#Aa" y="-418.15"/><use xlink:href="#Aa" y="-431.68"/><use xlink:href="#Aa" y="-445.2"/><use xlink:href="#Aa" y="-458.75"/><use xlink:href="#Aa" y="-472.25"/><use xlink:href="#Ab" y="-323.47"/><use xlink:href="#CO"/><use xlink:href="#CO" y="-13.53"/><use xlink:href="#Ab" y="-364.05"/><use xlink:href="#CO" y="-40.58"/><use xlink:href="#Ab" y="-391.1"/><use xlink:href="#CO" y="-67.63"/><use xlink:href="#Ab" y="-418.15"/><use xlink:href="#Ab" y="-431.68"/><use xlink:href="#CO" y="-108.21"/><use xlink:href="#Ab" y="-458.75"/><use xlink:href="#CO" y="-135.26"/><use xlink:href="#Ad" y="-323.47"/><path d="M634.36 303.76a4.2 4.2 0 1 0-4.2 4.19 4.2 4.2 0 0 0 4.2-4.19z"/><use xlink:href="#Ad" y="-350.52"/><use xlink:href="#Ad" y="-364.05"/><use xlink:href="#Ad" y="-377.57"/><use xlink:href="#Ad" y="-391.1"/><path d="M634.36 236.13a4.2 4.2 0 1 0-4.2 4.19 4.2 4.2 0 0 0 4.2-4.19z"/><use xlink:href="#Ad" y="-418.15"/><use xlink:href="#Ad" y="-431.68"/><use xlink:href="#Ad" y="-445.2"/><use xlink:href="#Ad" y="-458.75"/><path d="M634.36 168.5a4.2 4.2 0 1 0-4.2 4.2 4.21 4.21 0 0 0 4.2-4.2z"/><use xlink:href="#Ae" y="-323.47"/><use xlink:href="#Ae" y="-336.99"/><path d="M648 290.23a4.31 4.31 0 1 0-4.31 4.31 4.32 4.32 0 0 0 4.31-4.31zm0-13.53a4.31 4.31 0 1 0-4.31 4.32 4.31 4.31 0 0 0 4.31-4.32z"/><use xlink:href="#Ae" y="-377.57"/><use xlink:href="#Ae" y="-391.1"/><use xlink:href="#Ae" y="-404.62"/><path d="M648,222.6a4.31,4.31,0,1,0-4.31,4.31A4.32,4.32,0,0,0,648,222.6Z"/><use xlink:href="#Af" y="-404.63"/><path d="M648 195.55a4.31 4.31 0 1 0-4.31 4.31 4.32 4.32 0 0 0 4.31-4.31zm0-13.55a4.31 4.31 0 1 0-4.31 4.31A4.31 4.31 0 0 0 648 182zm0-13.5a4.31 4.31 0 1 0-4.31 4.31 4.32 4.32 0 0 0 4.31-4.31z"/><use xlink:href="#Ag" y="-323.47"/><path d="M531.78 20.78a0 0 0 0 0-.08 0zm0 13.52a0 0 0 0 0 .08 0s-.08-.02-.08 0z"/><use xlink:href="#Ag" y="-282.89"/><path d="M531.78 61.36a0 0 0 0 0-.08 0z"/><use xlink:href="#Ag" y="-255.84"/><path d="M531.78 88.4a0 0 0 0 0-.08 0zm0 13.53a0 0 0 0 0 .08 0s-.08-.02-.08 0z"/><use xlink:href="#Ag" y="-215.26"/><path d="M531.78 129a0 0 0 0 0-.08 0z"/><use xlink:href="#Ag" y="-188.22"/><path d="M531.78 156a0 0 0 0 0-.08 0z"/><use xlink:href="#Ah" y="-323.47"/><use xlink:href="#Ah" y="-309.94"/><use xlink:href="#Ah" y="-296.42"/><use xlink:href="#Ah" y="-282.89"/><path d="M518.15 61.36a.14.14 0 0 0 .15.14.15.15 0 0 0 .15-.14.15.15 0 0 0-.15-.15.14.14 0 0 0-.15.15z"/><use xlink:href="#Ah" y="-255.84"/><use xlink:href="#Ah" y="-242.32"/><use xlink:href="#Ah" y="-228.79"/><use xlink:href="#Ah" y="-215.26"/><path d="M518.15 129a.14.14 0 0 0 .15.14.15.15 0 0 0 .15-.14.15.15 0 0 0-.15-.15.14.14 0 0 0-.15.15z"/><use xlink:href="#Ah" y="-188.22"/><use xlink:href="#Ai" y="-188.25"/><path d="M504.55 7.25a.22.22 0 1 0 .44 0 .22.22 0 0 0-.44 0zm0 13.53a.22.22 0 0 0 .44 0 .22.22 0 1 0-.44 0zm0 13.52a.22.22 0 1 0 .44 0 .22.22 0 0 0-.44 0zm0 13.53a.22.22 0 1 0 .44 0 .22.22 0 0 0-.44 0zm0 13.53a.22.22 0 0 0 .44 0 .22.22 0 1 0-.44 0z"/><circle cx="504.77" cy="74.88" r=".22"/><circle cx="504.77" cy="88.41" r=".22"/><path d="M504.55 101.93a.22.22 0 1 0 .44 0 .22.22 0 1 0-.44 0zm0 13.53a.22.22 0 1 0 .44 0 .22.22 0 1 0-.44 0zm0 13.54a.22.22 0 0 0 .44 0 .22.22 0 1 0-.44 0z"/><circle cx="504.77" cy="142.51" r=".22"/><path d="M504.55,156a.22.22,0,0,0,.44,0,.22.22,0,1,0-.44,0Z"/><use xlink:href="#Ak" y="-364.05"/><use xlink:href="#Aj" y="-309.94"/><path d="M490.9 34.3a.34.34 0 1 0 .67 0 .34.34 0 0 0-.67 0z"/><use xlink:href="#Ak" y="-323.47"/><use xlink:href="#Aj" y="-269.36"/><use xlink:href="#Ak" y="-296.42"/><use xlink:href="#Aj" y="-242.32"/><path d="M490.9 101.93a.34.34 0 1 0 .67 0 .34.34 0 0 0-.67 0z"/><use xlink:href="#Ak" y="-255.84"/><use xlink:href="#Aj" y="-201.72"/><use xlink:href="#Aj" y="-188.22"/><use xlink:href="#Aj" y="-174.72"/><use xlink:href="#Al" y="-323.47"/><circle cx="477.72" cy="20.78" r=".45"/><circle cx="477.72" cy="34.3" r=".45"/><use xlink:href="#Al" y="-282.89"/><circle cx="477.72" cy="61.36" r=".45"/><use xlink:href="#Al" y="-255.84"/><circle cx="477.72" cy="88.41" r=".45"/><circle cx="477.72" cy="101.93" r=".45"/><use xlink:href="#Al" y="-215.26"/><use xlink:href="#Al" y="-201.72"/><use xlink:href="#Al" y="-188.22"/><use xlink:href="#Al" y="-174.72"/><use xlink:href="#Ap" y="-377.57"/><use xlink:href="#Ao" y="-350.52"/><use xlink:href="#Am" y="-296.42"/><use xlink:href="#Am" y="-282.89"/><path d="M463.63 61.36a.57.57 0 0 0 .56.56.57.57 0 1 0 0-1.13.57.57 0 0 0-.56.57z"/><use xlink:href="#Am" y="-255.84"/><use xlink:href="#Am" y="-242.32"/><use xlink:href="#Am" y="-228.79"/><use xlink:href="#Am" y="-215.26"/><path d="M463.63 129a.57.57 0 0 0 .56.56.57.57 0 1 0 0-1.13.57.57 0 0 0-.56.57z"/><use xlink:href="#Am" y="-188.22"/><use xlink:href="#Am" y="-174.72"/><path d="M450,7.25a.68.68,0,0,0,.68.68.68.68,0,1,0-.68-.68Z"/><use xlink:href="#Ar" y="-323.47"/><path d="M450,34.3a.68.68,0,0,0,.68.68.68.68,0,1,0-.68-.68Z"/><use xlink:href="#Aq" y="-282.89"/><use xlink:href="#Ar" y="-282.89"/><use xlink:href="#CP"/><use xlink:href="#Aq" y="-242.32"/><use xlink:href="#CP" y="27.05"/><use xlink:href="#Aq" y="-215.26"/><use xlink:href="#Ar" y="-215.25"/><use xlink:href="#CP" y="67.62"/><use xlink:href="#Ar" y="-188.25"/><use xlink:href="#As" y="-337"/><path d="M436.35,20.78a.79.79,0,0,0,1.58,0,.79.79,0,0,0-1.58,0Z"/><use xlink:href="#As" y="-309.95"/><path d="M436.35,47.83a.79.79,0,0,0,1.58,0,.79.79,0,0,0-1.58,0Z"/><use xlink:href="#As" y="-282.89"/><use xlink:href="#As" y="-269.37"/><use xlink:href="#As" y="-255.85"/><path d="M436.35 101.93a.79.79 0 0 0 1.58 0 .79.79 0 0 0-1.58 0zm0 13.53a.79.79 0 0 0 1.58 0 .79.79 0 0 0-1.58 0z"/><use xlink:href="#As" y="-215.25"/><use xlink:href="#As" y="-201.75"/><path d="M436.35,156a.79.79,0,1,0,1.58,0,.79.79,0,0,0-1.58,0Z"/><use xlink:href="#At" y="-323.47"/><use xlink:href="#At" y="-309.94"/><path d="M422.72,34.3a.9.9,0,0,0,1.8,0,.9.9,0,1,0-1.8,0Z"/><use xlink:href="#At" y="-282.89"/><path d="M422.72 61.36a.9.9 0 1 0 .9-.91.9.9 0 0 0-.9.91z"/><use xlink:href="#At" y="-255.84"/><use xlink:href="#At" y="-242.32"/><use xlink:href="#At" y="-228.79"/><use xlink:href="#At" y="-215.26"/><path d="M422.72 129a.9.9 0 1 0 .9-.91.9.9 0 0 0-.9.91z"/><use xlink:href="#At" y="-188.22"/><use xlink:href="#At" y="-174.72"/><use xlink:href="#Au" y="-323.47"/><use xlink:href="#Au" y="-309.94"/><use xlink:href="#Au" y="-296.42"/><use xlink:href="#Au" y="-282.89"/><use xlink:href="#Au" y="-269.36"/><use xlink:href="#Au" y="-255.84"/><use xlink:href="#Au" y="-242.32"/><use xlink:href="#Au" y="-228.79"/><use xlink:href="#Au" y="-215.26"/><use xlink:href="#Au" y="-201.72"/><use xlink:href="#Au" y="-188.22"/><use xlink:href="#Au" y="-174.72"/><use xlink:href="#Ax" y="-350.52"/><use xlink:href="#Aw" y="-323.47"/><use xlink:href="#Av" y="-296.42"/><use xlink:href="#CQ"/><use xlink:href="#Aw" y="-282.89"/><use xlink:href="#Av" y="-255.84"/><use xlink:href="#Aw" y="-255.85"/><use xlink:href="#Av" y="-228.79"/><use xlink:href="#CQ" y="67.63"/><use xlink:href="#Aw" y="-215.25"/><use xlink:href="#CQ" y="94.67"/><use xlink:href="#Aw" y="-188.25"/><path d="M381.8 7.25A1.24 1.24 0 1 0 383 6a1.23 1.23 0 0 0-1.2 1.25z"/><use xlink:href="#CR"/><path d="M381.8 34.3a1.24 1.24 0 1 0 1.2-1.23 1.23 1.23 0 0 0-1.2 1.23z"/><use xlink:href="#CR" y="27.05"/><use xlink:href="#CR" y="40.58"/><path d="M381.8 74.88a1.24 1.24 0 1 0 1.2-1.24 1.23 1.23 0 0 0-1.2 1.24z"/><use xlink:href="#CR" y="67.62"/><use xlink:href="#Az" y="-269.37"/><use xlink:href="#Ay" y="-215.26"/><path d="M381.8,129a1.24,1.24,0,1,0,1.24-1.24A1.24,1.24,0,0,0,381.8,129Z"/><use xlink:href="#Az" y="-228.8"/><path d="M381.8 156a1.24 1.24 0 1 0 1.2-1.2 1.24 1.24 0 0 0-1.2 1.2z"/><use xlink:href="#BB" y="-337"/><use xlink:href="#BA" y="-309.94"/><path d="M368.16 34.3a1.35 1.35 0 1 0 1.35-1.3 1.34 1.34 0 0 0-1.35 1.3z"/><use xlink:href="#BB" y="-296.42"/><path d="M368.16 61.36a1.35 1.35 0 1 0 1.35-1.36 1.35 1.35 0 0 0-1.35 1.36z"/><use xlink:href="#BB" y="-269.37"/><use xlink:href="#BA" y="-242.32"/><use xlink:href="#BB" y="-242.32"/><use xlink:href="#BA" y="-215.26"/><path d="M368.16 129a1.35 1.35 0 1 0 1.35-1.36 1.35 1.35 0 0 0-1.35 1.36z"/><use xlink:href="#BB" y="-201.75"/><use xlink:href="#BA" y="-174.72"/><path d="M354.52 7.25A1.47 1.47 0 1 0 356 5.79a1.46 1.46 0 0 0-1.48 1.46zm0 13.53a1.47 1.47 0 1 0 1.48-1.47 1.46 1.46 0 0 0-1.48 1.47zm0 13.52a1.47 1.47 0 1 0 1.48-1.46 1.47 1.47 0 0 0-1.48 1.46zm0 13.53a1.47 1.47 0 1 0 1.48-1.46 1.46 1.46 0 0 0-1.48 1.46zm0 13.53a1.47 1.47 0 1 0 1.48-1.47 1.47 1.47 0 0 0-1.48 1.47zm0 13.52a1.47 1.47 0 1 0 1.48-1.46 1.47 1.47 0 0 0-1.48 1.46zm0 13.52a1.47 1.47 0 1 0 1.48-1.47 1.46 1.46 0 0 0-1.48 1.47zm0 13.53a1.47 1.47 0 1 0 1.47-1.46 1.47 1.47 0 0 0-1.47 1.46zm0 13.53A1.47 1.47 0 1 0 356 114a1.46 1.46 0 0 0-1.48 1.46z"/><use xlink:href="#BD" y="-215.25"/><use xlink:href="#BC" y="-188.22"/><use xlink:href="#BD" y="-188.25"/><use xlink:href="#BE" y="-323.47"/><use xlink:href="#CS"/><use xlink:href="#BF" y="-350.52"/><use xlink:href="#BE" y="-282.89"/><use xlink:href="#CS" y="40.58"/><use xlink:href="#BE" y="-255.84"/><circle cx="342.46" cy="88.41" r="1.54"/><use xlink:href="#BF" y="-282.89"/><use xlink:href="#BE" y="-215.26"/><use xlink:href="#CS" y="108.22"/><use xlink:href="#BE" y="-188.22"/><use xlink:href="#CS" y="135.22"/><use xlink:href="#BG" y="-323.47"/><use xlink:href="#BG" y="-309.94"/><use xlink:href="#BG" y="-296.42"/><use xlink:href="#BG" y="-282.89"/><use xlink:href="#BG" y="-269.36"/><use xlink:href="#BG" y="-255.84"/><use xlink:href="#BG" y="-242.32"/><use xlink:href="#BG" y="-228.79"/><use xlink:href="#BG" y="-215.26"/><use xlink:href="#BG" y="-201.72"/><use xlink:href="#BG" y="-188.22"/><use xlink:href="#BG" y="-174.72"/><use xlink:href="#CT"/><path d="M313.64 20.78a1.77 1.77 0 1 0 1.77-1.78 1.77 1.77 0 0 0-1.77 1.78z"/><use xlink:href="#CT" y="27.05"/><use xlink:href="#CT" y="40.58"/><use xlink:href="#BI" y="-282.89"/><use xlink:href="#CT" y="67.63"/><use xlink:href="#BH" y="-242.32"/><use xlink:href="#CT" y="94.68"/><use xlink:href="#CT" y="108.21"/><use xlink:href="#BI" y="-215.25"/><use xlink:href="#CT" y="135.25"/><use xlink:href="#BH" y="-174.72"/><path d="M300 7.25a1.88 1.88 0 1 0 1.87-1.87A1.87 1.87 0 0 0 300 7.25zm0 13.53a1.88 1.88 0 1 0 1.87-1.88 1.87 1.87 0 0 0-1.87 1.88zm0 13.52a1.88 1.88 0 1 0 1.87-1.87A1.87 1.87 0 0 0 300 34.3zm0 13.53a1.88 1.88 0 1 0 1.88-1.83 1.86 1.86 0 0 0-1.88 1.83zm0 13.53a1.88 1.88 0 1 0 1.87-1.88 1.87 1.87 0 0 0-1.87 1.88z"/><circle cx="301.88" cy="74.88" r="1.88"/><circle cx="301.88" cy="88.41" r="1.88"/><path d="M300 101.93a1.88 1.88 0 1 0 1.87-1.87 1.87 1.87 0 0 0-1.87 1.87zm0 13.53a1.88 1.88 0 1 0 1.87-1.87 1.86 1.86 0 0 0-1.87 1.87zm0 13.54a1.88 1.88 0 1 0 1.87-1.88A1.87 1.87 0 0 0 300 129z"/><circle cx="301.88" cy="142.51" r="1.88"/><path d="M300,156a1.88,1.88,0,1,0,1.87-1.88A1.87,1.87,0,0,0,300,156Z"/><use xlink:href="#BK" y="-323.47"/><use xlink:href="#BK" y="-309.94"/><use xlink:href="#BK" y="-296.42"/><use xlink:href="#BK" y="-282.89"/><use xlink:href="#BK" y="-269.36"/><use xlink:href="#BK" y="-255.84"/><use xlink:href="#BK" y="-242.32"/><use xlink:href="#BK" y="-228.79"/><use xlink:href="#BK" y="-215.26"/><use xlink:href="#BK" y="-201.72"/><use xlink:href="#BK" y="-188.22"/><use xlink:href="#BK" y="-174.72"/><use xlink:href="#BL" y="-323.47"/><use xlink:href="#BM" y="-323.47"/><path d="M272.7 34.3a2.14 2.14 0 1 0 2.14-2.13 2.14 2.14 0 0 0-2.14 2.13z"/><use xlink:href="#BL" y="-282.89"/><use xlink:href="#BL" y="-269.36"/><use xlink:href="#BL" y="-255.84"/><use xlink:href="#BM" y="-255.85"/><path d="M272.7 101.93a2.14 2.14 0 1 0 2.14-2.13 2.14 2.14 0 0 0-2.14 2.13z"/><use xlink:href="#BL" y="-215.26"/><use xlink:href="#BL" y="-201.72"/><use xlink:href="#BL" y="-188.22"/><use xlink:href="#BM" y="-188.25"/><path d="M259.05 7.25A2.26 2.26 0 1 0 261.3 5a2.25 2.25 0 0 0-2.25 2.25z"/><use xlink:href="#BN" y="-309.94"/><use xlink:href="#BN" y="-296.42"/><use xlink:href="#BN" y="-282.89"/><use xlink:href="#BN" y="-269.36"/><use xlink:href="#BN" y="-255.84"/><use xlink:href="#BN" y="-242.32"/><use xlink:href="#BN" y="-228.79"/><use xlink:href="#BN" y="-215.26"/><path d="M259.05 129a2.26 2.26 0 1 0 2.25-2.26 2.24 2.24 0 0 0-2.25 2.26z"/><use xlink:href="#BN" y="-188.22"/><use xlink:href="#BN" y="-174.72"/><path d="M245.45 7.25a2.33 2.33 0 1 0 2.33-2.32 2.34 2.34 0 0 0-2.33 2.32z"/><use xlink:href="#BP" y="-309.94"/><path d="M245.45 34.3a2.33 2.33 0 1 0 2.33-2.3 2.33 2.33 0 0 0-2.33 2.3z"/><use xlink:href="#BP" y="-282.89"/><path d="M245.45 61.36a2.33 2.33 0 1 0 2.33-2.36 2.33 2.33 0 0 0-2.33 2.36z"/><use xlink:href="#BP" y="-255.84"/><use xlink:href="#BP" y="-242.32"/><use xlink:href="#BQ" y="-255.84"/><use xlink:href="#BP" y="-215.26"/><use xlink:href="#BP" y="-201.72"/><path d="M245.45 142.5a2.33 2.33 0 1 0 2.33-2.33 2.34 2.34 0 0 0-2.33 2.33z"/><use xlink:href="#BP" y="-174.72"/><use xlink:href="#BR" y="-323.47"/><use xlink:href="#BS" y="-445.22"/><use xlink:href="#BR" y="-296.42"/><use xlink:href="#BS" y="-418.17"/><use xlink:href="#BR" y="-269.36"/><use xlink:href="#BR" y="-255.84"/><path d="M231.82 88.4a2.44 2.44 0 1 0 2.43-2.41 2.44 2.44 0 0 0-2.43 2.41z"/><use xlink:href="#BR" y="-228.79"/><use xlink:href="#BS" y="-350.54"/><use xlink:href="#BR" y="-201.72"/><use xlink:href="#BR" y="-188.22"/><use xlink:href="#BS" y="-310"/><use xlink:href="#BT" y="-323.47"/><use xlink:href="#BT" y="-309.94"/><path d="M218.18 34.3a2.55 2.55 0 1 0 2.55-2.55 2.56 2.56 0 0 0-2.55 2.55z"/><use xlink:href="#BT" y="-282.89"/><use xlink:href="#BU" y="-418.14"/><use xlink:href="#BT" y="-255.84"/><use xlink:href="#BT" y="-242.32"/><use xlink:href="#BT" y="-228.79"/><use xlink:href="#BT" y="-215.26"/><use xlink:href="#BU" y="-350.5"/><use xlink:href="#BT" y="-188.22"/><use xlink:href="#BT" y="-174.72"/><use xlink:href="#BV" y="-323.47"/><use xlink:href="#BW" y="-323.47"/><use xlink:href="#CU"/><use xlink:href="#BV" y="-282.89"/><path d="M204.54 61.36a2.67 2.67 0 1 0 2.66-2.67 2.67 2.67 0 0 0-2.66 2.67z"/><use xlink:href="#CU" y="40.58"/><use xlink:href="#BW" y="-255.85"/><use xlink:href="#CU" y="67.63"/><use xlink:href="#BV" y="-215.26"/><path d="M204.54 129a2.67 2.67 0 1 0 2.66-2.67 2.67 2.67 0 0 0-2.66 2.67z"/><use xlink:href="#CU" y="108.2"/><use xlink:href="#BW" y="-188.25"/><use xlink:href="#BY" y="-337"/><use xlink:href="#BY" y="-323.47"/><use xlink:href="#BX" y="-296.42"/><path d="M190.9 47.83a2.78 2.78 0 1 0 2.77-2.78 2.78 2.78 0 0 0-2.77 2.78z"/><use xlink:href="#BY" y="-282.89"/><use xlink:href="#BZ" y="-282.89"/><use xlink:href="#BY" y="-255.85"/><use xlink:href="#BX" y="-228.79"/><use xlink:href="#BY" y="-228.79"/><path d="M190.9,129a2.78,2.78,0,1,0,2.77-2.78A2.77,2.77,0,0,0,190.9,129Z"/><use xlink:href="#BZ" y="-215.27"/><path d="M190.9,156a2.78,2.78,0,1,0,2.77-2.78A2.77,2.77,0,0,0,190.9,156Z"/><use xlink:href="#Ba" y="-323.47"/><use xlink:href="#Ba" y="-309.94"/><use xlink:href="#Ba" y="-296.42"/><use xlink:href="#Ba" y="-282.89"/><use xlink:href="#Bb" y="-282.89"/><use xlink:href="#Bc" y="-309.94"/><use xlink:href="#Ba" y="-242.32"/><use xlink:href="#Bc" y="-282.89"/><use xlink:href="#Ba" y="-215.26"/><use xlink:href="#Bb" y="-215.25"/><use xlink:href="#Ba" y="-188.22"/><use xlink:href="#Ba" y="-174.72"/><use xlink:href="#Bd" y="-323.47"/><use xlink:href="#Bd" y="-309.94"/><use xlink:href="#Bd" y="-296.42"/><use xlink:href="#Bd" y="-282.89"/><use xlink:href="#Bd" y="-269.36"/><use xlink:href="#Bd" y="-255.84"/><use xlink:href="#Bd" y="-242.32"/><use xlink:href="#Bd" y="-228.79"/><use xlink:href="#Bd" y="-215.26"/><use xlink:href="#Bd" y="-201.72"/><use xlink:href="#Bd" y="-188.22"/><use xlink:href="#Bd" y="-174.72"/><path d="M150 7.25a3.11 3.11 0 1 0 3.11-3.11A3.11 3.11 0 0 0 150 7.25zm0 13.53a3.11 3.11 0 1 0 3.11-3.12 3.11 3.11 0 0 0-3.11 3.12zm0 13.52a3.11 3.11 0 1 0 3.11-3.11A3.12 3.12 0 0 0 150 34.3zm0 13.53a3.11 3.11 0 1 0 3.11-3.11 3.11 3.11 0 0 0-3.11 3.11zm0 13.53a3.11 3.11 0 1 0 3.11-3.12 3.11 3.11 0 0 0-3.11 3.12zm0 13.52a3.11 3.11 0 1 0 3.11-3.11 3.11 3.11 0 0 0-3.11 3.11z"/><use xlink:href="#Bf" y="-255.85"/><use xlink:href="#Be" y="-228.79"/><use xlink:href="#Be" y="-215.26"/><path d="M150,129a3.11,3.11,0,1,0,3.11-3.12A3.11,3.11,0,0,0,150,129Z"/><use xlink:href="#Be" y="-188.22"/><path d="M150 156a3.11 3.11 0 1 0 3.11-3.12A3.11 3.11 0 0 0 150 156zM136.34 7.25A3.23 3.23 0 1 0 139.57 4a3.23 3.23 0 0 0-3.23 3.25z"/><use xlink:href="#Bh" y="-309.94"/><use xlink:href="#Bi" y="-323.47"/><use xlink:href="#Bi" y="-309.94"/><use xlink:href="#Bh" y="-269.36"/><use xlink:href="#Bi" y="-282.89"/><use xlink:href="#Bh" y="-242.32"/><use xlink:href="#Bi" y="-255.84"/><use xlink:href="#Bh" y="-215.26"/><use xlink:href="#Bh" y="-201.72"/><use xlink:href="#Bi" y="-215.27"/><use xlink:href="#Bh" y="-174.72"/><use xlink:href="#Bk" y="-377.57"/><use xlink:href="#Bk" y="-364.04"/><path d="M122.7 34.3a3.34 3.34 0 1 0 3.34-3.3 3.33 3.33 0 0 0-3.34 3.3z"/><use xlink:href="#Bj" y="-282.89"/><path d="M122.7 61.36a3.34 3.34 0 1 0 3.34-3.36 3.33 3.33 0 0 0-3.34 3.36z"/><use xlink:href="#Bk" y="-309.94"/><use xlink:href="#Bj" y="-242.32"/><path d="M122.7 101.93a3.34 3.34 0 1 0 3.34-3.33 3.33 3.33 0 0 0-3.34 3.33z"/><use xlink:href="#Bj" y="-215.26"/><use xlink:href="#Bk" y="-255.82"/><use xlink:href="#Bk" y="-242.32"/><use xlink:href="#Bj" y="-174.72"/><use xlink:href="#Bn" y="-350.52"/><use xlink:href="#Bl" y="-309.94"/><use xlink:href="#Bn" y="-323.47"/><use xlink:href="#Bn" y="-309.94"/><use xlink:href="#Bn" y="-296.41"/><use xlink:href="#Bn" y="-282.89"/><path d="M109.07 88.4a3.45 3.45 0 1 0 3.45-3.41 3.45 3.45 0 0 0-3.45 3.41z"/><use xlink:href="#Bn" y="-255.84"/><use xlink:href="#Bn" y="-242.31"/><use xlink:href="#Bn" y="-228.77"/><use xlink:href="#Bn" y="-215.27"/><use xlink:href="#Bl" y="-174.72"/><path d="M95.43 7.25A3.57 3.57 0 1 0 99 3.69a3.56 3.56 0 0 0-3.57 3.56zm0 13.53A3.57 3.57 0 1 0 99 17.21a3.56 3.56 0 0 0-3.57 3.57zm0 13.52A3.57 3.57 0 1 0 99 30.74a3.56 3.56 0 0 0-3.57 3.56zm0 13.53A3.57 3.57 0 1 0 99 44.27a3.56 3.56 0 0 0-3.57 3.56zm0 13.53A3.57 3.57 0 1 0 99 57.79a3.57 3.57 0 0 0-3.57 3.57zm0 13.52A3.57 3.57 0 1 0 99 71.32a3.56 3.56 0 0 0-3.57 3.56zm0 13.52A3.57 3.57 0 1 0 99 84.85a3.56 3.56 0 0 0-3.57 3.56zm0 13.53A3.57 3.57 0 1 0 99 98.37a3.56 3.56 0 0 0-3.57 3.56zm0 13.53A3.57 3.57 0 1 0 99 111.9a3.56 3.56 0 0 0-3.57 3.56zm0 13.54a3.57 3.57 0 1 0 3.57-3.58 3.57 3.57 0 0 0-3.57 3.58zm0 13.5A3.57 3.57 0 1 0 99 139a3.56 3.56 0 0 0-3.57 3.51zm0 13.5a3.57 3.57 0 1 0 3.57-3.52 3.56 3.56 0 0 0-3.57 3.52z"/><use xlink:href="#Bs" y="-377.57"/><use xlink:href="#Bq" y="-323.47"/><use xlink:href="#Bs" y="-350.52"/><use xlink:href="#Bq" y="-296.42"/><use xlink:href="#Bq" y="-282.89"/><use xlink:href="#Bs" y="-309.94"/><use xlink:href="#Bq" y="-255.85"/><use xlink:href="#Bs" y="-282.89"/><use xlink:href="#Bq" y="-228.79"/><use xlink:href="#Br" y="-228.77"/><use xlink:href="#Bs" y="-242.32"/><use xlink:href="#Bq" y="-188.25"/><use xlink:href="#Bu" y="-364.05"/><path d="M68.2 20.78A3.75 3.75 0 1 0 71.94 17a3.75 3.75 0 0 0-3.75 3.78zm0 13.52a3.75 3.75 0 1 0 3.75-3.75 3.74 3.74 0 0 0-3.75 3.75z"/><use xlink:href="#Bu" y="-323.47"/><use xlink:href="#Bt" y="-282.89"/><use xlink:href="#Bu" y="-296.42"/><use xlink:href="#Bu" y="-282.9"/><path d="M68.2 101.93a3.75 3.75 0 1 0 3.75-3.75 3.74 3.74 0 0 0-3.75 3.75z"/><use xlink:href="#Bu" y="-255.84"/><use xlink:href="#Bt" y="-215.25"/><use xlink:href="#Bu" y="-228.8"/><use xlink:href="#Bu" y="-215.3"/><use xlink:href="#Bv" y="-323.47"/><use xlink:href="#Bw" y="-323.47"/><use xlink:href="#Bx" y="-418.15"/><path d="M54.55 47.83A3.87 3.87 0 1 0 58.42 44a3.86 3.86 0 0 0-3.87 3.83z"/><use xlink:href="#Bw" y="-282.89"/><path d="M54.55 74.88A3.87 3.87 0 1 0 58.42 71a3.86 3.86 0 0 0-3.87 3.88z"/><use xlink:href="#Bw" y="-255.85"/><use xlink:href="#Bx" y="-350.52"/><use xlink:href="#Bv" y="-215.26"/><path d="M54.55,129a3.87,3.87,0,1,0,3.87-3.87A3.86,3.86,0,0,0,54.55,129Z"/><use xlink:href="#Bv" y="-188.22"/><path d="M54.55,156a3.87,3.87,0,1,0,3.87-3.87A3.86,3.86,0,0,0,54.55,156Z"/><use xlink:href="#By" y="-323.47"/><use xlink:href="#By" y="-309.94"/><use xlink:href="#By" y="-296.42"/><use xlink:href="#By" y="-282.89"/><use xlink:href="#By" y="-269.36"/><use xlink:href="#By" y="-255.84"/><use xlink:href="#By" y="-242.32"/><use xlink:href="#By" y="-228.79"/><use xlink:href="#By" y="-215.26"/><use xlink:href="#By" y="-201.72"/><use xlink:href="#By" y="-188.22"/><use xlink:href="#By" y="-174.72"/><use xlink:href="#Bz" y="-323.47"/><use xlink:href="#Bz" y="-309.94"/><use xlink:href="#Bz" y="-296.42"/><use xlink:href="#Bz" y="-282.89"/><use xlink:href="#CA" y="-282.89"/><use xlink:href="#Bz" y="-255.84"/><use xlink:href="#Bz" y="-242.32"/><use xlink:href="#Bz" y="-228.79"/><use xlink:href="#Bz" y="-215.26"/><path d="M27.28 129a4.09 4.09 0 1 0 4.08-4.1 4.08 4.08 0 0 0-4.08 4.1z"/><use xlink:href="#Bz" y="-188.22"/><path d="M27.28 156a4.09 4.09 0 1 0 4.08-4 4.09 4.09 0 0 0-4.08 4z"/><use xlink:href="#CB" y="-323.47"/><use xlink:href="#CB" y="-309.94"/><path d="M13.64 34.3a4.2 4.2 0 1 0 4.2-4.2 4.21 4.21 0 0 0-4.2 4.2z"/><use xlink:href="#CB" y="-282.89"/><path d="M13.64 61.36a4.2 4.2 0 1 0 4.2-4.21 4.2 4.2 0 0 0-4.2 4.21z"/><use xlink:href="#CB" y="-255.84"/><use xlink:href="#CB" y="-242.32"/><path d="M13.64 101.93a4.2 4.2 0 1 0 4.2-4.2 4.21 4.21 0 0 0-4.2 4.2z"/><use xlink:href="#CB" y="-215.26"/><path d="M13.64 129a4.2 4.2 0 1 0 4.2-4.21 4.2 4.2 0 0 0-4.2 4.21z"/><use xlink:href="#CB" y="-188.22"/><use xlink:href="#CB" y="-174.72"/><path d="M0 7.25a4.31 4.31 0 1 0 4.31-4.31A4.32 4.32 0 0 0 0 7.25zm0 13.53a4.31 4.31 0 1 0 4.31-4.32A4.31 4.31 0 0 0 0 20.78zM0 34.3A4.31 4.31 0 1 0 4.31 30 4.31 4.31 0 0 0 0 34.3zm0 13.53a4.31 4.31 0 1 0 4.31-4.32A4.31 4.31 0 0 0 0 47.83zm0 13.53A4.31 4.31 0 1 0 4.31 57 4.31 4.31 0 0 0 0 61.36zm0 13.52a4.31 4.31 0 1 0 4.31-4.31A4.32 4.32 0 0 0 0 74.88zM0 88.4a4.31 4.31 0 1 0 4.31-4.32A4.31 4.31 0 0 0 0 88.41zm0 13.53a4.31 4.31 0 1 0 4.31-4.31A4.31 4.31 0 0 0 0 101.93zm0 13.53a4.31 4.31 0 1 0 4.31-4.32A4.31 4.31 0 0 0 0 115.46zM0 129a4.31 4.31 0 1 0 4.31-4.32A4.31 4.31 0 0 0 0 129zm0 13.5a4.31 4.31 0 1 0 4.31-4.31A4.32 4.32 0 0 0 0 142.51zM0 156a4.31 4.31 0 1 0 4.31-4.32A4.31 4.31 0 0 0 0 156z"/></g><defs ><path id="B" d="M116.22 600.17a0 0 0 0 0-.08 0 0 0 0 0 0 .08 0 0 0 0 0 0 0 0z"/><path id="C" d="M116.22 573.12a0 0 0 0 0-.08 0s.08.02.08 0z"/><path id="D" d="M129.85 640.75a.15.15 0 1 0-.15.15.15.15 0 0 0 .15-.15z"/><path id="E" d="M129.85 613.7a.15.15 0 1 0-.3 0 .15.15 0 0 0 .15.15.14.14 0 0 0 .15-.15z"/><path id="F" d="M143.45 640.75a.22.22 0 0 0-.22-.23.22.22 0 0 0-.22.23.22.22 0 1 0 .44 0z"/><path id="G" d="M143.45 627.22a.23.23 0 0 0-.22-.23.22.22 0 0 0-.22.23.22.22 0 0 0 .22.23.22.22 0 0 0 .22-.23z"/><path id="H" d="M143.45 613.7a.22.22 0 0 0-.44 0 .22.22 0 0 0 .22.23.22.22 0 0 0 .22-.23z"/><path id="I" d="M143.45 600.17a.22.22 0 0 0-.22-.23.22.22 0 0 0-.22.23.22.22 0 0 0 .22.23.23.23 0 0 0 .22-.23z"/><path id="J" d="M157.1 640.75a.34.34 0 1 0-.67 0 .34.34 0 1 0 .67 0z"/><path id="K" d="M157.1 627.22a.34.34 0 1 0-.34.34.34.34 0 0 0 .34-.34z"/><path id="L" d="M170.73 640.75a.45.45 0 1 0-.45.45.45.45 0 0 0 .45-.45z"/><path id="M" d="M184.37 640.75a.56.56 0 1 0-.56.56.56.56 0 0 0 .56-.56z"/><path id="N" d="M184.37 627.22a.56.56 0 0 0-.56-.56.57.57 0 0 0-.57.56.58.58 0 0 0 .57.57.57.57 0 0 0 .56-.57z"/><path id="O" d="M198 640.75a.68.68 0 1 0-.68.67.67.67 0 0 0 .68-.67z"/><path id="P" d="M198 627.22a.68.68 0 1 0-.68.68.67.67 0 0 0 .68-.68z"/><path id="Q" d="M211.65 640.75a.79.79 0 1 0-.79.79.79.79 0 0 0 .79-.79z"/><path id="R" d="M225.3 640.75a.91.91 0 1 0-.9.9.9.9 0 0 0 .9-.9z"/><path id="S" d="M238.92 640.75a1 1 0 1 0-1 1 1 1 0 0 0 1-1z"/><path id="T" d="M252.56 640.75a1.13 1.13 0 1 0-1.12 1.12 1.13 1.13 0 0 0 1.12-1.12z"/><path id="U" d="M252.56 627.22a1.13 1.13 0 1 0-1.12 1.12 1.12 1.12 0 0 0 1.12-1.12z"/><path id="V" d="M252.56 613.7a1.13 1.13 0 1 0-1.12 1.13 1.12 1.12 0 0 0 1.12-1.13z"/><path id="W" d="M266.2 627.22a1.24 1.24 0 1 0-1.24 1.24 1.24 1.24 0 0 0 1.24-1.24z"/><path id="X" d="M266.2 613.7a1.24 1.24 0 1 0-1.24 1.24 1.23 1.23 0 0 0 1.24-1.24z"/><path id="Y" d="M279.84 640.75a1.35 1.35 0 1 0-1.35 1.35 1.34 1.34 0 0 0 1.35-1.35z"/><path id="Z" d="M279.84 627.22a1.35 1.35 0 1 0-1.35 1.35 1.35 1.35 0 0 0 1.35-1.35z"/><path id="a" d="M293.48 640.75a1.47 1.47 0 1 0-1.47 1.46 1.47 1.47 0 0 0 1.47-1.46z"/><path id="b" d="M293.48 627.22a1.47 1.47 0 1 0-1.47 1.46 1.46 1.46 0 0 0 1.47-1.46z"/><path id="c" d="M293.48 613.7a1.47 1.47 0 1 0-1.47 1.47 1.47 1.47 0 0 0 1.47-1.47z"/><path id="d" d="M293.48 586.64a1.47 1.47 0 1 0-1.47 1.47 1.46 1.46 0 0 0 1.47-1.47z"/><path id="e" d="M307.08 640.75a1.54 1.54 0 1 0-1.54 1.53 1.54 1.54 0 0 0 1.54-1.53z"/><path id="f" d="M307.08 627.22a1.54 1.54 0 1 0-1.54 1.54 1.54 1.54 0 0 0 1.54-1.54z"/><path id="g" d="M307.08 586.64a1.54 1.54 0 1 0-1.54 1.54 1.53 1.53 0 0 0 1.54-1.54z"/><path id="h" d="M320.72 640.75a1.66 1.66 0 1 0-1.65 1.65 1.65 1.65 0 0 0 1.65-1.65z"/><path id="i" d="M334.36 640.75a1.77 1.77 0 1 0-1.77 1.76 1.77 1.77 0 0 0 1.77-1.76z"/><path id="j" d="M334.36 613.7a1.77 1.77 0 1 0-1.77 1.77 1.77 1.77 0 0 0 1.77-1.77z"/><path id="k" d="M348 640.75a1.88 1.88 0 1 0-1.87 1.87 1.88 1.88 0 0 0 1.87-1.87z"/><path id="l" d="M348 627.22a1.88 1.88 0 1 0-1.87 1.88 1.87 1.87 0 0 0 1.87-1.88z"/><path id="m" d="M348 600.17a1.88 1.88 0 1 0-1.87 1.88 1.88 1.88 0 0 0 1.87-1.88z"/><path id="n" d="M361.63 640.75a2 2 0 1 0-2 2 2 2 0 0 0 2-2z"/><path id="o" d="M375.3 640.75a2.14 2.14 0 1 0-2.14 2.13 2.14 2.14 0 0 0 2.14-2.13z"/><path id="p" d="M375.3 627.22a2.14 2.14 0 1 0-2.14 2.14 2.14 2.14 0 0 0 2.14-2.14z"/><path id="q" d="M389 627.22a2.26 2.26 0 1 0-2.26 2.25 2.26 2.26 0 0 0 2.26-2.25z"/><path id="r" d="M402.55 640.75a2.33 2.33 0 1 0-2.33 2.32 2.33 2.33 0 0 0 2.33-2.32z"/><path id="s" d="M402.55 613.7a2.33 2.33 0 1 0-2.33 2.33 2.33 2.33 0 0 0 2.33-2.33z"/><path id="t" d="M402.55 600.17a2.33 2.33 0 1 0-2.33 2.33 2.34 2.34 0 0 0 2.33-2.33z"/><path id="u" d="M416.18 640.75a2.44 2.44 0 1 0-2.43 2.44 2.43 2.43 0 0 0 2.43-2.44z"/><path id="v" d="M416.18 627.22a2.44 2.44 0 1 0-2.43 2.44 2.44 2.44 0 0 0 2.43-2.44z"/><path id="w" d="M429.82 640.75a2.55 2.55 0 1 0-2.55 2.55 2.55 2.55 0 0 0 2.55-2.55z"/><path id="x" d="M443.46 640.75a2.67 2.67 0 1 0-2.66 2.66 2.66 2.66 0 0 0 2.66-2.66z"/><path id="y" d="M443.46 613.7a2.67 2.67 0 1 0-2.66 2.67 2.66 2.66 0 0 0 2.66-2.67z"/><path id="z" d="M457.1 640.75a2.78 2.78 0 1 0-2.77 2.77 2.77 2.77 0 0 0 2.77-2.77z"/><path id="AA" d="M457.1 613.7a2.78 2.78 0 1 0-2.77 2.78 2.77 2.77 0 0 0 2.77-2.78z"/><path id="AB" d="M457.1 600.17a2.78 2.78 0 1 0-2.77 2.77 2.78 2.78 0 0 0 2.77-2.77z"/><path id="AC" d="M470.74 640.75a2.89 2.89 0 1 0-2.89 2.88 2.89 2.89 0 0 0 2.89-2.88z"/><path id="AD" d="M470.74 627.22a2.89 2.89 0 1 0-2.89 2.89 2.89 2.89 0 0 0 2.89-2.89z"/><path id="AE" d="M470.74 613.7a2.89 2.89 0 1 0-2.89 2.89 2.88 2.88 0 0 0 2.89-2.89z"/><path id="AF" d="M484.38 640.75a3 3 0 1 0-3 3 3 3 0 0 0 3-3z"/><path id="AG" d="M498 640.75a3.11 3.11 0 1 0-3.11 3.11 3.12 3.12 0 0 0 3.11-3.11z"/><path id="AH" d="M498 627.22a3.11 3.11 0 1 0-3.11 3.11 3.11 3.11 0 0 0 3.11-3.11z"/><path id="AI" d="M498 613.7a3.11 3.11 0 1 0-3.11 3.12 3.11 3.11 0 0 0 3.11-3.12z"/><path id="AJ" d="M511.65 640.75a3.23 3.23 0 1 0-3.22 3.22 3.23 3.23 0 0 0 3.22-3.22z"/><path id="AK" d="M511.65 627.22a3.23 3.23 0 1 0-3.22 3.23 3.22 3.22 0 0 0 3.22-3.23z"/><path id="AL" d="M525.3 640.75a3.34 3.34 0 1 0-3.34 3.34 3.33 3.33 0 0 0 3.34-3.34z"/><path id="AM" d="M525.3 627.22a3.34 3.34 0 1 0-3.34 3.34 3.34 3.34 0 0 0 3.34-3.34z"/><path id="AN" d="M538.93 640.75a3.45 3.45 0 1 0-3.45 3.45 3.44 3.44 0 0 0 3.45-3.45z"/><path id="AO" d="M538.93 627.22a3.45 3.45 0 1 0-3.45 3.45 3.45 3.45 0 0 0 3.45-3.45z"/><path id="AP" d="M538.93 613.7a3.45 3.45 0 1 0-3.45 3.46 3.45 3.45 0 0 0 3.45-3.46z"/><path id="AQ" d="M552.57 640.75a3.57 3.57 0 1 0-3.56 3.56 3.57 3.57 0 0 0 3.56-3.56z"/><path id="AR" d="M552.57 627.22a3.57 3.57 0 1 0-3.56 3.57 3.56 3.56 0 0 0 3.56-3.57z"/><path id="AS" d="M552.57 613.7a3.57 3.57 0 1 0-3.56 3.57 3.57 3.57 0 0 0 3.56-3.57z"/><path id="AT" d="M552.57 600.17a3.57 3.57 0 1 0-3.56 3.56 3.56 3.56 0 0 0 3.56-3.56z"/><path id="AU" d="M566.2 640.75a3.68 3.68 0 1 0-3.68 3.67 3.68 3.68 0 0 0 3.68-3.67z"/><path id="AV" d="M566.2 627.22a3.68 3.68 0 1 0-3.68 3.68 3.67 3.67 0 0 0 3.68-3.68z"/><path id="AW" d="M566.2 600.17a3.68 3.68 0 1 0-3.68 3.68 3.68 3.68 0 0 0 3.68-3.68z"/><path id="AX" d="M579.8 640.75a3.75 3.75 0 1 0-3.75 3.75 3.75 3.75 0 0 0 3.75-3.75z"/><path id="AY" d="M593.45 640.75a3.87 3.87 0 1 0-3.87 3.86 3.86 3.86 0 0 0 3.87-3.86z"/><path id="AZ" d="M593.45 627.22a3.87 3.87 0 1 0-3.87 3.87 3.86 3.86 0 0 0 3.87-3.87z"/><path id="Aa" d="M607.1 640.75a4 4 0 1 0-4 4 4 4 0 0 0 4-4z"/><path id="Ab" d="M620.72 640.75a4.09 4.09 0 1 0-4.08 4.09 4.09 4.09 0 0 0 4.08-4.09z"/><path id="Ac" d="M620.72 613.7a4.09 4.09 0 1 0-4.08 4.09 4.08 4.08 0 0 0 4.08-4.09z"/><path id="Ad" d="M634.36 640.75a4.2 4.2 0 1 0-4.2 4.2 4.2 4.2 0 0 0 4.2-4.2z"/><path id="Ae" d="M648 640.75a4.31 4.31 0 1 0-4.31 4.31 4.31 4.31 0 0 0 4.31-4.31z"/><path id="Af" d="M648 613.7a4.31 4.31 0 1 0-4.31 4.32 4.31 4.31 0 0 0 4.31-4.32z"/><path id="Ag" d="M531.78 330.72a0 0 0 0 0 .08 0 0 0 0 0 0-.08 0 0 0 0 0 0 0 0z"/><path id="Ah" d="M518.15 330.72a.15.15 0 1 0 .15-.15.15.15 0 0 0-.15.15z"/><path id="Ai" d="M518.15 344.25a.15.15 0 0 0 .3 0 .15.15 0 0 0-.15-.15.14.14 0 0 0-.15.15z"/><path id="Aj" d="M490.9 330.72a.34.34 0 1 0 .34-.34.34.34 0 0 0-.34.34z"/><path id="Ak" d="M490.9 371.3a.34.34 0 1 0 .67 0 .34.34 0 1 0-.67 0z"/><path id="Al" d="M477.27 330.72a.45.45 0 1 0 .45-.45.45.45 0 0 0-.45.45z"/><path id="Am" d="M463.63 330.72a.56.56 0 1 0 .56-.56.56.56 0 0 0-.56.56z"/><path id="An" d="M463.63 344.25a.56.56 0 0 0 .56.56.57.57 0 1 0 0-1.13.56.56 0 0 0-.56.57z"/><path id="Ao" d="M463.63 371.3a.56.56 0 0 0 .56.56.57.57 0 0 0 .57-.56.58.58 0 0 0-.57-.57.57.57 0 0 0-.56.57z"/><path id="Ap" d="M463.63 384.82a.57.57 0 0 0 .56.57.58.58 0 0 0 .57-.57.57.57 0 0 0-.57-.56.56.56 0 0 0-.56.56z"/><path id="Aq" d="M450 330.72a.68.68 0 0 0 .68.67.67.67 0 0 0 .67-.67.68.68 0 0 0-.67-.68.69.69 0 0 0-.68.68z"/><path id="Ar" d="M450 344.25a.68.68 0 0 0 .68.67.68.68 0 0 0 0-1.35.68.68 0 0 0-.68.68z"/><path id="As" d="M436.35 344.25a.79.79 0 1 0 .79-.79.79.79 0 0 0-.79.79z"/><path id="At" d="M422.72 330.72a.9.9 0 1 0 .9-.9.9.9 0 0 0-.9.9z"/><path id="Au" d="M409.08 330.72a1 1 0 1 0 1-1 1 1 0 0 0-1 1z"/><path id="Av" d="M395.44 330.72a1.13 1.13 0 1 0 1.12-1.12 1.12 1.12 0 0 0-1.12 1.12z"/><path id="Aw" d="M395.44 344.25a1.13 1.13 0 1 0 1.12-1.13 1.12 1.12 0 0 0-1.12 1.13z"/><path id="Ax" d="M395.44 357.77a1.13 1.13 0 1 0 1.12-1.12 1.13 1.13 0 0 0-1.12 1.12z"/><path id="Ay" d="M381.8 330.72a1.24 1.24 0 1 0 1.24-1.24 1.24 1.24 0 0 0-1.24 1.24z"/><path id="Az" d="M381.8 371.3a1.24 1.24 0 1 0 1.24-1.24 1.23 1.23 0 0 0-1.24 1.24z"/><path id="BA" d="M368.16 330.72a1.35 1.35 0 1 0 1.35-1.35 1.35 1.35 0 0 0-1.35 1.35z"/><path id="BB" d="M368.16 344.25a1.35 1.35 0 1 0 1.35-1.35 1.34 1.34 0 0 0-1.35 1.35z"/><path id="BC" d="M354.52 330.72a1.47 1.47 0 1 0 1.47-1.46 1.46 1.46 0 0 0-1.47 1.46z"/><path id="BD" d="M354.52 344.25a1.47 1.47 0 1 0 1.47-1.47 1.47 1.47 0 0 0-1.47 1.47z"/><path id="BE" d="M340.92 330.72a1.54 1.54 0 1 0 1.54-1.54 1.54 1.54 0 0 0-1.54 1.54z"/><path id="BF" d="M340.92 384.82a1.54 1.54 0 1 0 1.54-1.53 1.54 1.54 0 0 0-1.54 1.53z"/><path id="BG" d="M327.28 330.72a1.66 1.66 0 1 0 1.65-1.65 1.65 1.65 0 0 0-1.65 1.65z"/><path id="BH" d="M313.64 330.72a1.77 1.77 0 1 0 1.77-1.76 1.77 1.77 0 0 0-1.77 1.76z"/><path id="BI" d="M313.64 344.25a1.77 1.77 0 1 0 1.77-1.77 1.77 1.77 0 0 0-1.77 1.77z"/><path id="BJ" d="M300 344.25a1.88 1.88 0 1 0 1.87-1.88 1.87 1.87 0 0 0-1.87 1.88z"/><path id="BK" d="M286.37 330.72a2 2 0 1 0 2-2 2 2 0 0 0-2 2z"/><path id="BL" d="M272.7 330.72a2.14 2.14 0 1 0 2.14-2.14 2.14 2.14 0 0 0-2.14 2.14z"/><path id="BM" d="M272.7 344.25a2.14 2.14 0 1 0 2.14-2.14 2.13 2.13 0 0 0-2.14 2.14z"/><path id="BN" d="M259.05 330.72a2.26 2.26 0 1 0 2.25-2.25 2.25 2.25 0 0 0-2.25 2.25z"/><path id="BO" d="M259.05 411.88a2.26 2.26 0 1 0 2.25-2.26 2.25 2.25 0 0 0-2.25 2.26z"/><path id="BP" d="M245.45 330.72a2.33 2.33 0 1 0 2.33-2.33 2.33 2.33 0 0 0-2.33 2.33z"/><path id="BQ" d="M245.45 357.77a2.33 2.33 0 1 0 2.33-2.32 2.33 2.33 0 0 0-2.33 2.32z"/><path id="BR" d="M231.82 330.72a2.44 2.44 0 1 0 2.43-2.44 2.43 2.43 0 0 0-2.43 2.44z"/><path id="BS" d="M231.82 466a2.44 2.44 0 1 0 2.43-2.44 2.44 2.44 0 0 0-2.43 2.44z"/><path id="BT" d="M218.18 330.72a2.55 2.55 0 1 0 2.55-2.55 2.55 2.55 0 0 0-2.55 2.55z"/><path id="BU" d="M218.18 479.5a2.55 2.55 0 1 0 2.55-2.56 2.55 2.55 0 0 0-2.55 2.56z"/><path id="BV" d="M204.54 330.72a2.67 2.67 0 1 0 2.66-2.66 2.66 2.66 0 0 0-2.66 2.66z"/><path id="BW" d="M204.54 344.25a2.67 2.67 0 1 0 2.66-2.67 2.66 2.66 0 0 0-2.66 2.67z"/><path id="BX" d="M190.9 330.72a2.78 2.78 0 1 0 2.77-2.77 2.77 2.77 0 0 0-2.77 2.77z"/><path id="BY" d="M190.9 344.25a2.78 2.78 0 1 0 2.77-2.78 2.77 2.77 0 0 0-2.77 2.78z"/><path id="BZ" d="M190.9 357.77a2.78 2.78 0 1 0 2.77-2.77 2.78 2.78 0 0 0-2.77 2.77z"/><path id="Ba" d="M177.26 330.72a2.89 2.89 0 1 0 2.89-2.89 2.89 2.89 0 0 0-2.89 2.89z"/><path id="Bb" d="M177.26 344.25a2.89 2.89 0 1 0 2.89-2.89 2.88 2.88 0 0 0-2.89 2.89z"/><path id="Bc" d="M177.26 384.82a2.89 2.89 0 1 0 2.89-2.88 2.89 2.89 0 0 0-2.89 2.88z"/><path id="Bd" d="M163.62 330.72a3 3 0 1 0 3-3 3 3 0 0 0-3 3z"/><path id="Be" d="M150 330.72a3.11 3.11 0 1 0 3.11-3.11 3.11 3.11 0 0 0-3.11 3.11z"/><path id="Bf" d="M150 344.25a3.11 3.11 0 1 0 3.11-3.12 3.11 3.11 0 0 0-3.11 3.12z"/><path id="Bg" d="M150 357.77a3.11 3.11 0 1 0 3.11-3.11 3.12 3.12 0 0 0-3.11 3.11z"/><path id="Bh" d="M136.34 330.72a3.23 3.23 0 1 0 3.23-3.23 3.23 3.23 0 0 0-3.23 3.23z"/><path id="Bi" d="M136.34 357.77a3.23 3.23 0 1 0 3.23-3.22 3.23 3.23 0 0 0-3.23 3.22z"/><path id="Bj" d="M122.7 330.72a3.34 3.34 0 1 0 3.34-3.34 3.34 3.34 0 0 0-3.34 3.34z"/><path id="Bk" d="M122.7 384.82a3.34 3.34 0 1 0 3.34-3.34 3.33 3.33 0 0 0-3.34 3.34z"/><path id="Bl" d="M109.07 330.72a3.45 3.45 0 1 0 3.45-3.45 3.45 3.45 0 0 0-3.45 3.45z"/><path id="Bm" d="M109.07 344.25a3.45 3.45 0 1 0 3.45-3.46 3.45 3.45 0 0 0-3.45 3.46z"/><path id="Bn" d="M109.07 357.77a3.45 3.45 0 1 0 3.45-3.45 3.44 3.44 0 0 0-3.45 3.45z"/><path id="Bo" d="M95.43 330.72a3.57 3.57 0 1 0 3.57-3.56 3.56 3.56 0 0 0-3.57 3.56z"/><path id="Bp" d="M95.43 344.25a3.57 3.57 0 1 0 3.57-3.57 3.57 3.57 0 0 0-3.57 3.57z"/><path id="Bq" d="M81.8 344.25a3.68 3.68 0 1 0 3.68-3.68 3.67 3.67 0 0 0-3.68 3.68z"/><path id="Br" d="M81.8 357.77a3.68 3.68 0 1 0 3.68-3.68 3.68 3.68 0 0 0-3.68 3.68z"/><path id="Bs" d="M81.8 384.82a3.68 3.68 0 1 0 3.68-3.67 3.68 3.68 0 0 0-3.68 3.67z"/><path id="Bt" d="M68.2 344.25a3.75 3.75 0 1 0 3.75-3.76 3.75 3.75 0 0 0-3.75 3.76z"/><path id="Bu" d="M68.2 371.3a3.75 3.75 0 1 0 3.75-3.75 3.75 3.75 0 0 0-3.75 3.75z"/><path id="Bv" d="M54.55 330.72a3.87 3.87 0 1 0 3.87-3.86 3.86 3.86 0 0 0-3.87 3.86z"/><path id="Bw" d="M54.55 344.25a3.87 3.87 0 1 0 3.87-3.87 3.86 3.86 0 0 0-3.87 3.87z"/><path id="Bx" d="M54.55 452.45a3.87 3.87 0 1 0 3.87-3.86 3.87 3.87 0 0 0-3.87 3.86z"/><path id="By" d="M40.9 330.72a4 4 0 1 0 4-4 4 4 0 0 0-4 4z"/><path id="Bz" d="M27.28 330.72a4.09 4.09 0 1 0 4.08-4.09 4.09 4.09 0 0 0-4.08 4.09z"/><path id="CA" d="M27.28 344.25a4.09 4.09 0 1 0 4.08-4.09 4.08 4.08 0 0 0-4.08 4.09z"/><path id="CB" d="M13.64 330.72a4.2 4.2 0 1 0 4.2-4.2 4.2 4.2 0 0 0-4.2 4.2z"/><path id="CC" d="M129.85 303.76a.14.14 0 0 0-.15-.15.15.15 0 0 0-.15.15.15.15 0 0 0 .15.14.14.14 0 0 0 .15-.14z"/><path id="CD" d="M129.85 222.6a.14.14 0 0 0-.15-.15.15.15 0 1 0 0 .3.15.15 0 0 0 .15-.15z"/><path id="CE" d="M157.1 303.76a.34.34 0 1 0-.67 0 .34.34 0 0 0 .67 0z"/><path id="CF" d="M184.37 290.23a.57.57 0 0 0-.56-.57.58.58 0 0 0-.57.57.57.57 0 0 0 .57.56.56.56 0 0 0 .56-.56z"/><path id="CG" d="M184.37 263.18a.56.56 0 0 0-.56-.57.57.57 0 1 0 0 1.13.56.56 0 0 0 .56-.56z"/><path id="CH" d="M225.3 303.76a.91.91 0 1 0-.9.89.9.9 0 0 0 .9-.89z"/><path id="CI" d="M266.2 263.18a1.24 1.24 0 1 0-1.24 1.23 1.23 1.23 0 0 0 1.24-1.23z"/><path id="CJ" d="M416.18 290.23a2.44 2.44 0 1 0-2.43 2.43 2.43 2.43 0 0 0 2.43-2.43z"/><path id="CK" d="M511.65 317.28a3.23 3.23 0 1 0-3.22 3.22 3.22 3.22 0 0 0 3.22-3.22z"/><path id="CL" d="M525.3 303.76a3.34 3.34 0 1 0-3.34 3.33 3.33 3.33 0 0 0 3.34-3.33z"/><path id="CM" d="M579.8 303.76a3.75 3.75 0 1 0-3.75 3.74 3.75 3.75 0 0 0 3.75-3.74z"/><path id="CN" d="M593.45 317.28a3.87 3.87 0 1 0-3.87 3.86 3.87 3.87 0 0 0 3.87-3.86z"/><path id="CO" d="M620.72 303.76a4.09 4.09 0 1 0-4.08 4.08 4.09 4.09 0 0 0 4.08-4.08z"/><path id="CP" d="M450 74.88a.69.69 0 0 0 .68.68.68.68 0 0 0 .67-.68.67.67 0 0 0-.67-.67.68.68 0 0 0-.68.67z"/><path id="CQ" d="M395.44 47.83a1.13 1.13 0 1 0 1.12-1.13 1.13 1.13 0 0 0-1.12 1.13z"/><path id="CR" d="M381.8 20.78a1.24 1.24 0 1 0 1.2-1.24 1.24 1.24 0 0 0-1.2 1.24z"/><path id="CS" d="M340.92 20.78a1.54 1.54 0 1 0 1.54-1.54 1.53 1.53 0 0 0-1.54 1.54z"/><path id="CT" d="M313.64 7.25a1.77 1.77 0 1 0 1.77-1.76 1.76 1.76 0 0 0-1.77 1.76z"/><path id="CU" d="M204.54 34.3a2.67 2.67 0 1 0 2.66-2.66 2.67 2.67 0 0 0-2.66 2.66z"/></defs></svg>
